{
.appVersion = "3034";
.formatVersion = 3;
DisplayStrings = (
In,
Kacken
);
axes = (
{
name = Weight;
tag = wght;
},
{
name = Slant;
tag = slnt;
}
);
customParameters = (
{
name = vendorID;
value = JENS;
},
{
name = "Variable Font File Name";
value = "RavagedAntVariable[wght,slnt]";
},
{
name = "Variable Font Origin";
value = m01;
},
{
name = "Write lastChange";
value = 0;
}
);
date = "2020-11-20 09:21:24 +0000";
familyName = "Ravaged Ant Variable";
featurePrefixes = (
{
automatic = 1;
code = "languagesystem DFLT dflt;

languagesystem latn dflt;
";
name = Languagesystems;
}
);
features = (
{
automatic = 1;
code = "feature sups;
feature frac;
feature ordn;
";
tag = aalt;
},
{
automatic = 1;
code = "lookup ccmp_Other_1 {
	@CombiningTopAccents = [acutecomb brevecomb caroncomb circumflexcomb dieresiscomb dotaccentcomb gravecomb hungarumlautcomb macroncomb ringcomb tildecomb];
	@CombiningNonTopAccents = [cedillacomb ogonekcomb];
	sub [i]' @CombiningTopAccents by [idotless];
	sub [i]' @CombiningNonTopAccents @CombiningTopAccents by [idotless];
} ccmp_Other_1;

lookup ccmp_latn_1 {
	sub fi by f i;
	sub fl by f l;
} ccmp_latn_1;

script latn;
lookup ccmp_latn_1;
";
tag = ccmp;
},
{
automatic = 1;
code = "sub one by onesuperior;
sub two by twosuperior;
sub three by threesuperior;
";
tag = sups;
},
{
automatic = 1;
code = "sub one slash four by onequarter;
sub one slash two by onehalf;
sub three slash four by threequarters;
";
tag = frac;
},
{
automatic = 1;
code = "sub [zero one two three four five six seven eight nine] [A a]' by ordfeminine;
sub [zero one two three four five six seven eight nine] [O o]' by ordmasculine;
";
tag = ordn;
},
{
automatic = 1;
code = "lookupflag IgnoreMarks;
sub f i by fi;
sub f l by fl;
";
tag = liga;
}
);
fontMaster = (
{
axesValues = (
74,
0
);
customParameters = (
{
name = underlinePosition;
value = -96;
},
{
name = underlineThickness;
value = 58;
},
{
name = "Axis Location";
value = (
{
Axis = Weight;
Location = 400;
},
{
Axis = Slant;

glyphs = (
{
glyphname = A;
layers = (
{
anchors = (
{
name = bottom;
pos = (370,0);
},
{
name = ogonek;
pos = (729,0);
},
{
name = top;
pos = (370,729);
}
);
background = {
hints = (
{
horizontal = 1;
place = (0, 20);
place = (0, 20);
type = Stem;
},
{
horizontal = 1;
place = (249, 67);
place = (249, 67);
type = Stem;
},
{
horizontal = 1;
place = (719, 20);
place = (719, 20);
type = Stem;
}
);
shapes = (
{
closed = 1;
nodes = (
(89,0,l),
(197,249,l),
(541,249,l),
(648,0,l),
(729,0,l),
(411,739,l),
(328,739,l),
(11,0,l)
);
},
{
closed = 1;
nodes = (
(370,655,l),
(512,316,l),
(225,316,l)
);
}
);
};
hints = (
{
horizontal = 1;
place = (0, 20);
place = (0, 20);
type = Stem;
},
{
horizontal = 1;
place = (249, 67);
place = (249, 67);
type = Stem;
},
{
horizontal = 1;
place = (719, 20);
place = (719, 20);
type = Stem;
}
);
layerId = m01;
shapes = (
{
closed = 1;
nodes = (
(89,0,l),
(197,249,l),
(541,249,l),
(648,0,l),
(729,0,l),
(411,739,l),
(328,739,l),
(11,0,l)
);
},
{
closed = 1;
nodes = (
(370,655,l),
(512,316,l),
(225,316,l)
);
}
);
width = 740;
},
{
anchors = (
{
name = bottom;
pos = (370,0);
},
{
name = ogonek;
pos = (733,0);
},
{
name = top;
pos = (370,729);
}
);
background = {
hints = (
{
horizontal = 1;
place = (0, 20);
place = (0, 20);
type = Stem;
},
{
horizontal = 1;
place = (191, 131);
place = (191, 131);
type = Stem;
},
{
horizontal = 1;
place = (719, 20);
place = (719, 20);
type = Stem;
}
);
shapes = (
{
closed = 1;
nodes = (
(158,0,l),
(240,191,l),
(503,191,l),
(582,0,l),
(733,0,l),
(423,739,l),
(315,739,l),
(7,0,l)
);
},
{
closed = 1;
nodes = (
(369,546,l),
(448,322,l),
(290,322,l)
);
}
);
};
hints = (
{
horizontal = 1;
place = (0, 20);
place = (0, 20);
type = Stem;
},
{
horizontal = 1;
place = (191, 131);
place = (191, 131);
type = Stem;
},
{
horizontal = 1;
place = (719, 20);
place = (719, 20);
type = Stem;
}
);
layerId = "B17A67C7-7966-4564-9280-1BFE3E81CC5D";
shapes = (
{
closed = 1;
nodes = (
(158,0,l),
(240,191,l),
(503,191,l),
(582,0,l),
(733,0,l),
(423,739,l),
(315,739,l),
(7,0,l)
);
},
{
closed = 1;
nodes = (
(369,546,l),
(448,322,l),
(290,322,l)
);
}
);
width = 740;
},
{
anchors = (
{
name = bottom;
pos = (322,0);
},
{
name = ogonek;
pos = (729,0);
},
{
name = top;
pos = (502,729);
}
);
background = {
hints = (
{
horizontal = 1;
place = (0, 20);
place = (0, 20);
type = Stem;
},
{
horizontal = 1;
place = (249, 67);
place = (249, 67);
type = Stem;
},
{
horizontal = 1;
place = (719, 20);
place = (719, 20);
type = Stem;
}
);
shapes = (
{
closed = 1;
nodes = (
(89,0,l),
(243,249,l),
(587,249,l),
(648,0,l),
(729,0,l),
(548,739,l),
(465,739,l),
(11,0,l)
);
},
{
closed = 1;
nodes = (
(491,655,l),
(571,316,l),
(284,316,l)
);
}
);
};
hints = (
{
horizontal = 1;
place = (0, 20);
place = (0, 20);
type = Stem;
},
{
horizontal = 1;
place = (249, 67);
place = (249, 67);
type = Stem;
},
{
horizontal = 1;
place = (719, 20);
place = (719, 20);
type = Stem;
}
);
layerId = "E0ACA937-5896-4BA7-8E51-A45A3D2DA3C0";
shapes = (
{
closed = 1;
nodes = (
(89,0,l),
(243,249,l),
(587,249,l),
(648,0,l),
(729,0,l),
(548,739,l),
(465,739,l),
(11,0,l)
);
},
{
closed = 1;
nodes = (
(491,655,l),
(571,316,l),
(284,316,l)
);
}
);
width = 740;
},
{
anchors = (
{
name = bottom;
pos = (321,0);
},
{
name = ogonek;
pos = (733,0);
},
{
name = top;
pos = (503,729);
}
);
background = {
hints = (
{
horizontal = 1;
place = (0, 20);
place = (0, 20);
type = Stem;
},
{
horizontal = 1;
place = (191, 132);
place = (191, 132);
type = Stem;
},
{
horizontal = 1;
place = (719, 20);
place = (719, 20);
type = Stem;
}
);
shapes = (
{
closed = 1;
nodes = (
(158,0,l),
(275,191,l),
(538,191,l),
(582,0,l),
(733,0,l),
(560,739,l),
(452,739,l),
(7,0,l)
);
},
{
closed = 1;
nodes = (
(470,546,l),
(508,323,l),
(350,323,l)
);
}
);
};
hints = (
{
horizontal = 1;
place = (0, 20);
place = (0, 20);
type = Stem;
},
{
horizontal = 1;
place = (191, 132);
place = (191, 132);
type = Stem;
},
{
horizontal = 1;
place = (719, 20);
place = (719, 20);
type = Stem;
}
);
layerId = "1B96798C-495B-4DFD-B0D1-66437D96AC3B";
shapes = (
{
closed = 1;
nodes = (
(158,0,l),
(275,191,l),
(538,191,l),
(582,0,l),
(733,0,l),
(560,739,l),
(452,739,l),
(7,0,l)
);
},
{
closed = 1;
nodes = (
(470,546,l),
(508,323,l),
(350,323,l)
);
}
);
width = 740;
}
);
unicode = 65;
},
{
color = 6;
glyphname = Aacute;
layers = (
{
background = {
hints = (
{
horizontal = 1;
place = (0, 20);
place = (0, 20);
type = Stem;
},
{
horizontal = 1;
place = (249, 67);
place = (249, 67);
type = Stem;
},
{
horizontal = 1;
place = (719, 20);
place = (719, 20);
type = Stem;
}
);
shapes = (
{
closed = 1;
nodes = (
(89,0,l),
(197,249,l),
(541,249,l),
(648,0,l),
(729,0,l),
(411,739,l),
(328,739,l),
(11,0,l)
);
},
{
closed = 1;
nodes = (
(370,655,l),
(512,316,l),
(225,316,l)
);
},
{
closed = 1;
nodes = (
(517,906,l),
(482,964,l),
(290,848,l),
(324,792,l)
);
}
);
};
hints = (
{
horizontal = 1;
place = (0, 20);
place = (0, 20);
type = Stem;
},
{
horizontal = 1;
place = (249, 67);
place = (249, 67);
type = Stem;
},
{
horizontal = 1;
place = (719, 20);
place = (719, 20);
type = Stem;
}
);
layerId = m01;
shapes = (
{
ref = A;
},
{
pos = (215,182);
ref = acutecomb;
}
);
width = 740;
},
{
background = {
hints = (
{
horizontal = 1;
place = (0, 20);
place = (0, 20);
type = Stem;
},
{
horizontal = 1;
place = (191, 131);
place = (191, 131);
type = Stem;
},
{
horizontal = 1;
place = (719, 20);
place = (719, 20);
type = Stem;
}
);
shapes = (
{
closed = 1;
nodes = (
(158,0,l),
(240,191,l),
(503,191,l),
(582,0,l),
(733,0,l),
(423,739,l),
(315,739,l),
(7,0,l)
);
},
{
closed = 1;
nodes = (
(369,546,l),
(448,322,l),
(290,322,l)
);
},
{
closed = 1;
nodes = (
(542,908,l),
(489,1000,l),
(264,866,l),
(315,788,l)
);
}
);
};
hints = (
{
horizontal = 1;
place = (0, 20);
place = (0, 20);
type = Stem;
},
{
horizontal = 1;
place = (191, 131);
place = (191, 131);
type = Stem;
},
{
horizontal = 1;
place = (719, 20);
place = (719, 20);
type = Stem;
}
);
layerId = "B17A67C7-7966-4564-9280-1BFE3E81CC5D";
shapes = (
{
ref = A;
},
{
pos = (194,175);
ref = acutecomb;
}
);
width = 740;
},
{
background = {
hints = (
{
horizontal = 1;
place = (0, 20);
place = (0, 20);
type = Stem;
},
{
horizontal = 1;
place = (249, 67);
place = (249, 67);
type = Stem;
},
{
horizontal = 1;
place = (719, 20);
place = (719, 20);
type = Stem;
}
);
shapes = (
{
closed = 1;
nodes = (
(89,0,l),
(243,249,l),
(587,249,l),
(648,0,l),
(729,0,l),
(548,739,l),
(465,739,l),
(11,0,l)
);
},
{
closed = 1;
nodes = (
(491,655,l),
(571,316,l),
(284,316,l)
);
},
{
closed = 1;
nodes = (
(683,906,l),
(659,964,l),
(445,848,l),
(469,792,l)
);
}
);
};
hints = (
{
horizontal = 1;
place = (0, 20);
place = (0, 20);
type = Stem;
},
{
horizontal = 1;
place = (249, 67);
place = (249, 67);
type = Stem;
},
{
horizontal = 1;
place = (719, 20);
place = (719, 20);
type = Stem;
}
);
layerId = "E0ACA937-5896-4BA7-8E51-A45A3D2DA3C0";
shapes = (
{
ref = A;
},
{
pos = (237,182);
ref = acutecomb;
}
);
width = 740;
},
{
background = {
hints = (
{
horizontal = 1;
place = (0, 20);
place = (0, 20);
type = Stem;
},
{
horizontal = 1;
place = (191, 132);
place = (191, 132);
type = Stem;
},
{
horizontal = 1;
place = (719, 20);
place = (719, 20);
type = Stem;
}
);
shapes = (
{
closed = 1;
nodes = (
(158,0,l),
(275,191,l),
(538,191,l),
(582,0,l),
(733,0,l),
(560,739,l),
(452,739,l),
(7,0,l)
);
},
{
closed = 1;
nodes = (
(470,546,l),
(508,323,l),
(350,323,l)
);
},
{
closed = 1;
nodes = (
(695,908,l),
(648,1007,l),
(412,880,l),
(452,792,l)
);
}
);
};
hints = (
{
horizontal = 1;
place = (0, 20);
place = (0, 20);
type = Stem;
},
{
horizontal = 1;
place = (191, 132);
place = (191, 132);
type = Stem;
},
{
horizontal = 1;
place = (719, 20);
place = (719, 20);
type = Stem;
}
);
layerId = "1B96798C-495B-4DFD-B0D1-66437D96AC3B";
shapes = (
{
ref = A;
},
{
pos = (220,175);
ref = acutecomb;
}
);
width = 740;
}
);
unicode = 193;
},
{
color = 6;
glyphname = Acircumflex;
layers = (
{
background = {
hints = (
{
horizontal = 1;
place = (0, 20);
place = (0, 20);
type = Stem;
},
{
horizontal = 1;
place = (249, 67);
place = (249, 67);
type = Stem;
},
{
horizontal = 1;
place = (719, 20);
place = (719, 20);
type = Stem;
}
);
shapes = (
{
closed = 1;
nodes = (
(89,0,l),
(197,249,l),
(541,249,l),
(648,0,l),
(729,0,l),
(411,739,l),
(328,739,l),
(11,0,l)
);
},
{
closed = 1;
nodes = (
(370,655,l),
(512,316,l),
(225,316,l)
);
},
{
closed = 1;
nodes = (
(284,805,l),
(372,879,l),
(458,805,l),
(547,805,l),
(404,931,l),
(338,931,l),
(193,805,l)
);
}
);
};
hints = (
{
horizontal = 1;
place = (0, 20);
place = (0, 20);
type = Stem;
},
{
horizontal = 1;
place = (249, 67);
place = (249, 67);
type = Stem;
},
{
horizontal = 1;
place = (719, 20);
place = (719, 20);
type = Stem;
}
);
layerId = m01;
shapes = (
{
ref = A;
},
{
pos = (119,182);
ref = circumflexcomb;
}
);
width = 740;
},
{
background = {
hints = (
{
horizontal = 1;
place = (0, 20);
place = (0, 20);
type = Stem;
},
{
horizontal = 1;
place = (191, 131);
place = (191, 131);
type = Stem;
},
{
horizontal = 1;
place = (719, 20);
place = (719, 20);
type = Stem;
}
);
shapes = (
{
closed = 1;
nodes = (
(158,0,l),
(240,191,l),
(503,191,l),
(582,0,l),
(733,0,l),
(423,739,l),
(315,739,l),
(7,0,l)
);
},
{
closed = 1;
nodes = (
(369,546,l),
(448,322,l),
(290,322,l)
);
},
{
closed = 1;
nodes = (
(317,805,l),
(371,869,l),
(424,805,l),
(570,805,l),
(424,943,l),
(317,943,l),
(171,805,l)
);
}
);
};
hints = (
{
horizontal = 1;
place = (0, 20);
place = (0, 20);
type = Stem;
},
{
horizontal = 1;
place = (191, 131);
place = (191, 131);
type = Stem;
},
{
horizontal = 1;
place = (719, 20);
place = (719, 20);
type = Stem;
}
);
layerId = "B17A67C7-7966-4564-9280-1BFE3E81CC5D";
shapes = (
{
ref = A;
},
{
pos = (96,175);
ref = circumflexcomb;
}
);
width = 740;
},
{
background = {
hints = (
{
horizontal = 1;
place = (0, 20);
place = (0, 20);
type = Stem;
},
{
horizontal = 1;
place = (249, 67);
place = (249, 67);
type = Stem;
},
{
horizontal = 1;
place = (719, 20);
place = (719, 20);
type = Stem;
}
);
shapes = (
{
closed = 1;
nodes = (
(89,0,l),
(243,249,l),
(587,249,l),
(648,0,l),
(729,0,l),
(548,739,l),
(465,739,l),
(11,0,l)
);
},
{
closed = 1;
nodes = (
(491,655,l),
(571,316,l),
(284,316,l)
);
},
{
closed = 1;
nodes = (
(427,805,l),
(529,879,l),
(601,805,l),
(690,805,l),
(571,931,l),
(505,931,l),
(336,805,l)
);
}
);
};
hints = (
{
horizontal = 1;
place = (0, 20);
place = (0, 20);
type = Stem;
},
{
horizontal = 1;
place = (249, 67);
place = (249, 67);
type = Stem;
},
{
horizontal = 1;
place = (719, 20);
place = (719, 20);
type = Stem;
}
);
layerId = "E0ACA937-5896-4BA7-8E51-A45A3D2DA3C0";
shapes = (
{
ref = A;
},
{
pos = (150,182);
ref = circumflexcomb;
}
);
width = 740;
},
{
background = {
hints = (
{
horizontal = 1;
place = (0, 20);
place = (0, 20);
type = Stem;
},
{
horizontal = 1;
place = (191, 132);
place = (191, 132);
type = Stem;
},
{
horizontal = 1;
place = (719, 20);
place = (719, 20);
type = Stem;
},
{
horizontal = 1;
place = (805, 138);
place = (805, 138);
type = Stem;
}
);
shapes = (
{
closed = 1;
nodes = (
(158,0,l),
(275,191,l),
(538,191,l),
(582,0,l),
(733,0,l),
(560,739,l),
(452,739,l),
(7,0,l)
);
},
{
closed = 1;
nodes = (
(470,546,l),
(508,323,l),
(350,323,l)
);
},
{
closed = 1;
nodes = (
(460,805,l),
(526,869,l),
(567,805,l),
(712,805,l),
(593,943,l),
(486,943,l),
(313,805,l)
);
}
);
};
hints = (
{
horizontal = 1;
place = (0, 20);
place = (0, 20);
type = Stem;
},
{
horizontal = 1;
place = (191, 132);
place = (191, 132);
type = Stem;
},
{
horizontal = 1;
place = (719, 20);
place = (719, 20);
type = Stem;
},
{
horizontal = 1;
place = (805, 138);
place = (805, 138);
type = Stem;
}
);
layerId = "1B96798C-495B-4DFD-B0D1-66437D96AC3B";
shapes = (
{
ref = A;
},
{
pos = (128,175);
ref = circumflexcomb;
}
);
width = 740;
}
);
unicode = 194;
},
{
color = 6;
glyphname = Adieresis;
layers = (
{
background = {
hints = (
{
horizontal = 1;
place = (0, 20);
place = (0, 20);
type = Stem;
},
{
horizontal = 1;
place = (249, 67);
place = (249, 67);
type = Stem;
},
{
horizontal = 1;
place = (719, 20);
place = (719, 20);
type = Stem;
},
{
horizontal = 1;
place = (805, 126);
place = (805, 126);
type = Stem;
},
{
place = (260, 74);
place = (260, 74);
type = Stem;
},
{
place = (407, 74);
place = (407, 74);
type = Stem;
}
);
shapes = (
{
closed = 1;
nodes = (
(89,0,l),
(197,249,l),
(541,249,l),
(648,0,l),
(729,0,l),
(411,739,l),
(328,739,l),
(11,0,l)
);
},
{
closed = 1;
nodes = (
(370,655,l),
(512,316,l),
(225,316,l)
);
},
{
closed = 1;
nodes = (
(334,805,l),
(334,931,l),
(260,931,l),
(260,805,l)
);
},
{
closed = 1;
nodes = (
(481,805,l),
(481,931,l),
(407,931,l),
(407,805,l)
);
}
);
};
hints = (
{
horizontal = 1;
place = (0, 20);
place = (0, 20);
type = Stem;
},
{
horizontal = 1;
place = (249, 67);
place = (249, 67);
type = Stem;
},
{
horizontal = 1;
place = (719, 20);
place = (719, 20);
type = Stem;
},
{
horizontal = 1;
place = (805, 126);
place = (805, 126);
type = Stem;
},
{
place = (260, 74);
place = (260, 74);
type = Stem;
},
{
place = (407, 74);
place = (407, 74);
type = Stem;
}
);
layerId = m01;
shapes = (
{
ref = A;
},
{
pos = (185,182);
ref = dieresiscomb;
}
);
width = 740;
},
{
background = {
hints = (
{
horizontal = 1;
place = (0, 20);
place = (0, 20);
type = Stem;
},
{
horizontal = 1;
place = (191, 131);
place = (191, 131);
type = Stem;
},
{
horizontal = 1;
place = (719, 20);
place = (719, 20);
type = Stem;
},
{
horizontal = 1;
place = (805, 133);
place = (805, 133);
type = Stem;
},
{
place = (199, 133);
place = (199, 133);
type = Stem;
},
{
place = (409, 133);
place = (409, 133);
type = Stem;
}
);
shapes = (
{
closed = 1;
nodes = (
(158,0,l),
(240,191,l),
(503,191,l),
(582,0,l),
(733,0,l),
(423,739,l),
(315,739,l),
(7,0,l)
);
},
{
closed = 1;
nodes = (
(369,546,l),
(448,322,l),
(290,322,l)
);
},
{
closed = 1;
nodes = (
(332,805,l),
(332,938,l),
(199,938,l),
(199,805,l)
);
},
{
closed = 1;
nodes = (
(542,805,l),
(542,938,l),
(409,938,l),
(409,805,l)
);
}
);
};
hints = (
{
horizontal = 1;
place = (0, 20);
place = (0, 20);
type = Stem;
},
{
horizontal = 1;
place = (191, 131);
place = (191, 131);
type = Stem;
},
{
horizontal = 1;
place = (719, 20);
place = (719, 20);
type = Stem;
},
{
horizontal = 1;
place = (805, 133);
place = (805, 133);
type = Stem;
},
{
place = (199, 133);
place = (199, 133);
type = Stem;
},
{
place = (409, 133);
place = (409, 133);
type = Stem;
}
);
layerId = "B17A67C7-7966-4564-9280-1BFE3E81CC5D";
shapes = (
{
ref = A;
},
{
pos = (124,175);
ref = dieresiscomb;
}
);
width = 740;
},
{
background = {
hints = (
{
horizontal = 1;
place = (0, 20);
place = (0, 20);
type = Stem;
},
{
horizontal = 1;
place = (249, 67);
place = (249, 67);
type = Stem;
},
{
horizontal = 1;
place = (719, 20);
place = (719, 20);
type = Stem;
},
{
horizontal = 1;
place = (805, 126);
place = (805, 126);
type = Stem;
}
);
shapes = (
{
closed = 1;
nodes = (
(89,0,l),
(243,249,l),
(587,249,l),
(648,0,l),
(729,0,l),
(548,739,l),
(465,739,l),
(11,0,l)
);
},
{
closed = 1;
nodes = (
(491,655,l),
(571,316,l),
(284,316,l)
);
},
{
closed = 1;
nodes = (
(478,805,l),
(502,931,l),
(429,931,l),
(405,805,l)
);
},
{
closed = 1;
nodes = (
(625,805,l),
(649,931,l),
(576,931,l),
(552,805,l)
);
}
);
};
hints = (
{
horizontal = 1;
place = (0, 20);
place = (0, 20);
type = Stem;
},
{
horizontal = 1;
place = (249, 67);
place = (249, 67);
type = Stem;
},
{
horizontal = 1;
place = (719, 20);
place = (719, 20);
type = Stem;
},
{
horizontal = 1;
place = (805, 126);
place = (805, 126);
type = Stem;
}
);
layerId = "E0ACA937-5896-4BA7-8E51-A45A3D2DA3C0";
shapes = (
{
ref = A;
},
{
pos = (217,182);
ref = dieresiscomb;
}
);
width = 740;
},
{
background = {
hints = (
{
horizontal = 1;
place = (0, 20);
place = (0, 20);
type = Stem;
},
{
horizontal = 1;
place = (191, 132);
place = (191, 132);
type = Stem;
},
{
horizontal = 1;
place = (719, 20);
place = (719, 20);
type = Stem;
},
{
horizontal = 1;
place = (805, 132);
place = (805, 132);
type = Stem;
}
);
shapes = (
{
closed = 1;
nodes = (
(158,0,l),
(275,191,l),
(538,191,l),
(582,0,l),
(733,0,l),
(560,739,l),
(452,739,l),
(7,0,l)
);
},
{
closed = 1;
nodes = (
(470,546,l),
(508,323,l),
(350,323,l)
);
},
{
closed = 1;
nodes = (
(477,805,l),
(502,937,l),
(369,937,l),
(344,805,l)
);
},
{
closed = 1;
nodes = (
(687,805,l),
(712,937,l),
(579,937,l),
(554,805,l)
);
}
);
};
hints = (
{
horizontal = 1;
place = (0, 20);
place = (0, 20);
type = Stem;
},
{
horizontal = 1;
place = (191, 132);
place = (191, 132);
type = Stem;
},
{
horizontal = 1;
place = (719, 20);
place = (719, 20);
type = Stem;
},
{
horizontal = 1;
place = (805, 132);
place = (805, 132);
type = Stem;
}
);
layerId = "1B96798C-495B-4DFD-B0D1-66437D96AC3B";
shapes = (
{
ref = A;
},
{
pos = (155,175);
ref = dieresiscomb;
}
);
width = 740;
}
);
unicode = 196;
},
{
color = 6;
glyphname = Agrave;
layers = (
{
background = {
hints = (
{
horizontal = 1;
place = (0, 20);
place = (0, 20);
type = Stem;
},
{
horizontal = 1;
place = (249, 67);
place = (249, 67);
type = Stem;
},
{
horizontal = 1;
place = (719, 20);
place = (719, 20);
type = Stem;
}
);
shapes = (
{
closed = 1;
nodes = (
(89,0,l),
(197,249,l),
(541,249,l),
(648,0,l),
(729,0,l),
(411,739,l),
(328,739,l),
(11,0,l)
);
},
{
closed = 1;
nodes = (
(370,655,l),
(512,316,l),
(225,316,l)
);
},
{
closed = 1;
nodes = (
(452,848,l),
(253,958,l),
(222,900,l),
(419,792,l)
);
}
);
};
hints = (
{
horizontal = 1;
place = (0, 20);
place = (0, 20);
type = Stem;
},
{
horizontal = 1;
place = (249, 67);
place = (249, 67);
type = Stem;
},
{
horizontal = 1;
place = (719, 20);
place = (719, 20);
type = Stem;
}
);
layerId = m01;
shapes = (
{
ref = A;
},
{
pos = (148,182);
ref = gravecomb;
}
);
width = 740;
},
{
background = {
hints = (
{
horizontal = 1;
place = (0, 20);
place = (0, 20);
type = Stem;
},
{
horizontal = 1;
place = (191, 131);
place = (191, 131);
type = Stem;
},
{
horizontal = 1;
place = (719, 20);
place = (719, 20);
type = Stem;
}
);
shapes = (
{
closed = 1;
nodes = (
(158,0,l),
(240,191,l),
(503,191,l),
(582,0,l),
(733,0,l),
(423,739,l),
(315,739,l),
(7,0,l)
);
},
{
closed = 1;
nodes = (
(369,546,l),
(448,322,l),
(290,322,l)
);
},
{
closed = 1;
nodes = (
(476,867,l),
(254,1000,l),
(197,912,l),
(423,788,l)
);
}
);
};
hints = (
{
horizontal = 1;
place = (0, 20);
place = (0, 20);
type = Stem;
},
{
horizontal = 1;
place = (191, 131);
place = (191, 131);
type = Stem;
},
{
horizontal = 1;
place = (719, 20);
place = (719, 20);
type = Stem;
}
);
layerId = "B17A67C7-7966-4564-9280-1BFE3E81CC5D";
shapes = (
{
ref = A;
},
{
pos = (124,175);
ref = gravecomb;
}
);
width = 740;
},
{
background = {
hints = (
{
horizontal = 1;
place = (0, 20);
place = (0, 20);
type = Stem;
},
{
horizontal = 1;
place = (249, 67);
place = (249, 67);
type = Stem;
},
{
horizontal = 1;
place = (719, 20);
place = (719, 20);
type = Stem;
}
);
shapes = (
{
closed = 1;
nodes = (
(89,0,l),
(243,249,l),
(587,249,l),
(648,0,l),
(729,0,l),
(548,739,l),
(465,739,l),
(11,0,l)
);
},
{
closed = 1;
nodes = (
(491,655,l),
(571,316,l),
(284,316,l)
);
},
{
closed = 1;
nodes = (
(584,843,l),
(403,960,l),
(363,908,l),
(545,792,l)
);
}
);
};
hints = (
{
horizontal = 1;
place = (0, 20);
place = (0, 20);
type = Stem;
},
{
horizontal = 1;
place = (249, 67);
place = (249, 67);
type = Stem;
},
{
horizontal = 1;
place = (719, 20);
place = (719, 20);
type = Stem;
}
);
layerId = "E0ACA937-5896-4BA7-8E51-A45A3D2DA3C0";
shapes = (
{
ref = A;
},
{
pos = (180,182);
ref = gravecomb;
}
);
width = 740;
},
{
background = {
hints = (
{
horizontal = 1;
place = (0, 20);
place = (0, 20);
type = Stem;
},
{
horizontal = 1;
place = (191, 132);
place = (191, 132);
type = Stem;
},
{
horizontal = 1;
place = (719, 20);
place = (719, 20);
type = Stem;
}
);
shapes = (
{
closed = 1;
nodes = (
(158,0,l),
(275,191,l),
(538,191,l),
(582,0,l),
(733,0,l),
(560,739,l),
(452,739,l),
(7,0,l)
);
},
{
closed = 1;
nodes = (
(470,546,l),
(508,323,l),
(350,323,l)
);
},
{
closed = 1;
nodes = (
(623,877,l),
(420,1007,l),
(350,916,l),
(557,792,l)
);
}
);
};
hints = (
{
horizontal = 1;
place = (0, 20);
place = (0, 20);
type = Stem;
},
{
horizontal = 1;
place = (191, 132);
place = (191, 132);
type = Stem;
},
{
horizontal = 1;
place = (719, 20);
place = (719, 20);
type = Stem;
}
);
layerId = "1B96798C-495B-4DFD-B0D1-66437D96AC3B";
shapes = (
{
ref = A;
},
{
pos = (141,175);
ref = gravecomb;
}
);
width = 740;
}
);
unicode = 192;
},
{
color = 6;
glyphname = Aring;
layers = (
{
background = {
hints = (
{
horizontal = 1;
place = (0, 20);
place = (0, 20);
type = Stem;
},
{
horizontal = 1;
place = (249, 67);
place = (249, 67);
type = Stem;
},
{
horizontal = 1;
place = (719, 20);
place = (719, 20);
type = Stem;
},
{
horizontal = 1;
place = (792, 41);
place = (792, 41);
type = Stem;
},
{
horizontal = 1;
place = (935, 41);
place = (935, 41);
type = Stem;
},
{
place = (278, 41);
place = (278, 41);
type = Stem;
},
{
place = (421, 41);
place = (421, 41);
type = Stem;
}
);
shapes = (
{
closed = 1;
nodes = (
(89,0,l),
(197,249,l),
(541,249,l),
(648,0,l),
(729,0,l),
(411,739,l),
(328,739,l),
(11,0,l)
);
},
{
closed = 1;
nodes = (
(370,655,l),
(512,316,l),
(225,316,l)
);
},
{
closed = 1;
nodes = (
(421,792,o),
(462,833,o),
(462,884,c),
(462,934,o),
(421,976,o),
(371,976,c),
(319,976,o),
(278,935,o),
(278,883,c),
(278,833,o),
(319,792,o),
(370,792,c)
);
},
{
closed = 1;
nodes = (
(342,833,o),
(319,856,o),
(319,883,c),
(319,912,o),
(342,935,o),
(370,935,c),
(398,935,o),
(421,911,o),
(421,884,c),
(421,856,o),
(398,833,o),
(370,833,c)
);
}
);
};
hints = (
{
horizontal = 1;
place = (0, 20);
place = (0, 20);
type = Stem;
},
{
horizontal = 1;
place = (249, 67);
place = (249, 67);
type = Stem;
},
{
horizontal = 1;
place = (719, 20);
place = (719, 20);
type = Stem;
},
{
horizontal = 1;
place = (792, 41);
place = (792, 41);
type = Stem;
},
{
horizontal = 1;
place = (935, 41);
place = (935, 41);
type = Stem;
},
{
place = (278, 41);
place = (278, 41);
type = Stem;
},
{
place = (421, 41);
place = (421, 41);
type = Stem;
}
);
layerId = m01;
shapes = (
{
ref = A;
},
{
pos = (204,182);
ref = ringcomb;
}
);
width = 740;
},
{
background = {
hints = (
{
horizontal = 1;
place = (0, 20);
place = (0, 20);
type = Stem;
},
{
horizontal = 1;
place = (191, 131);
place = (191, 131);
type = Stem;
},
{
horizontal = 1;
place = (719, 20);
place = (719, 20);
type = Stem;
},
{
horizontal = 1;
place = (785, 67);
place = (785, 67);
type = Stem;
},
{
horizontal = 1;
place = (924, 67);
place = (924, 67);
type = Stem;
},
{
place = (267, 67);
place = (267, 67);
type = Stem;
},
{
place = (406, 67);
place = (406, 67);
type = Stem;
}
);
shapes = (
{
closed = 1;
nodes = (
(158,0,l),
(240,191,l),
(503,191,l),
(582,0,l),
(733,0,l),
(423,739,l),
(315,739,l),
(7,0,l)
);
},
{
closed = 1;
nodes = (
(369,546,l),
(448,322,l),
(290,322,l)
);
},
{
closed = 1;
nodes = (
(426,785,o),
(473,831,o),
(473,888,c),
(473,944,o),
(427,991,o),
(371,991,c),
(313,991,o),
(267,945,o),
(267,888,c),
(267,831,o),
(313,785,o),
(370,785,c)
);
},
{
closed = 1;
nodes = (
(350,852,o),
(334,868,o),
(334,888,c),
(334,908,o),
(350,924,o),
(370,924,c),
(390,924,o),
(406,908,o),
(406,888,c),
(406,868,o),
(390,852,o),
(370,852,c)
);
}
);
};
hints = (
{
horizontal = 1;
place = (0, 20);
place = (0, 20);
type = Stem;
},
{
horizontal = 1;
place = (191, 131);
place = (191, 131);
type = Stem;
},
{
horizontal = 1;
place = (719, 20);
place = (719, 20);
type = Stem;
},
{
horizontal = 1;
place = (785, 67);
place = (785, 67);
type = Stem;
},
{
horizontal = 1;
place = (924, 67);
place = (924, 67);
type = Stem;
},
{
place = (267, 67);
place = (267, 67);
type = Stem;
},
{
place = (406, 67);
place = (406, 67);
type = Stem;
}
);
layerId = "B17A67C7-7966-4564-9280-1BFE3E81CC5D";
shapes = (
{
ref = A;
},
{
pos = (193,175);
ref = ringcomb;
}
);
width = 740;
},
{
background = {
hints = (
{
horizontal = 1;
place = (0, 20);
place = (0, 20);
type = Stem;
},
{
horizontal = 1;
place = (249, 67);
place = (249, 67);
type = Stem;
},
{
horizontal = 1;
place = (719, 20);
place = (719, 20);
type = Stem;
},
{
horizontal = 1;
place = (788, 40);
place = (788, 40);
type = Stem;
},
{
horizontal = 1;
place = (932, 40);
place = (932, 40);
type = Stem;
},
{
place = (434, 38);
place = (434, 38);
type = Stem;
},
{
place = (583, 37);
place = (583, 37);
type = Stem;
}
);
shapes = (
{
closed = 1;
nodes = (
(89,0,l),
(243,249,l),
(587,249,l),
(648,0,l),
(729,0,l),
(548,739,l),
(465,739,l),
(11,0,l)
);
},
{
closed = 1;
nodes = (
(491,655,l),
(571,316,l),
(284,316,l)
);
},
{
closed = 1;
nodes = (
(569,788,o),
(620,839,o),
(620,898,c),
(620,941,o),
(588,972,o),
(543,972,c),
(484,972,o),
(434,920,o),
(434,859,c),
(434,818,o),
(466,788,o),
(510,788,c)
);
},
{
closed = 1;
nodes = (
(491,828,o),
(472,846,o),
(472,870,c),
(472,902,o),
(504,932,o),
(536,932,c),
(562,932,o),
(583,912,o),
(583,888,c),
(583,859,o),
(549,828,o),
(517,828,c)
);
}
);
};
hints = (
{
horizontal = 1;
place = (0, 20);
place = (0, 20);
type = Stem;
},
{
horizontal = 1;
place = (249, 67);
place = (249, 67);
type = Stem;
},
{
horizontal = 1;
place = (719, 20);
place = (719, 20);
type = Stem;
},
{
horizontal = 1;
place = (788, 40);
place = (788, 40);
type = Stem;
},
{
horizontal = 1;
place = (932, 40);
place = (932, 40);
type = Stem;
},
{
place = (434, 38);
place = (434, 38);
type = Stem;
},
{
place = (583, 37);
place = (583, 37);
type = Stem;
}
);
layerId = "E0ACA937-5896-4BA7-8E51-A45A3D2DA3C0";
shapes = (
{
ref = A;
},
{
pos = (232,182);
ref = ringcomb;
}
);
width = 740;
},
{
background = {
hints = (
{
horizontal = 1;
place = (0, 20);
place = (0, 20);
type = Stem;
},
{
horizontal = 1;
place = (191, 132);
place = (191, 132);
type = Stem;
},
{
horizontal = 1;
place = (719, 20);
place = (719, 20);
type = Stem;
},
{
horizontal = 1;
place = (792, 67);
place = (792, 67);
type = Stem;
},
{
horizontal = 1;
place = (931, 67);
place = (931, 67);
type = Stem;
},
{
place = (425, 68);
place = (425, 68);
type = Stem;
},
{
place = (567, 68);
place = (567, 68);
type = Stem;
}
);
shapes = (
{
closed = 1;
nodes = (
(158,0,l),
(275,191,l),
(538,191,l),
(582,0,l),
(733,0,l),
(560,739,l),
(452,739,l),
(7,0,l)
);
},
{
closed = 1;
nodes = (
(470,546,l),
(508,323,l),
(350,323,l)
);
},
{
closed = 1;
nodes = (
(576,792,o),
(635,850,o),
(635,915,c),
(635,962,o),
(598,998,o),
(550,998,c),
(484,998,o),
(425,940,o),
(425,875,c),
(425,827,o),
(461,792,o),
(510,792,c)
);
},
{
closed = 1;
nodes = (
(507,859,o),
(493,872,o),
(493,887,c),
(493,910,o),
(514,931,o),
(537,931,c),
(553,931,o),
(567,917,o),
(567,901,c),
(567,880,o),
(546,859,o),
(524,859,c)
);
}
);
};
hints = (
{
horizontal = 1;
place = (0, 20);
place = (0, 20);
type = Stem;
},
{
horizontal = 1;
place = (191, 132);
place = (191, 132);
type = Stem;
},
{
horizontal = 1;
place = (719, 20);
place = (719, 20);
type = Stem;
},
{
horizontal = 1;
place = (792, 67);
place = (792, 67);
type = Stem;
},
{
horizontal = 1;
place = (931, 67);
place = (931, 67);
type = Stem;
},
{
place = (425, 68);
place = (425, 68);
type = Stem;
},
{
place = (567, 68);
place = (567, 68);
type = Stem;
}
);
layerId = "1B96798C-495B-4DFD-B0D1-66437D96AC3B";
shapes = (
{
ref = A;
},
{
pos = (221,175);
ref = ringcomb;
}
);
width = 740;
}
);
unicode = 197;
},
{
color = 6;
glyphname = Atilde;
layers = (
{
background = {
hints = (
{
horizontal = 1;
place = (0, 20);
place = (0, 20);
type = Stem;
},
{
horizontal = 1;
place = (249, 67);
place = (249, 67);
type = Stem;
},
{
horizontal = 1;
place = (719, 20);
place = (719, 20);
type = Stem;
},
{
horizontal = 1;
place = (815, 64);
place = (815, 64);
type = Stem;
},
{
horizontal = 1;
place = (847, 63);
place = (847, 63);
type = Stem;
}
);
shapes = (
{
closed = 1;
nodes = (
(89,0,l),
(197,249,l),
(541,249,l),
(648,0,l),
(729,0,l),
(411,739,l),
(328,739,l),
(11,0,l)
);
},
{
closed = 1;
nodes = (
(370,655,l),
(512,316,l),
(225,316,l)
);
},
{
closed = 1;
nodes = (
(460,815,o),
(502,838,o),
(518,864,c),
(485,910,l),
(465,889,o),
(448,879,o),
(429,879,c),
(409,879,o),
(353,910,o),
(321,910,c),
(286,910,o),
(251,891,o),
(228,861,c),
(261,815,l),
(294,843,o),
(302,847,o),
(322,847,c),
(355,847,o),
(394,815,o),
(427,815,c)
);
}
);
};
hints = (
{
horizontal = 1;
place = (0, 20);
place = (0, 20);
type = Stem;
},
{
horizontal = 1;
place = (249, 67);
place = (249, 67);
type = Stem;
},
{
horizontal = 1;
place = (719, 20);
place = (719, 20);
type = Stem;
},
{
horizontal = 1;
place = (815, 64);
place = (815, 64);
type = Stem;
},
{
horizontal = 1;
place = (847, 63);
place = (847, 63);
type = Stem;
}
);
layerId = m01;
shapes = (
{
ref = A;
},
{
pos = (150,182);
ref = tildecomb;
}
);
width = 740;
},
{
background = {
hints = (
{
horizontal = 1;
place = (0, 20);
place = (0, 20);
type = Stem;
},
{
horizontal = 1;
place = (191, 131);
place = (191, 131);
type = Stem;
},
{
horizontal = 1;
place = (719, 20);
place = (719, 20);
type = Stem;
},
{
horizontal = 1;
place = (836, 102);
place = (836, 102);
type = Stem;
},
{
horizontal = 1;
place = (811, 102);
place = (811, 102);
type = Stem;
}
);
shapes = (
{
closed = 1;
nodes = (
(158,0,l),
(240,191,l),
(503,191,l),
(582,0,l),
(733,0,l),
(423,739,l),
(315,739,l),
(7,0,l)
);
},
{
closed = 1;
nodes = (
(369,546,l),
(448,322,l),
(290,322,l)
);
},
{
closed = 1;
nodes = (
(477,811,o),
(503,827,o),
(536,866,c),
(482,947,l),
(460,923,o),
(440,913,o),
(415,913,c),
(382,913,o),
(350,938,o),
(308,938,c),
(266,938,o),
(240,926,o),
(205,891,c),
(259,811,l),
(296,833,o),
(303,836,o),
(329,836,c),
(380,836,o),
(391,811,o),
(442,811,c)
);
}
);
};
hints = (
{
horizontal = 1;
place = (0, 20);
place = (0, 20);
type = Stem;
},
{
horizontal = 1;
place = (191, 131);
place = (191, 131);
type = Stem;
},
{
horizontal = 1;
place = (719, 20);
place = (719, 20);
type = Stem;
},
{
horizontal = 1;
place = (836, 102);
place = (836, 102);
type = Stem;
},
{
horizontal = 1;
place = (811, 102);
place = (811, 102);
type = Stem;
}
);
layerId = "B17A67C7-7966-4564-9280-1BFE3E81CC5D";
shapes = (
{
ref = A;
},
{
pos = (130,175);
ref = tildecomb;
}
);
width = 740;
},
{
background = {
hints = (
{
horizontal = 1;
place = (0, 20);
place = (0, 20);
type = Stem;
},
{
horizontal = 1;
place = (249, 67);
place = (249, 67);
type = Stem;
},
{
horizontal = 1;
place = (719, 20);
place = (719, 20);
type = Stem;
},
{
horizontal = 1;
place = (815, 63);
place = (815, 63);
type = Stem;
},
{
horizontal = 1;
place = (852, 63);
place = (852, 63);
type = Stem;
}
);
shapes = (
{
closed = 1;
nodes = (
(89,0,l),
(243,249,l),
(587,249,l),
(648,0,l),
(729,0,l),
(548,739,l),
(465,739,l),
(11,0,l)
);
},
{
closed = 1;
nodes = (
(491,655,l),
(571,316,l),
(284,316,l)
);
},
{
closed = 1;
nodes = (
(608,815,o),
(640,834,o),
(666,870,c),
(645,916,l),
(622,890,o),
(599,878,o),
(575,878,c),
(544,878,o),
(500,915,o),
(469,915,c),
(444,915,o),
(412,896,o),
(380,864,c),
(404,819,l),
(443,848,o),
(450,852,o),
(461,852,c),
(496,852,o),
(539,815,o),
(574,815,c)
);
}
);
};
hints = (
{
horizontal = 1;
place = (0, 20);
place = (0, 20);
type = Stem;
},
{
horizontal = 1;
place = (249, 67);
place = (249, 67);
type = Stem;
},
{
horizontal = 1;
place = (719, 20);
place = (719, 20);
type = Stem;
},
{
horizontal = 1;
place = (815, 63);
place = (815, 63);
type = Stem;
},
{
horizontal = 1;
place = (852, 63);
place = (852, 63);
type = Stem;
}
);
layerId = "E0ACA937-5896-4BA7-8E51-A45A3D2DA3C0";
shapes = (
{
ref = A;
},
{
pos = (183,182);
ref = tildecomb;
}
);
width = 740;
},
{
background = {
hints = (
{
horizontal = 1;
place = (0, 20);
place = (0, 20);
type = Stem;
},
{
horizontal = 1;
place = (191, 132);
place = (191, 132);
type = Stem;
},
{
horizontal = 1;
place = (719, 20);
place = (719, 20);
type = Stem;
},
{
horizontal = 1;
place = (837, 103);
place = (837, 103);
type = Stem;
},
{
horizontal = 1;
place = (806, 103);
place = (806, 103);
type = Stem;
}
);
shapes = (
{
closed = 1;
nodes = (
(158,0,l),
(275,191,l),
(538,191,l),
(582,0,l),
(733,0,l),
(560,739,l),
(452,739,l),
(7,0,l)
);
},
{
closed = 1;
nodes = (
(470,546,l),
(508,323,l),
(350,323,l)
);
},
{
closed = 1;
nodes = (
(613,806,o),
(647,823,o),
(678,862,c),
(644,944,l),
(598,912,o),
(591,909,o),
(562,909,c),
(533,909,o),
(480,940,o),
(453,940,c),
(423,940,o),
(382,920,o),
(356,892,c),
(393,807,l),
(421,830,o),
(434,837,o),
(449,837,c),
(473,837,o),
(534,806,o),
(569,806,c)
);
}
);
};
hints = (
{
horizontal = 1;
place = (0, 20);
place = (0, 20);
type = Stem;
},
{
horizontal = 1;
place = (191, 132);
place = (191, 132);
type = Stem;
},
{
horizontal = 1;
place = (719, 20);
place = (719, 20);
type = Stem;
},
{
horizontal = 1;
place = (837, 103);
place = (837, 103);
type = Stem;
},
{
horizontal = 1;
place = (806, 103);
place = (806, 103);
type = Stem;
}
);
layerId = "1B96798C-495B-4DFD-B0D1-66437D96AC3B";
shapes = (
{
ref = A;
},
{
pos = (162,175);
ref = tildecomb;
}
);
width = 740;
}
);
unicode = 195;
},
{
glyphname = AE;
layers = (
{
background = {
hints = (
{
horizontal = 1;
place = (0, 67);
place = (0, 67);
type = Stem;
},
{
horizontal = 1;
place = (250, 67);
place = (250, 67);
type = Stem;
},
{
horizontal = 1;
place = (340, 67);
place = (340, 67);
type = Stem;
},
{
horizontal = 1;
place = (672, 67);
place = (672, 67);
type = Stem;
},
{
place = (543, 74);
place = (543, 74);
type = Stem;
}
);
shapes = (
{
closed = 1;
nodes = (
(99,0,l),
(272,250,l),
(543,250,l),
(543,0,l),
(936,0,l),
(936,67,l),
(617,67,l),
(617,340,l),
(925,340,l),
(925,407,l),
(617,407,l),
(617,672,l),
(936,672,l),
(936,739,l),
(522,739,l),
(11,0,l)
);
},
{
closed = 1;
nodes = (
(543,644,l),
(543,317,l),
(319,317,l)
);
}
);
};
hints = (
{
horizontal = 1;
place = (0, 67);
place = (0, 67);
type = Stem;
},
{
horizontal = 1;
place = (250, 67);
place = (250, 67);
type = Stem;
},
{
horizontal = 1;
place = (340, 67);
place = (340, 67);
type = Stem;
},
{
horizontal = 1;
place = (672, 67);
place = (672, 67);
type = Stem;
},
{
place = (543, 74);
place = (543, 74);
type = Stem;
}
);
layerId = m01;
shapes = (
{
closed = 1;
nodes = (
(99,0,l),
(272,250,l),
(543,250,l),
(543,0,l),
(936,0,l),
(936,67,l),
(617,67,l),
(617,340,l),
(925,340,l),
(925,407,l),
(617,407,l),
(617,672,l),
(936,672,l),
(936,739,l),
(522,739,l),
(11,0,l)
);
},
{
closed = 1;
nodes = (
(543,644,l),
(543,317,l),
(319,317,l)
);
}
);
width = 992;
},
{
background = {
hints = (
{
horizontal = 1;
place = (0, 131);
place = (0, 131);
type = Stem;
},
{
horizontal = 1;
place = (191, 131);
place = (191, 131);
type = Stem;
},
{
place = (488, 137);
place = (488, 137);
type = Stem;
},
{
horizontal = 1;
place = (303, 131);
place = (303, 131);
type = Stem;
},
{
horizontal = 1;
place = (608, 131);
place = (608, 131);
type = Stem;
}
);
shapes = (
{
closed = 1;
nodes = (
(182,0,l),
(294,191,l),
(488,191,l),
(488,0,l),
(843,0,l),
(843,131,l),
(625,131,l),
(625,303,l),
(832,303,l),
(832,434,l),
(625,434,l),
(625,608,l),
(843,608,l),
(843,739,l),
(504,739,l),
(17,0,l)
);
},
{
closed = 1;
nodes = (
(488,513,l),
(488,322,l),
(373,322,l)
);
}
);
};
hints = (
{
horizontal = 1;
place = (0, 131);
place = (0, 131);
type = Stem;
},
{
horizontal = 1;
place = (191, 131);
place = (191, 131);
type = Stem;
},
{
place = (488, 137);
place = (488, 137);
type = Stem;
},
{
horizontal = 1;
place = (303, 131);
place = (303, 131);
type = Stem;
},
{
horizontal = 1;
place = (608, 131);
place = (608, 131);
type = Stem;
}
);
layerId = "B17A67C7-7966-4564-9280-1BFE3E81CC5D";
shapes = (
{
closed = 1;
nodes = (
(182,0,l),
(294,191,l),
(488,191,l),
(488,0,l),
(843,0,l),
(843,131,l),
(625,131,l),
(625,303,l),
(832,303,l),
(832,434,l),
(625,434,l),
(625,608,l),
(843,608,l),
(843,739,l),
(504,739,l),
(17,0,l)
);
},
{
closed = 1;
nodes = (
(488,513,l),
(488,322,l),
(373,322,l)
);
}
);
width = 898;
},
{
background = {
hints = (
{
horizontal = 1;
place = (0, 67);
place = (0, 67);
type = Stem;
},
{
horizontal = 1;
place = (250, 67);
place = (250, 67);
type = Stem;
},
{
horizontal = 1;
place = (340, 67);
place = (340, 67);
type = Stem;
},
{
horizontal = 1;
place = (672, 67);
place = (672, 67);
type = Stem;
}
);
shapes = (
{
closed = 1;
nodes = (
(99,0,l),
(318,250,l),
(589,250,l),
(543,0,l),
(936,0,l),
(948,67,l),
(629,67,l),
(680,340,l),
(988,340,l),
(1000,407,l),
(692,407,l),
(742,672,l),
(1061,672,l),
(1073,739,l),
(659,739,l),
(11,0,l)
);
},
{
closed = 1;
nodes = (
(662,644,l),
(602,317,l),
(378,317,l)
);
}
);
};
hints = (
{
horizontal = 1;
place = (0, 67);
place = (0, 67);
type = Stem;
},
{
horizontal = 1;
place = (250, 67);
place = (250, 67);
type = Stem;
},
{
horizontal = 1;
place = (340, 67);
place = (340, 67);
type = Stem;
},
{
horizontal = 1;
place = (672, 67);
place = (672, 67);
type = Stem;
}
);
layerId = "E0ACA937-5896-4BA7-8E51-A45A3D2DA3C0";
shapes = (
{
closed = 1;
nodes = (
(99,0,l),
(318,250,l),
(589,250,l),
(543,0,l),
(936,0,l),
(948,67,l),
(629,67,l),
(680,340,l),
(988,340,l),
(1000,407,l),
(692,407,l),
(742,672,l),
(1061,672,l),
(1073,739,l),
(659,739,l),
(11,0,l)
);
},
{
closed = 1;
nodes = (
(662,644,l),
(602,317,l),
(378,317,l)
);
}
);
width = 992;
},
{
background = {
hints = (
{
horizontal = 1;
place = (0, 132);
place = (0, 132);
type = Stem;
},
{
horizontal = 1;
place = (191, 132);
place = (191, 132);
type = Stem;
},
{
horizontal = 1;
place = (303, 132);
place = (303, 132);
type = Stem;
},
{
horizontal = 1;
place = (607, 132);
place = (607, 132);
type = Stem;
}
);
shapes = (
{
closed = 1;
nodes = (
(181,0,l),
(329,191,l),
(523,191,l),
(488,0,l),
(843,0,l),
(867,132,l),
(649,132,l),
(681,303,l),
(888,303,l),
(912,435,l),
(705,435,l),
(738,607,l),
(956,607,l),
(980,739,l),
(641,739,l),
(17,0,l)
);
},
{
closed = 1;
nodes = (
(583,513,l),
(548,323,l),
(433,323,l)
);
}
);
};
hints = (
{
horizontal = 1;
place = (0, 132);
place = (0, 132);
type = Stem;
},
{
horizontal = 1;
place = (191, 132);
place = (191, 132);
type = Stem;
},
{
horizontal = 1;
place = (303, 132);
place = (303, 132);
type = Stem;
},
{
horizontal = 1;
place = (607, 132);
place = (607, 132);
type = Stem;
}
);
layerId = "1B96798C-495B-4DFD-B0D1-66437D96AC3B";
shapes = (
{
closed = 1;
nodes = (
(181,0,l),
(329,191,l),
(523,191,l),
(488,0,l),
(843,0,l),
(867,132,l),
(649,132,l),
(681,303,l),
(888,303,l),
(912,435,l),
(705,435,l),
(738,607,l),
(956,607,l),
(980,739,l),
(641,739,l),
(17,0,l)
);
},
{
closed = 1;
nodes = (
(583,513,l),
(548,323,l),
(433,323,l)
);
}
);
width = 898;
}
);
metricRight = E;
unicode = 198;
},
{
glyphname = B;
layers = (
{
background = {
hints = (
{
horizontal = 1;
place = (0, 67);
place = (0, 67);
type = Stem;
},
{
horizontal = 1;
place = (354, 67);
place = (354, 67);
type = Stem;
},
{
horizontal = 1;
place = (672, 67);
place = (672, 67);
type = Stem;
},
{
place = (76, 74);
place = (76, 74);
type = Stem;
},
{
place = (469, 75);
place = (469, 75);
type = Stem;
},
{
place = (427, 75);
place = (427, 75);
type = Stem;
}
);
shapes = (
{
closed = 1;
nodes = (
(259,0,l),
(432,0,o),
(544,47,o),
(544,212,c),
(544,302,o),
(506,359,o),
(420,394,c),
(477,426,o),
(502,474,o),
(502,547,c),
(502,611,o),
(478,665,o),
(436,696,c),
(394,726,o),
(339,739,o),
(249,739,c),
(76,739,l),
(76,0,l)
);
},
{
closed = 1;
nodes = (
(150,354,l),
(238,354,l),
(325,354,o),
(369,348,o),
(400,333,c),
(444,311,o),
(469,267,o),
(469,208,c),
(469,87,o),
(373,67,o),
(251,67,c),
(150,67,l)
);
},
{
closed = 1;
nodes = (
(150,672,l),
(239,672,l),
(315,672,o),
(356,665,o),
(384,646,c),
(410,629,o),
(427,589,o),
(427,546,c),
(427,495,o),
(407,457,o),
(370,440,c),
(339,426,o),
(307,421,o),
(240,421,c),
(150,421,l)
);
}
);
};
hints = (
{
horizontal = 1;
place = (0, 67);
place = (0, 67);
type = Stem;
},
{
horizontal = 1;
place = (354, 67);
place = (354, 67);
type = Stem;
},
{
horizontal = 1;
place = (672, 67);
place = (672, 67);
type = Stem;
},
{
place = (76, 74);
place = (76, 74);
type = Stem;
},
{
place = (469, 75);
place = (469, 75);
type = Stem;
},
{
place = (427, 75);
place = (427, 75);
type = Stem;
}
);
layerId = m01;
shapes = (
{
closed = 1;
nodes = (
(259,0,l),
(432,0,o),
(544,47,o),
(544,212,c),
(544,302,o),
(506,359,o),
(420,394,c),
(477,426,o),
(502,474,o),
(502,547,c),
(502,695,o),
(397,739,o),
(249,739,c),
(76,739,l),
(76,0,l)
);
},
{
closed = 1;
nodes = (
(150,354,l),
(238,354,l),
(370,354,o),
(469,340,o),
(469,208,c),
(469,87,o),
(373,67,o),
(251,67,c),
(150,67,l)
);
},
{
closed = 1;
nodes = (
(150,672,l),
(239,672,l),
(350,672,o),
(427,657,o),
(427,546,c),
(427,437,o),
(349,421,o),
(240,421,c),
(150,421,l)
);
}
);
width = 574;
},
{
background = {
hints = (
{
horizontal = 1;
place = (0, 131);
place = (0, 131);
type = Stem;
},
{
horizontal = 1;
place = (320, 134);
place = (320, 134);
type = Stem;
},
{
horizontal = 1;
place = (719, 20);
place = (719, 20);
type = Stem;
},
{
place = (68, 137);
place = (68, 137);
type = Stem;
},
{
place = (410, 138);
place = (410, 138);
type = Stem;
},
{
place = (367, 137);
place = (367, 137);
type = Stem;
}
);
shapes = (
{
closed = 1;
nodes = (
(268,0,l),
(350,0,o),
(410,13,o),
(455,41,c),
(516,78,o),
(551,144,o),
(551,220,c),
(551,266,o),
(538,311,o),
(515,341,c),
(494,369,o),
(473,383,o),
(425,403,c),
(484,434,o),
(507,473,o),
(507,542,c),
(507,611,o),
(476,669,o),
(423,703,c),
(379,731,o),
(333,739,o),
(223,739,c),
(71,739,l),
(71,0,l)
);
},
{
closed = 1;
nodes = (
(208,320,l),
(273,320,l),
(368,320,o),
(413,289,o),
(413,223,c),
(413,159,o),
(372,131,o),
(276,131,c),
(208,131,l)
);
},
{
closed = 1;
nodes = (
(208,605,l),
(264,605,l),
(335,605,o),
(370,581,o),
(370,530,c),
(370,477,o),
(335,454,o),
(252,454,c),
(208,454,l)
);
}
);
};
hints = (
{
horizontal = 1;
place = (0, 131);
place = (0, 131);
type = Stem;
},
{
horizontal = 1;
place = (320, 134);
place = (320, 134);
type = Stem;
},
{
horizontal = 1;
place = (719, 20);
place = (719, 20);
type = Stem;
},
{
place = (68, 137);
place = (68, 137);
type = Stem;
},
{
place = (410, 138);
place = (410, 138);
type = Stem;
},
{
place = (367, 137);
place = (367, 137);
type = Stem;
}
);
layerId = "B17A67C7-7966-4564-9280-1BFE3E81CC5D";
shapes = (
{
closed = 1;
nodes = (
(268,0,l),
(433,0,o),
(551,67,o),
(551,220,c),
(551,313,o),
(513,367,o),
(425,403,c),
(484,434,o),
(507,473,o),
(507,542,c),
(507,697,o),
(388,739,o),
(252,739,c),
(71,739,l),
(71,0,l)
);
},
{
closed = 1;
nodes = (
(208,320,l),
(273,320,l),
(368,320,o),
(413,289,o),
(413,223,c),
(413,159,o),
(372,131,o),
(276,131,c),
(208,131,l)
);
},
{
closed = 1;
nodes = (
(208,605,l),
(264,605,l),
(335,605,o),
(370,581,o),
(370,530,c),
(370,477,o),
(335,454,o),
(252,454,c),
(208,454,l)
);
}
);
width = 583;
},
{
background = {
hints = (
{
horizontal = 1;
place = (0, 67);
place = (0, 67);
type = Stem;
},
{
horizontal = 1;
place = (354, 67);
place = (354, 67);
type = Stem;
},
{
horizontal = 1;
place = (672, 67);
place = (672, 67);
type = Stem;
},
{
place = (511, 77);
place = (511, 77);
type = Stem;
},
{
place = (530, 77);
place = (530, 77);
type = Stem;
}
);
shapes = (
{
closed = 1;
nodes = (
(259,0,l),
(383,0,o),
(450,17,o),
(503,64,c),
(555,109,o),
(588,184,o),
(588,260,c),
(588,323,o),
(562,358,o),
(487,394,c),
(531,412,o),
(552,429,o),
(572,464,c),
(593,501,o),
(607,553,o),
(607,595,c),
(607,693,o),
(537,739,o),
(386,739,c),
(213,739,l),
(76,0,l)
);
},
{
closed = 1;
nodes = (
(216,354,l),
(304,354,l),
(388,354,o),
(435,348,o),
(461,334,c),
(494,316,o),
(511,285,o),
(511,242,c),
(511,194,o),
(492,147,o),
(460,116,c),
(424,82,o),
(363,67,o),
(263,67,c),
(162,67,l)
);
},
{
closed = 1;
nodes = (
(275,672,l),
(365,672,l),
(426,672,o),
(473,665,o),
(495,652,c),
(516,640,o),
(530,610,o),
(530,578,c),
(530,533,o),
(512,487,o),
(485,462,c),
(452,432,o),
(409,421,o),
(318,421,c),
(228,421,l)
);
}
);
};
hints = (
{
horizontal = 1;
place = (0, 67);
place = (0, 67);
type = Stem;
},
{
horizontal = 1;
place = (354, 67);
place = (354, 67);
type = Stem;
},
{
horizontal = 1;
place = (672, 67);
place = (672, 67);
type = Stem;
},
{
place = (511, 77);
place = (511, 77);
type = Stem;
},
{
place = (530, 77);
place = (530, 77);
type = Stem;
}
);
layerId = "E0ACA937-5896-4BA7-8E51-A45A3D2DA3C0";
shapes = (
{
closed = 1;
nodes = (
(293,0,ls),
(451,0,o),
(588,76,o),
(588,260,c),
(588,323,o),
(562,358,o),
(487,394,c),
(575,424,o),
(607,523,o),
(607,595,cs),
(607,693,o),
(537,739,o),
(386,739,c),
(213,739,l),
(76,0,l)
);
},
{
closed = 1;
nodes = (
(216,354,l),
(304,354,l),
(415,354,o),
(511,350,o),
(511,242,c),
(511,103,o),
(402,67,o),
(277,67,cs),
(162,67,l)
);
},
{
closed = 1;
nodes = (
(275,672,l),
(365,672,l),
(453,672,o),
(530,667,o),
(530,578,c),
(530,456,o),
(448,421,o),
(318,421,c),
(228,421,l)
);
}
);
width = 574;
},
{
background = {
hints = (
{
horizontal = 1;
place = (0, 132);
place = (0, 132);
type = Stem;
},
{
horizontal = 1;
place = (320, 134);
place = (320, 134);
type = Stem;
},
{
horizontal = 1;
place = (607, 132);
place = (607, 132);
type = Stem;
},
{
place = (453, 140);
place = (453, 140);
type = Stem;
},
{
place = (467, 140);
place = (467, 140);
type = Stem;
}
);
shapes = (
{
closed = 1;
nodes = (
(265,0,l),
(374,0,o),
(450,24,o),
(507,75,c),
(561,123,o),
(593,194,o),
(593,264,c),
(593,334,o),
(567,373,o),
(497,403,c),
(532,419,o),
(549,432,o),
(567,456,c),
(592,490,o),
(607,535,o),
(607,580,c),
(607,633,o),
(587,676,o),
(549,704,c),
(510,732,o),
(470,739,o),
(358,739,c),
(205,739,l),
(68,0,l)
);
},
{
closed = 1;
nodes = (
(264,320,l),
(329,320,l),
(416,320,o),
(453,297,o),
(453,241,c),
(453,216,o),
(444,192,o),
(426,172,c),
(400,142,o),
(367,132,o),
(297,132,c),
(229,132,l)
);
},
{
closed = 1;
nodes = (
(317,607,l),
(373,607,l),
(434,607,o),
(467,587,o),
(467,549,c),
(467,528,o),
(457,500,o),
(444,485,c),
(426,465,o),
(387,454,o),
(333,454,c),
(289,454,l)
);
}
);
};
hints = (
{
horizontal = 1;
place = (0, 132);
place = (0, 132);
type = Stem;
},
{
horizontal = 1;
place = (320, 134);
place = (320, 134);
type = Stem;
},
{
horizontal = 1;
place = (607, 132);
place = (607, 132);
type = Stem;
},
{
place = (453, 140);
place = (453, 140);
type = Stem;
},
{
place = (467, 140);
place = (467, 140);
type = Stem;
}
);
layerId = "1B96798C-495B-4DFD-B0D1-66437D96AC3B";
shapes = (
{
closed = 1;
nodes = (
(289,0,ls),
(474,0,o),
(593,119,o),
(593,264,cs),
(593,334,o),
(567,373,o),
(497,403,c),
(575,439,o),
(607,506,o),
(607,580,c),
(607,719,o),
(497,739,o),
(358,739,c),
(205,739,l),
(68,0,l)
);
},
{
closed = 1;
nodes = (
(264,320,l),
(329,320,l),
(416,320,o),
(453,297,o),
(453,241,cs),
(453,165,o),
(390,132,o),
(309,132,cs),
(229,132,l)
);
},
{
closed = 1;
nodes = (
(317,607,l),
(373,607,l),
(434,607,o),
(467,587,o),
(467,549,c),
(467,476,o),
(410,454,o),
(333,454,c),
(289,454,l)
);
}
);
width = 580;
}
);
metricLeft = H;
unicode = 66;
},
{
glyphname = C;
layers = (
{
anchors = (
{
name = bottom;
pos = (407,0);
},
{
name = top;
pos = (407,739);
}
);
background = {
hints = (
{
horizontal = 1;
place = (-13, 68);
place = (-13, 68);
type = Stem;
},
{
horizontal = 1;
place = (527, 20);
place = (527, 20);
type = Stem;
},
{
horizontal = 1;
place = (684, 68);
place = (684, 68);
type = Stem;
},
{
place = (44, 75);
place = (44, 75);
type = Stem;
}
);
shapes = (
{
closed = 1;
nodes = (
(582,-13,o),
(696,57,o),
(770,194,c),
(688,194,l),
(657,155,o),
(639,135,o),
(614,116,c),
(565,77,o),
(498,55,o),
(431,55,c),
(260,55,o),
(119,197,o),
(119,370,c),
(119,548,o),
(254,684,o),
(430,684,c),
(494,684,o),
(554,667,o),
(603,634,c),
(636,613,o),
(656,591,o),
(684,547,c),
(767,547,l),
(710,674,o),
(580,752,o),
(427,752,c),
(207,752,o),
(44,588,o),
(44,367,c),
(44,151,o),
(211,-13,o),
(432,-13,c)
);
}
);
};
hints = (
{
horizontal = 1;
place = (-13, 68);
place = (-13, 68);
type = Stem;
},
{
horizontal = 1;
place = (527, 20);
place = (527, 20);
type = Stem;
},
{
horizontal = 1;
place = (684, 68);
place = (684, 68);
type = Stem;
},
{
place = (44, 75);
place = (44, 75);
type = Stem;
}
);
layerId = m01;
shapes = (
{
closed = 1;
nodes = (
(582,-13,o),
(696,57,o),
(770,194,c),
(688,194,l),
(623,108,o),
(549,55,o),
(431,55,c),
(260,55,o),
(119,197,o),
(119,370,c),
(119,548,o),
(254,684,o),
(430,684,c),
(539,684,o),
(624,641,o),
(684,547,c),
(767,547,l),
(710,674,o),
(580,752,o),
(427,752,c),
(207,752,o),
(44,588,o),
(44,367,c),
(44,151,o),
(211,-13,o),
(432,-13,c)
);
}
);
width = 813;
},
{
anchors = (
{
name = bottom;
pos = (395,0);
},
{
name = top;
pos = (395,739);
}
);
background = {
hints = (
{
horizontal = 1;
place = (-13, 132);
place = (-13, 132);
type = Stem;
},
{
horizontal = 1;
place = (620, 132);
place = (620, 132);
type = Stem;
},
{
place = (30, 138);
place = (30, 138);
type = Stem;
}
);
shapes = (
{
closed = 1;
nodes = (
(575,-13,o),
(707,71,o),
(765,206,c),
(604,206,l),
(544,143,o),
(492,119,o),
(421,119,c),
(285,119,o),
(173,233,o),
(173,371,c),
(173,431,o),
(196,495,o),
(234,539,c),
(279,592,o),
(343,620,o),
(418,620,c),
(504,620,o),
(562,592,o),
(612,527,c),
(765,527,l),
(736,591,o),
(710,626,o),
(660,667,c),
(592,722,o),
(505,752,o),
(415,752,c),
(206,752,o),
(35,581,o),
(35,372,c),
(35,159,o),
(208,-13,o),
(424,-13,c)
);
}
);
};
hints = (
{
horizontal = 1;
place = (-13, 132);
place = (-13, 132);
type = Stem;
},
{
horizontal = 1;
place = (620, 132);
place = (620, 132);
type = Stem;
},
{
place = (30, 138);
place = (30, 138);
type = Stem;
}
);
layerId = "B17A67C7-7966-4564-9280-1BFE3E81CC5D";
shapes = (
{
closed = 1;
nodes = (
(575,-13,o),
(707,71,o),
(765,206,c),
(604,206,l),
(544,143,o),
(492,119,o),
(421,119,c),
(285,119,o),
(173,233,o),
(173,371,c),
(173,510,o),
(275,620,o),
(418,620,c),
(504,620,o),
(562,592,o),
(612,527,c),
(765,527,l),
(692,687,o),
(553,752,o),
(415,752,c),
(206,752,o),
(35,581,o),
(35,372,c),
(35,159,o),
(208,-13,o),
(424,-13,c)
);
}
);
width = 785;
},
{
anchors = (
{
name = bottom;
pos = (358,0);
},
{
name = top;
pos = (488,739);
}
);
background = {
hints = (
{
horizontal = 1;
place = (-13, 68);
place = (-13, 68);
type = Stem;
},
{
horizontal = 1;
place = (527, 20);
place = (527, 20);
type = Stem;
},
{
horizontal = 1;
place = (684, 68);
place = (684, 68);
type = Stem;
},
{
place = (106, 77);
place = (106, 77);
type = Stem;
}
);
shapes = (
{
closed = 1;
nodes = (
(580,-13,o),
(717,63,o),
(806,194,c),
(724,194,l),
(638,100,o),
(547,55,o),
(443,55,c),
(292,55,o),
(182,162,o),
(182,310,c),
(182,388,o),
(209,465,o),
(262,534,c),
(336,630,o),
(442,684,o),
(558,684,c),
(622,684,o),
(679,667,o),
(722,635,c),
(750,613,o),
(766,592,o),
(786,547,c),
(868,547,l),
(842,669,o),
(720,752,o),
(568,752,c),
(318,752,o),
(105,540,o),
(105,290,c),
(105,111,o),
(238,-13,o),
(431,-13,c)
);
}
);
};
hints = (
{
horizontal = 1;
place = (-13, 68);
place = (-13, 68);
type = Stem;
},
{
horizontal = 1;
place = (527, 20);
place = (527, 20);
type = Stem;
},
{
horizontal = 1;
place = (684, 68);
place = (684, 68);
type = Stem;
},
{
place = (106, 77);
place = (106, 77);
type = Stem;
}
);
layerId = "E0ACA937-5896-4BA7-8E51-A45A3D2DA3C0";
shapes = (
{
closed = 1;
nodes = (
(580,-13,o),
(717,63,o),
(806,194,c),
(724,194,l),
(638,100,o),
(547,55,o),
(443,55,c),
(292,55,o),
(182,162,o),
(182,310,c),
(182,501,o),
(348,684,o),
(558,684,c),
(664,684,o),
(742,646,o),
(786,547,c),
(868,547,l),
(842,669,o),
(720,752,o),
(568,752,c),
(318,752,o),
(105,540,o),
(105,290,c),
(105,111,o),
(238,-13,o),
(431,-13,c)
);
}
);
width = 812;
},
{
anchors = (
{
name = bottom;
pos = (340,0);
},
{
name = top;
pos = (470,739);
}
);
background = {
hints = (
{
horizontal = 1;
place = (-13, 132);
place = (-13, 132);
type = Stem;
},
{
horizontal = 1;
place = (620, 132);
place = (620, 132);
type = Stem;
},
{
place = (92, 140);
place = (92, 140);
type = Stem;
}
);
shapes = (
{
closed = 1;
nodes = (
(566,-13,o),
(717,73,o),
(797,206,c),
(636,206,l),
(561,142,o),
(508,119,o),
(436,119,c),
(317,119,o),
(231,206,o),
(231,327,c),
(231,383,o),
(252,445,o),
(289,495,c),
(348,575,o),
(433,620,o),
(527,620,c),
(579,620,o),
(629,605,o),
(660,581,c),
(676,568,o),
(686,556,o),
(703,527,c),
(857,527,l),
(839,593,o),
(819,629,o),
(778,667,c),
(719,722,o),
(637,752,o),
(547,752,c),
(312,752,o),
(91,535,o),
(91,303,c),
(91,225,o),
(121,143,o),
(170,88,c),
(228,22,o),
(313,-13,o),
(414,-13,c)
);
}
);
};
hints = (
{
horizontal = 1;
place = (-13, 132);
place = (-13, 132);
type = Stem;
},
{
horizontal = 1;
place = (620, 132);
place = (620, 132);
type = Stem;
},
{
place = (92, 140);
place = (92, 140);
type = Stem;
}
);
layerId = "1B96798C-495B-4DFD-B0D1-66437D96AC3B";
shapes = (
{
closed = 1;
nodes = (
(566,-13,o),
(717,73,o),
(797,206,c),
(636,206,l),
(561,142,o),
(508,119,o),
(436,119,c),
(317,119,o),
(231,206,o),
(231,327,c),
(231,468,o),
(356,620,o),
(527,620,c),
(608,620,o),
(662,597,o),
(703,527,c),
(857,527,l),
(813,690,o),
(684,752,o),
(547,752,c),
(312,752,o),
(91,535,o),
(91,303,c),
(91,132,o),
(213,-13,o),
(414,-13,c)
);
}
);
width = 779;
}
);
metricLeft = O;
unicode = 67;
},
{
color = 6;
glyphname = Ccedilla;
layers = (
{
background = {
hints = (
{
horizontal = 1;
place = (-240, 47);
place = (-240, 47);
type = Stem;
},
{
horizontal = 1;
place = (-99, 38);
place = (-99, 38);
type = Stem;
},
{
horizontal = 1;
place = (527, 20);
place = (527, 20);
type = Stem;
},
{
horizontal = 1;
place = (684, 68);
place = (684, 68);
type = Stem;
},
{
place = (44, 75);
place = (44, 75);
type = Stem;
},
{
place = (468, 48);
place = (468, 48);
type = Stem;
}
);
shapes = (
{
closed = 1;
nodes = (
(478,-240,o),
(516,-201,o),
(516,-145,c),
(516,-95,o),
(485,-61,o),
(439,-61,c),
(427,-61,o),
(419,-63,o),
(405,-68,c),
(429,-13,l),
(581,-14,o),
(699,58,o),
(770,194,c),
(688,194,l),
(657,155,o),
(639,135,o),
(614,116,c),
(565,77,o),
(498,55,o),
(431,55,c),
(260,55,o),
(119,197,o),
(119,370,c),
(119,548,o),
(254,684,o),
(430,684,c),
(494,684,o),
(554,667,o),
(603,634,c),
(636,613,o),
(656,591,o),
(684,547,c),
(767,547,l),
(710,674,o),
(580,752,o),
(427,752,c),
(207,752,o),
(44,588,o),
(44,367,c),
(44,236,o),
(103,125,o),
(211,52,c),
(263,16,o),
(308,0,o),
(390,-12,c),
(348,-103,l),
(378,-121,l),
(393,-105,o),
(405,-99,o),
(422,-99,c),
(449,-99,o),
(468,-119,o),
(468,-147,c),
(468,-175,o),
(451,-193,o),
(423,-193,c),
(400,-193,o),
(386,-183,o),
(378,-159,c),
(331,-166,l),
(345,-214,o),
(377,-240,o),
(424,-240,c)
);
}
);
};
hints = (
{
horizontal = 1;
place = (-240, 47);
place = (-240, 47);
type = Stem;
},
{
horizontal = 1;
place = (-99, 38);
place = (-99, 38);
type = Stem;
},
{
horizontal = 1;
place = (527, 20);
place = (527, 20);
type = Stem;
},
{
horizontal = 1;
place = (684, 68);
place = (684, 68);
type = Stem;
},
{
place = (44, 75);
place = (44, 75);
type = Stem;
},
{
place = (468, 48);
place = (468, 48);
type = Stem;
}
);
layerId = m01;
shapes = (
{
ref = C;
},
{
pos = (265,0);
ref = cedillacomb;
}
);
width = 813;
},
{
background = {
hints = (
{
horizontal = 1;
place = (-251, 55);
place = (-251, 55);
type = Stem;
},
{
horizontal = 1;
place = (-106, 55);
place = (-106, 55);
type = Stem;
},
{
horizontal = 1;
place = (620, 132);
place = (620, 132);
type = Stem;
},
{
place = (30, 138);
place = (30, 138);
type = Stem;
},
{
place = (446, 58);
place = (446, 58);
type = Stem;
}
);
shapes = (
{
closed = 1;
nodes = (
(465,-251,o),
(504,-211,o),
(504,-152,c),
(504,-97,o),
(462,-51,o),
(412,-51,c),
(403,-51,o),
(397,-53,o),
(383,-58,c),
(399,-13,l),
(561,-18,o),
(698,65,o),
(760,206,c),
(599,206,l),
(539,143,o),
(487,119,o),
(416,119,c),
(280,119,o),
(168,233,o),
(168,371,c),
(168,431,o),
(191,495,o),
(229,539,c),
(274,592,o),
(338,620,o),
(413,620,c),
(499,620,o),
(557,592,o),
(607,527,c),
(760,527,l),
(731,591,o),
(705,626,o),
(655,667,c),
(587,722,o),
(500,752,o),
(410,752,c),
(201,752,o),
(30,581,o),
(30,372,c),
(30,186,o),
(170,20,o),
(349,-7,c),
(316,-107,l),
(369,-133,l),
(382,-113,o),
(393,-106,o),
(407,-106,c),
(428,-106,o),
(446,-126,o),
(446,-150,c),
(446,-175,o),
(428,-196,o),
(407,-196,c),
(389,-196,o),
(377,-186,o),
(369,-166,c),
(307,-166,l),
(315,-216,o),
(356,-251,o),
(408,-251,c)
);
}
);
};
hints = (
{
horizontal = 1;
place = (-251, 55);
place = (-251, 55);
type = Stem;
},
{
horizontal = 1;
place = (-106, 55);
place = (-106, 55);
type = Stem;
},
{
horizontal = 1;
place = (620, 132);
place = (620, 132);
type = Stem;
},
{
place = (30, 138);
place = (30, 138);
type = Stem;
},
{
place = (446, 58);
place = (446, 58);
type = Stem;
}
);
layerId = "B17A67C7-7966-4564-9280-1BFE3E81CC5D";
shapes = (
{
ref = C;
},
{
pos = (239,0);
ref = cedillacomb;
}
);
width = 785;
},
{
background = {
hints = (
{
horizontal = 1;
place = (-227, 46);
place = (-227, 46);
type = Stem;
},
{
horizontal = 1;
place = (-85, 33);
place = (-85, 33);
type = Stem;
},
{
horizontal = 1;
place = (-13, 68);
place = (-13, 68);
type = Stem;
},
{
horizontal = 1;
place = (527, 20);
place = (527, 20);
type = Stem;
},
{
horizontal = 1;
place = (684, 68);
place = (684, 68);
type = Stem;
},
{
place = (106, 77);
place = (106, 77);
type = Stem;
},
{
place = (445, 44);
place = (445, 44);
type = Stem;
}
);
shapes = (
{
closed = 1;
nodes = (
(443,-227,o),
(489,-179,o),
(489,-119,c),
(489,-77,o),
(465,-52,o),
(425,-52,c),
(413,-52,o),
(405,-54,o),
(391,-60,c),
(418,-13,l),
(438,-13,l),
(580,-13,o),
(720,65,o),
(807,194,c),
(725,194,l),
(639,100,o),
(548,55,o),
(444,55,c),
(293,55,o),
(183,162,o),
(183,310,c),
(183,388,o),
(210,465,o),
(263,534,c),
(337,630,o),
(443,684,o),
(559,684,c),
(623,684,o),
(680,667,o),
(723,635,c),
(751,613,o),
(767,592,o),
(787,547,c),
(869,547,l),
(843,669,o),
(721,752,o),
(569,752,c),
(319,752,o),
(106,540,o),
(106,290,c),
(106,128,o),
(216,8,o),
(383,-10,c),
(333,-92,l),
(359,-109,l),
(375,-92,o),
(390,-85,o),
(408,-85,c),
(430,-85,o),
(445,-101,o),
(445,-123,c),
(445,-157,o),
(422,-181,o),
(390,-181,c),
(368,-181,o),
(357,-171,o),
(352,-148,c),
(307,-153,l),
(309,-201,o),
(337,-227,o),
(385,-227,c)
);
}
);
};
hints = (
{
horizontal = 1;
place = (-227, 46);
place = (-227, 46);
type = Stem;
},
{
horizontal = 1;
place = (-85, 33);
place = (-85, 33);
type = Stem;
},
{
horizontal = 1;
place = (-13, 68);
place = (-13, 68);
type = Stem;
},
{
horizontal = 1;
place = (527, 20);
place = (527, 20);
type = Stem;
},
{
horizontal = 1;
place = (684, 68);
place = (684, 68);
type = Stem;
},
{
place = (106, 77);
place = (106, 77);
type = Stem;
},
{
place = (445, 44);
place = (445, 44);
type = Stem;
}
);
layerId = "E0ACA937-5896-4BA7-8E51-A45A3D2DA3C0";
shapes = (
{
ref = C;
},
{
pos = (260,0);
ref = cedillacomb;
}
);
width = 812;
},
{
background = {
hints = (
{
horizontal = 1;
place = (-251, 56);
place = (-251, 56);
type = Stem;
},
{
horizontal = 1;
place = (-106, 55);
place = (-106, 55);
type = Stem;
},
{
horizontal = 1;
place = (-13, 132);
place = (-13, 132);
type = Stem;
},
{
horizontal = 1;
place = (620, 132);
place = (620, 132);
type = Stem;
},
{
place = (92, 140);
place = (92, 140);
type = Stem;
},
{
place = (416, 60);
place = (416, 60);
type = Stem;
}
);
shapes = (
{
closed = 1;
nodes = (
(402,-251,o),
(429,-238,o),
(449,-209,c),
(466,-185,o),
(476,-154,o),
(476,-127,c),
(476,-84,o),
(443,-51,o),
(400,-51,c),
(390,-51,o),
(383,-53,o),
(369,-58,c),
(394,-12,l),
(408,-13,o),
(418,-13,o),
(425,-13,c),
(566,-13,o),
(721,78,o),
(798,206,c),
(637,206,l),
(562,142,o),
(509,119,o),
(437,119,c),
(318,119,o),
(232,206,o),
(232,327,c),
(232,383,o),
(253,445,o),
(290,495,c),
(349,575,o),
(434,620,o),
(528,620,c),
(580,620,o),
(630,605,o),
(661,581,c),
(677,568,o),
(687,556,o),
(704,527,c),
(858,527,l),
(840,593,o),
(820,629,o),
(779,667,c),
(720,722,o),
(638,752,o),
(548,752,c),
(313,752,o),
(92,535,o),
(92,304,c),
(92,206,o),
(135,111,o),
(204,56,c),
(249,21,o),
(289,4,o),
(346,-6,c),
(293,-107,l),
(341,-133,l),
(355,-114,o),
(368,-106,o),
(385,-106,c),
(402,-106,o),
(416,-120,o),
(416,-137,c),
(416,-167,o),
(393,-195,o),
(368,-195,c),
(351,-195,o),
(341,-188,o),
(336,-172,c),
(334,-166,l),
(274,-166,l),
(273,-219,o),
(308,-251,o),
(365,-251,c)
);
}
);
};
hints = (
{
horizontal = 1;
place = (-251, 56);
place = (-251, 56);
type = Stem;
},
{
horizontal = 1;
place = (-106, 55);
place = (-106, 55);
type = Stem;
},
{
horizontal = 1;
place = (-13, 132);
place = (-13, 132);
type = Stem;
},
{
horizontal = 1;
place = (620, 132);
place = (620, 132);
type = Stem;
},
{
place = (92, 140);
place = (92, 140);
type = Stem;
},
{
place = (416, 60);
place = (416, 60);
type = Stem;
}
);
layerId = "1B96798C-495B-4DFD-B0D1-66437D96AC3B";
shapes = (
{
ref = C;
},
{
pos = (231,0);
ref = cedillacomb;
}
);
width = 779;
}
);
unicode = 199;
},
{
glyphname = D;
layers = (
{
background = {
hints = (
{
horizontal = 1;
place = (0, 67);
place = (0, 67);
type = Stem;
},
{
horizontal = 1;
place = (672, 67);
place = (672, 67);
type = Stem;
},
{
place = (76, 74);
place = (76, 74);
type = Stem;
},
{
place = (625, 75);
place = (625, 75);
type = Stem;
}
);
shapes = (
{
closed = 1;
nodes = (
(275,0,l),
(386,0,o),
(464,17,o),
(529,55,c),
(641,121,o),
(700,229,o),
(700,367,c),
(700,506,o),
(642,616,o),
(532,681,c),
(462,723,o),
(384,739,o),
(250,739,c),
(76,739,l),
(76,0,l)
);
},
{
closed = 1;
nodes = (
(150,672,l),
(253,672,l),
(365,672,o),
(435,658,o),
(491,624,c),
(576,573,o),
(625,480,o),
(625,370,c),
(625,273,o),
(587,188,o),
(519,133,c),
(460,86,o),
(384,67,o),
(253,67,c),
(150,67,l)
);
}
);
};
hints = (
{
horizontal = 1;
place = (0, 67);
place = (0, 67);
type = Stem;
},
{
horizontal = 1;
place = (672, 67);
place = (672, 67);
type = Stem;
},
{
place = (76, 74);
place = (76, 74);
type = Stem;
},
{
place = (625, 75);
place = (625, 75);
type = Stem;
}
);
layerId = m01;
shapes = (
{
closed = 1;
nodes = (
(275,0,l),
(386,0,o),
(464,17,o),
(529,55,c),
(641,121,o),
(700,229,o),
(700,367,c),
(700,506,o),
(642,616,o),
(532,681,c),
(462,723,o),
(384,739,o),
(250,739,c),
(76,739,l),
(76,0,l)
);
},
{
closed = 1;
nodes = (
(150,672,l),
(253,672,l),
(365,672,o),
(435,658,o),
(491,624,c),
(576,573,o),
(625,480,o),
(625,370,c),
(625,273,o),
(587,188,o),
(519,133,c),
(460,86,o),
(384,67,o),
(253,67,c),
(150,67,l)
);
}
);
width = 744;
},
{
background = {
hints = (
{
horizontal = 1;
place = (0, 131);
place = (0, 131);
type = Stem;
},
{
horizontal = 1;
place = (608, 131);
place = (608, 131);
type = Stem;
},
{
place = (68, 137);
place = (68, 137);
type = Stem;
},
{
place = (522, 138);
place = (522, 138);
type = Stem;
}
);
shapes = (
{
closed = 1;
nodes = (
(243,0,l),
(355,0,o),
(422,11,o),
(482,41,c),
(596,97,o),
(663,219,o),
(663,368,c),
(663,508,o),
(605,624,o),
(502,686,c),
(444,721,o),
(356,739,o),
(240,739,c),
(71,739,l),
(71,0,l)
);
},
{
closed = 1;
nodes = (
(208,608,l),
(235,608,l),
(322,608,o),
(369,600,o),
(412,578,c),
(482,542,o),
(525,463,o),
(525,368,c),
(525,279,o),
(484,200,o),
(418,164,c),
(377,141,o),
(320,131,o),
(238,131,c),
(208,131,l)
);
}
);
};
hints = (
{
horizontal = 1;
place = (0, 131);
place = (0, 131);
type = Stem;
},
{
horizontal = 1;
place = (608, 131);
place = (608, 131);
type = Stem;
},
{
place = (68, 137);
place = (68, 137);
type = Stem;
},
{
place = (522, 138);
place = (522, 138);
type = Stem;
}
);
layerId = "B17A67C7-7966-4564-9280-1BFE3E81CC5D";
shapes = (
{
closed = 1;
nodes = (
(243,0,l),
(355,0,o),
(422,11,o),
(482,41,c),
(596,97,o),
(663,219,o),
(663,368,c),
(663,508,o),
(605,624,o),
(502,686,c),
(444,721,o),
(356,739,o),
(240,739,c),
(71,739,l),
(71,0,l)
);
},
{
closed = 1;
nodes = (
(208,608,l),
(235,608,l),
(322,608,o),
(369,600,o),
(412,578,c),
(482,542,o),
(525,463,o),
(525,368,c),
(525,279,o),
(484,200,o),
(418,164,c),
(377,141,o),
(320,131,o),
(238,131,c),
(208,131,l)
);
}
);
width = 698;
},
{
background = {
hints = (
{
horizontal = 1;
place = (0, 67);
place = (0, 67);
type = Stem;
},
{
horizontal = 1;
place = (672, 67);
place = (672, 67);
type = Stem;
},
{
place = (697, 77);
place = (697, 77);
type = Stem;
}
);
shapes = (
{
closed = 1;
nodes = (
(275,0,l),
(422,0,o),
(519,30,o),
(609,102,c),
(715,187,o),
(774,312,o),
(774,448,c),
(774,547,o),
(733,628,o),
(656,681,c),
(597,722,o),
(520,739,o),
(387,739,c),
(213,739,l),
(76,0,l)
);
},
{
closed = 1;
nodes = (
(275,672,l),
(378,672,l),
(486,672,o),
(556,657,o),
(604,625,c),
(664,584,o),
(697,517,o),
(697,435,c),
(697,336,o),
(653,231,o),
(582,165,c),
(506,94,o),
(420,67,o),
(265,67,c),
(162,67,l)
);
}
);
};
hints = (
{
horizontal = 1;
place = (0, 67);
place = (0, 67);
type = Stem;
},
{
horizontal = 1;
place = (672, 67);
place = (672, 67);
type = Stem;
},
{
place = (697, 77);
place = (697, 77);
type = Stem;
}
);
layerId = "E0ACA937-5896-4BA7-8E51-A45A3D2DA3C0";
shapes = (
{
closed = 1;
nodes = (
(275,0,l),
(422,0,o),
(519,30,o),
(609,102,c),
(715,187,o),
(774,312,o),
(774,448,c),
(774,547,o),
(733,628,o),
(656,681,c),
(597,722,o),
(520,739,o),
(387,739,c),
(213,739,l),
(76,0,l)
);
},
{
closed = 1;
nodes = (
(275,672,l),
(378,672,l),
(486,672,o),
(556,657,o),
(604,625,c),
(664,584,o),
(697,517,o),
(697,435,c),
(697,336,o),
(653,231,o),
(582,165,c),
(506,94,o),
(420,67,o),
(265,67,c),
(162,67,l)
);
}
);
width = 742;
},
{
background = {
hints = (
{
horizontal = 1;
place = (0, 20);
place = (0, 20);
type = Stem;
},
{
horizontal = 1;
place = (608, 131);
place = (608, 131);
type = Stem;
},
{
place = (594, 140);
place = (594, 140);
type = Stem;
}
);
shapes = (
{
closed = 1;
nodes = (
(240,0,l),
(382,0,o),
(469,21,o),
(545,74,c),
(658,153,o),
(734,304,o),
(734,452,c),
(734,554,o),
(694,639,o),
(624,686,c),
(572,721,o),
(487,739,o),
(374,739,c),
(205,739,l),
(68,0,l)
);
},
{
closed = 1;
nodes = (
(318,608,l),
(345,608,l),
(432,608,o),
(477,600,o),
(515,578,c),
(566,548,o),
(594,493,o),
(594,421,c),
(594,343,o),
(564,269,o),
(509,212,c),
(453,154,o),
(382,131,o),
(259,131,c),
(229,131,l)
);
}
);
};
hints = (
{
horizontal = 1;
place = (0, 20);
place = (0, 20);
type = Stem;
},
{
horizontal = 1;
place = (608, 131);
place = (608, 131);
type = Stem;
},
{
place = (594, 140);
place = (594, 140);
type = Stem;
}
);
layerId = "1B96798C-495B-4DFD-B0D1-66437D96AC3B";
shapes = (
{
closed = 1;
nodes = (
(240,0,l),
(382,0,o),
(469,21,o),
(545,74,c),
(658,153,o),
(734,304,o),
(734,452,c),
(734,554,o),
(694,639,o),
(624,686,c),
(572,721,o),
(487,739,o),
(374,739,c),
(205,739,l),
(68,0,l)
);
},
{
closed = 1;
nodes = (
(318,608,l),
(345,608,l),
(432,608,o),
(477,600,o),
(515,578,c),
(566,548,o),
(594,493,o),
(594,421,c),
(594,343,o),
(564,269,o),
(509,212,c),
(453,154,o),
(382,131,o),
(259,131,c),
(229,131,l)
);
}
);
width = 697;
}
);
metricLeft = H;
metricRight = O;
unicode = 68;
},
{
glyphname = Eth;
layers = (
{
background = {
hints = (
{
horizontal = 1;
place = (0, 67);
place = (0, 67);
type = Stem;
},
{
horizontal = 1;
place = (347, 67);
place = (347, 67);
type = Stem;
},
{
horizontal = 1;
place = (672, 67);
place = (672, 67);
type = Stem;
},
{
place = (122, 74);
place = (122, 74);
type = Stem;
},
{
place = (671, 75);
place = (671, 75);
type = Stem;
}
);
shapes = (
{
closed = 1;
nodes = (
(339,0,l),
(450,0,o),
(528,17,o),
(593,55,c),
(705,121,o),
(764,229,o),
(764,367,c),
(764,506,o),
(705,616,o),
(596,681,c),
(526,723,o),
(448,739,o),
(314,739,c),
(140,739,l),
(140,414,l),
(44,414,l),
(44,347,l),
(140,347,l),
(140,0,l)
);
},
{
closed = 1;
nodes = (
(214,347,l),
(419,347,l),
(419,414,l),
(214,414,l),
(214,672,l),
(317,672,l),
(429,672,o),
(499,658,o),
(555,624,c),
(640,573,o),
(689,480,o),
(689,370,c),
(689,273,o),
(651,188,o),
(583,133,c),
(524,86,o),
(448,67,o),
(317,67,c),
(214,67,l)
);
}
);
};
hints = (
{
horizontal = 1;
place = (0, 67);
place = (0, 67);
type = Stem;
},
{
horizontal = 1;
place = (347, 67);
place = (347, 67);
type = Stem;
},
{
horizontal = 1;
place = (672, 67);
place = (672, 67);
type = Stem;
},
{
place = (122, 74);
place = (122, 74);
type = Stem;
},
{
place = (671, 75);
place = (671, 75);
type = Stem;
}
);
layerId = m01;
shapes = (
{
closed = 1;
nodes = (
(339,0,l),
(450,0,o),
(528,17,o),
(593,55,c),
(705,121,o),
(764,229,o),
(764,367,c),
(764,506,o),
(705,616,o),
(596,681,c),
(526,723,o),
(448,739,o),
(314,739,c),
(140,739,l),
(140,414,l),
(44,414,l),
(44,347,l),
(140,347,l),
(140,0,l)
);
},
{
closed = 1;
nodes = (
(214,347,l),
(419,347,l),
(419,414,l),
(214,414,l),
(214,672,l),
(317,672,l),
(429,672,o),
(499,658,o),
(555,624,c),
(640,573,o),
(689,480,o),
(689,370,c),
(689,273,o),
(651,188,o),
(583,133,c),
(524,86,o),
(448,67,o),
(317,67,c),
(214,67,l)
);
}
);
width = 808;
},
{
background = {
hints = (
{
horizontal = 1;
place = (0, 131);
place = (0, 131);
type = Stem;
},
{
horizontal = 1;
place = (315, 107);
place = (315, 107);
type = Stem;
},
{
horizontal = 1;
place = (608, 131);
place = (608, 131);
type = Stem;
},
{
place = (110, 137);
place = (110, 137);
type = Stem;
},
{
place = (564, 138);
place = (564, 138);
type = Stem;
}
);
shapes = (
{
closed = 1;
nodes = (
(282,0,l),
(395,0,o),
(461,11,o),
(521,41,c),
(635,97,o),
(702,218,o),
(702,367,c),
(702,508,o),
(644,624,o),
(541,686,c),
(483,721,o),
(395,739,o),
(279,739,c),
(110,739,l),
(110,422,l),
(14,422,l),
(14,315,l),
(110,315,l),
(110,0,l)
);
},
{
closed = 1;
nodes = (
(247,315,l),
(401,315,l),
(401,422,l),
(247,422,l),
(247,608,l),
(274,608,l),
(362,608,o),
(408,600,o),
(451,578,c),
(521,542,o),
(564,462,o),
(564,368,c),
(564,278,o),
(523,200,o),
(457,164,c),
(416,141,o),
(359,131,o),
(277,131,c),
(247,131,l)
);
}
);
};
hints = (
{
horizontal = 1;
place = (0, 131);
place = (0, 131);
type = Stem;
},
{
horizontal = 1;
place = (315, 107);
place = (315, 107);
type = Stem;
},
{
horizontal = 1;
place = (608, 131);
place = (608, 131);
type = Stem;
},
{
place = (110, 137);
place = (110, 137);
type = Stem;
},
{
place = (564, 138);
place = (564, 138);
type = Stem;
}
);
layerId = "B17A67C7-7966-4564-9280-1BFE3E81CC5D";
shapes = (
{
closed = 1;
nodes = (
(282,0,l),
(395,0,o),
(461,11,o),
(521,41,c),
(635,97,o),
(702,218,o),
(702,367,c),
(702,508,o),
(644,624,o),
(541,686,c),
(483,721,o),
(395,739,o),
(279,739,c),
(110,739,l),
(110,422,l),
(14,422,l),
(14,315,l),
(110,315,l),
(110,0,l)
);
},
{
closed = 1;
nodes = (
(247,315,l),
(401,315,l),
(401,422,l),
(247,422,l),
(247,608,l),
(274,608,l),
(362,608,o),
(408,600,o),
(451,578,c),
(521,542,o),
(564,462,o),
(564,368,c),
(564,278,o),
(523,200,o),
(457,164,c),
(416,141,o),
(359,131,o),
(277,131,c),
(247,131,l)
);
}
);
width = 737;
},
{
background = {
hints = (
{
horizontal = 1;
place = (0, 67);
place = (0, 67);
type = Stem;
},
{
horizontal = 1;
place = (347, 67);
place = (347, 67);
type = Stem;
},
{
horizontal = 1;
place = (672, 67);
place = (672, 67);
type = Stem;
},
{
place = (743, 77);
place = (743, 77);
type = Stem;
}
);
shapes = (
{
closed = 1;
nodes = (
(321,0,l),
(468,0,o),
(565,30,o),
(655,102,c),
(762,188,o),
(820,311,o),
(820,451,c),
(820,550,o),
(781,627,o),
(702,681,c),
(643,723,o),
(566,739,o),
(433,739,c),
(259,739,l),
(198,414,l),
(105,414,l),
(93,347,l),
(186,347,l),
(122,0,l)
);
},
{
closed = 1;
nodes = (
(260,347,l),
(466,347,l),
(478,414,l),
(272,414,l),
(321,672,l),
(424,672,l),
(532,672,o),
(602,657,o),
(650,625,c),
(710,584,o),
(743,517,o),
(743,435,c),
(743,336,o),
(699,231,o),
(628,165,c),
(552,94,o),
(465,67,o),
(312,67,c),
(209,67,l)
);
}
);
};
hints = (
{
horizontal = 1;
place = (0, 67);
place = (0, 67);
type = Stem;
},
{
horizontal = 1;
place = (347, 67);
place = (347, 67);
type = Stem;
},
{
horizontal = 1;
place = (672, 67);
place = (672, 67);
type = Stem;
},
{
place = (743, 77);
place = (743, 77);
type = Stem;
}
);
layerId = "E0ACA937-5896-4BA7-8E51-A45A3D2DA3C0";
shapes = (
{
closed = 1;
nodes = (
(321,0,l),
(468,0,o),
(565,30,o),
(655,102,c),
(762,188,o),
(820,311,o),
(820,451,c),
(820,550,o),
(781,627,o),
(702,681,c),
(643,723,o),
(566,739,o),
(433,739,c),
(259,739,l),
(198,414,l),
(105,414,l),
(93,347,l),
(186,347,l),
(122,0,l)
);
},
{
closed = 1;
nodes = (
(260,347,l),
(466,347,l),
(478,414,l),
(272,414,l),
(321,672,l),
(424,672,l),
(532,672,o),
(602,657,o),
(650,625,c),
(710,584,o),
(743,517,o),
(743,435,c),
(743,336,o),
(699,231,o),
(628,165,c),
(552,94,o),
(465,67,o),
(312,67,c),
(209,67,l)
);
}
);
width = 788;
},
{
background = {
hints = (
{
horizontal = 1;
place = (0, 20);
place = (0, 20);
type = Stem;
},
{
horizontal = 1;
place = (321, 107);
place = (321, 107);
type = Stem;
},
{
horizontal = 1;
place = (608, 131);
place = (608, 131);
type = Stem;
},
{
place = (636, 140);
place = (636, 140);
type = Stem;
}
);
shapes = (
{
closed = 1;
nodes = (
(280,0,l),
(422,0,o),
(507,21,o),
(585,74,c),
(704,155,o),
(776,300,o),
(776,456,c),
(776,558,o),
(737,638,o),
(665,686,c),
(613,721,o),
(528,739,o),
(414,739,c),
(245,739,l),
(187,428,l),
(93,428,l),
(73,321,l),
(167,321,l),
(108,0,l)
);
},
{
closed = 1;
nodes = (
(304,321,l),
(453,321,l),
(473,428,l),
(324,428,l),
(357,608,l),
(384,608,l),
(472,608,o),
(517,600,o),
(556,578,c),
(607,549,o),
(636,493,o),
(636,424,c),
(636,347,o),
(603,265,o),
(551,212,c),
(496,155,o),
(422,131,o),
(299,131,c),
(269,131,l)
);
}
);
};
hints = (
{
horizontal = 1;
place = (0, 20);
place = (0, 20);
type = Stem;
},
{
horizontal = 1;
place = (321, 107);
place = (321, 107);
type = Stem;
},
{
horizontal = 1;
place = (608, 131);
place = (608, 131);
type = Stem;
},
{
place = (636, 140);
place = (636, 140);
type = Stem;
}
);
layerId = "1B96798C-495B-4DFD-B0D1-66437D96AC3B";
shapes = (
{
closed = 1;
nodes = (
(280,0,l),
(422,0,o),
(507,21,o),
(585,74,c),
(704,155,o),
(776,300,o),
(776,456,c),
(776,558,o),
(737,638,o),
(665,686,c),
(613,721,o),
(528,739,o),
(414,739,c),
(245,739,l),
(187,428,l),
(93,428,l),
(73,321,l),
(167,321,l),
(108,0,l)
);
},
{
closed = 1;
nodes = (
(304,321,l),
(453,321,l),
(473,428,l),
(324,428,l),
(357,608,l),
(384,608,l),
(472,608,o),
(517,600,o),
(556,578,c),
(607,549,o),
(636,493,o),
(636,424,c),
(636,347,o),
(603,265,o),
(551,212,c),
(496,155,o),
(422,131,o),
(299,131,c),
(269,131,l)
);
}
);
width = 739;
}
);
metricRight = O;
unicode = 208;
},
{
glyphname = E;
layers = (
{
anchors = (
{
name = bottom;
pos = (268,0);
},
{
name = ogonek;
pos = (482,10);
},
{
name = top;
pos = (279,729);
},
{
name = topleft;
pos = (20,739);
}
);
background = {
hints = (
{
horizontal = 1;
place = (0, 67);
place = (0, 67);
type = Stem;
},
{
horizontal = 1;
place = (340, 67);
place = (340, 67);
type = Stem;
},
{
horizontal = 1;
place = (672, 67);
place = (672, 67);
type = Stem;
},
{
place = (76, 74);
place = (76, 74);
type = Stem;
}
);
shapes = (
{
closed = 1;
nodes = (
(480,0,l),
(480,67,l),
(150,67,l),
(150,340,l),
(469,340,l),
(469,407,l),
(150,407,l),
(150,672,l),
(480,672,l),
(480,739,l),
(76,739,l),
(76,0,l)
);
}
);
};
hints = (
{
horizontal = 1;
place = (0, 67);
place = (0, 67);
type = Stem;
},
{
horizontal = 1;
place = (340, 67);
place = (340, 67);
type = Stem;
},
{
horizontal = 1;
place = (672, 67);
place = (672, 67);
type = Stem;
},
{
place = (76, 74);
place = (76, 74);
type = Stem;
}
);
layerId = m01;
shapes = (
{
closed = 1;
nodes = (
(480,0,l),
(480,67,l),
(150,67,l),
(150,340,l),
(469,340,l),
(469,407,l),
(150,407,l),
(150,672,l),
(480,672,l),
(480,739,l),
(76,739,l),
(76,0,l)
);
}
);
width = 536;
},
{
anchors = (
{
name = bottom;
pos = (263,0);
},
{
name = ogonek;
pos = (471,10);
},
{
name = top;
pos = (270,729);
},
{
name = topleft;
pos = (23,739);
}
);
background = {
hints = (
{
horizontal = 1;
place = (0, 131);
place = (0, 131);
type = Stem;
},
{
horizontal = 1;
place = (303, 131);
place = (303, 131);
type = Stem;
},
{
horizontal = 1;
place = (608, 131);
place = (608, 131);
type = Stem;
},
{
place = (68, 137);
place = (68, 137);
type = Stem;
}
);
shapes = (
{
closed = 1;
nodes = (
(468,0,l),
(468,131,l),
(208,131,l),
(208,303,l),
(457,303,l),
(457,434,l),
(208,434,l),
(208,608,l),
(468,608,l),
(468,739,l),
(71,739,l),
(71,0,l)
);
}
);
};
hints = (
{
horizontal = 1;
place = (0, 131);
place = (0, 131);
type = Stem;
},
{
horizontal = 1;
place = (303, 131);
place = (303, 131);
type = Stem;
},
{
horizontal = 1;
place = (608, 131);
place = (608, 131);
type = Stem;
},
{
place = (68, 137);
place = (68, 137);
type = Stem;
}
);
layerId = "B17A67C7-7966-4564-9280-1BFE3E81CC5D";
shapes = (
{
closed = 1;
nodes = (
(468,0,l),
(468,131,l),
(208,131,l),
(208,303,l),
(457,303,l),
(457,434,l),
(208,434,l),
(208,608,l),
(468,608,l),
(468,739,l),
(71,739,l),
(71,0,l)
);
}
);
width = 523;
},
{
anchors = (
{
name = bottom;
pos = (220,0);
},
{
name = ogonek;
pos = (436,10);
},
{
name = top;
pos = (412,729);
},
{
name = topleft;
pos = (102,739);
}
);
background = {
hints = (
{
horizontal = 1;
place = (0, 67);
place = (0, 67);
type = Stem;
},
{
horizontal = 1;
place = (340, 67);
place = (340, 67);
type = Stem;
},
{
horizontal = 1;
place = (672, 67);
place = (672, 67);
type = Stem;
}
);
shapes = (
{
closed = 1;
nodes = (
(480,0,l),
(492,67,l),
(162,67,l),
(213,340,l),
(532,340,l),
(544,407,l),
(225,407,l),
(275,672,l),
(605,672,l),
(617,739,l),
(213,739,l),
(76,0,l)
);
}
);
};
hints = (
{
horizontal = 1;
place = (0, 67);
place = (0, 67);
type = Stem;
},
{
horizontal = 1;
place = (340, 67);
place = (340, 67);
type = Stem;
},
{
horizontal = 1;
place = (672, 67);
place = (672, 67);
type = Stem;
}
);
layerId = "E0ACA937-5896-4BA7-8E51-A45A3D2DA3C0";
shapes = (
{
closed = 1;
nodes = (
(480,0,l),
(492,67,l),
(162,67,l),
(213,340,l),
(532,340,l),
(544,407,l),
(225,407,l),
(275,672,l),
(605,672,l),
(617,739,l),
(213,739,l),
(76,0,l)
);
}
);
width = 536;
},
{
anchors = (
{
name = bottom;
pos = (211,0);
},
{
name = ogonek;
pos = (421,10);
},
{
name = top;
pos = (398,729);
},
{
name = topleft;
pos = (101,739);
}
);
background = {
hints = (
{
horizontal = 1;
place = (0, 132);
place = (0, 132);
type = Stem;
},
{
horizontal = 1;
place = (303, 132);
place = (303, 132);
type = Stem;
},
{
horizontal = 1;
place = (607, 132);
place = (607, 132);
type = Stem;
}
);
shapes = (
{
closed = 1;
nodes = (
(465,0,l),
(489,132,l),
(229,132,l),
(261,303,l),
(510,303,l),
(534,435,l),
(285,435,l),
(318,607,l),
(578,607,l),
(602,739,l),
(205,739,l),
(68,0,l)
);
}
);
};
hints = (
{
horizontal = 1;
place = (0, 132);
place = (0, 132);
type = Stem;
},
{
horizontal = 1;
place = (303, 132);
place = (303, 132);
type = Stem;
},
{
horizontal = 1;
place = (607, 132);
place = (607, 132);
type = Stem;
}
);
layerId = "1B96798C-495B-4DFD-B0D1-66437D96AC3B";
shapes = (
{
closed = 1;
nodes = (
(465,0,l),
(489,132,l),
(229,132,l),
(261,303,l),
(510,303,l),
(534,435,l),
(285,435,l),
(318,607,l),
(578,607,l),
(602,739,l),
(205,739,l),
(68,0,l)
);
}
);
width = 520;
}
);
metricLeft = H;
unicode = 69;
},
{
color = 6;
glyphname = Eacute;
layers = (
{
background = {
hints = (
{
horizontal = 1;
place = (0, 67);
place = (0, 67);
type = Stem;
},
{
horizontal = 1;
place = (340, 67);
place = (340, 67);
type = Stem;
},
{
horizontal = 1;
place = (672, 67);
place = (672, 67);
type = Stem;
},
{
place = (76, 74);
place = (76, 74);
type = Stem;
}
);
shapes = (
{
closed = 1;
nodes = (
(480,0,l),
(480,67,l),
(150,67,l),
(150,340,l),
(469,340,l),
(469,407,l),
(150,407,l),
(150,672,l),
(480,672,l),
(480,739,l),
(76,739,l),
(76,0,l)
);
},
{
closed = 1;
nodes = (
(425,906,l),
(390,964,l),
(198,848,l),
(232,792,l)
);
}
);
};
hints = (
{
horizontal = 1;
place = (0, 67);
place = (0, 67);
type = Stem;
},
{
horizontal = 1;
place = (340, 67);
place = (340, 67);
type = Stem;
},
{
horizontal = 1;
place = (672, 67);
place = (672, 67);
type = Stem;
},
{
place = (76, 74);
place = (76, 74);
type = Stem;
}
);
layerId = m01;
shapes = (
{
ref = E;
},
{
pos = (124,182);
ref = acutecomb;
}
);
width = 536;
},
{
background = {
hints = (
{
horizontal = 1;
place = (0, 131);
place = (0, 131);
type = Stem;
},
{
horizontal = 1;
place = (303, 131);
place = (303, 131);
type = Stem;
},
{
horizontal = 1;
place = (608, 131);
place = (608, 131);
type = Stem;
},
{
place = (68, 137);
place = (68, 137);
type = Stem;
}
);
shapes = (
{
closed = 1;
nodes = (
(465,0,l),
(465,131,l),
(205,131,l),
(205,303,l),
(454,303,l),
(454,434,l),
(205,434,l),
(205,608,l),
(465,608,l),
(465,739,l),
(68,739,l),
(68,0,l)
);
},
{
closed = 1;
nodes = (
(452,908,l),
(399,1000,l),
(174,866,l),
(225,788,l)
);
}
);
};
hints = (
{
horizontal = 1;
place = (0, 131);
place = (0, 131);
type = Stem;
},
{
horizontal = 1;
place = (303, 131);
place = (303, 131);
type = Stem;
},
{
horizontal = 1;
place = (608, 131);
place = (608, 131);
type = Stem;
},
{
place = (68, 137);
place = (68, 137);
type = Stem;
}
);
layerId = "B17A67C7-7966-4564-9280-1BFE3E81CC5D";
shapes = (
{
ref = E;
},
{
pos = (94,175);
ref = acutecomb;
}
);
width = 523;
},
{
background = {
hints = (
{
horizontal = 1;
place = (0, 67);
place = (0, 67);
type = Stem;
},
{
horizontal = 1;
place = (340, 67);
place = (340, 67);
type = Stem;
},
{
horizontal = 1;
place = (672, 67);
place = (672, 67);
type = Stem;
}
);
shapes = (
{
closed = 1;
nodes = (
(480,0,l),
(492,67,l),
(162,67,l),
(213,340,l),
(532,340,l),
(544,407,l),
(225,407,l),
(275,672,l),
(605,672,l),
(617,739,l),
(213,739,l),
(76,0,l)
);
},
{
closed = 1;
nodes = (
(588,906,l),
(565,964,l),
(351,848,l),
(374,792,l)
);
}
);
};
hints = (
{
horizontal = 1;
place = (0, 67);
place = (0, 67);
type = Stem;
},
{
horizontal = 1;
place = (340, 67);
place = (340, 67);
type = Stem;
},
{
horizontal = 1;
place = (672, 67);
place = (672, 67);
type = Stem;
}
);
layerId = "E0ACA937-5896-4BA7-8E51-A45A3D2DA3C0";
shapes = (
{
ref = E;
},
{
pos = (147,182);
ref = acutecomb;
}
);
width = 536;
},
{
background = {
hints = (
{
horizontal = 1;
place = (0, 132);
place = (0, 132);
type = Stem;
},
{
horizontal = 1;
place = (303, 132);
place = (303, 132);
type = Stem;
},
{
horizontal = 1;
place = (607, 132);
place = (607, 132);
type = Stem;
}
);
shapes = (
{
closed = 1;
nodes = (
(465,0,l),
(489,132,l),
(229,132,l),
(261,303,l),
(510,303,l),
(534,435,l),
(285,435,l),
(318,607,l),
(578,607,l),
(602,739,l),
(205,739,l),
(68,0,l)
);
},
{
closed = 1;
nodes = (
(602,908,l),
(555,1007,l),
(319,880,l),
(359,792,l)
);
}
);
};
hints = (
{
horizontal = 1;
place = (0, 132);
place = (0, 132);
type = Stem;
},
{
horizontal = 1;
place = (303, 132);
place = (303, 132);
type = Stem;
},
{
horizontal = 1;
place = (607, 132);
place = (607, 132);
type = Stem;
}
);
layerId = "1B96798C-495B-4DFD-B0D1-66437D96AC3B";
shapes = (
{
ref = E;
},
{
pos = (115,175);
ref = acutecomb;
}
);
width = 520;
}
);
unicode = 201;
},
{
color = 6;
glyphname = Ecircumflex;
layers = (
{
background = {
hints = (
{
horizontal = 1;
place = (0, 67);
place = (0, 67);
type = Stem;
},
{
horizontal = 1;
place = (340, 67);
place = (340, 67);
type = Stem;
},
{
horizontal = 1;
place = (672, 67);
place = (672, 67);
type = Stem;
},
{
place = (76, 74);
place = (76, 74);
type = Stem;
}
);
shapes = (
{
closed = 1;
nodes = (
(480,0,l),
(480,67,l),
(150,67,l),
(150,340,l),
(469,340,l),
(469,407,l),
(150,407,l),
(150,672,l),
(480,672,l),
(480,739,l),
(76,739,l),
(76,0,l)
);
},
{
closed = 1;
nodes = (
(192,805,l),
(280,879,l),
(366,805,l),
(455,805,l),
(312,931,l),
(246,931,l),
(101,805,l)
);
}
);
};
hints = (
{
horizontal = 1;
place = (0, 67);
place = (0, 67);
type = Stem;
},
{
horizontal = 1;
place = (340, 67);
place = (340, 67);
type = Stem;
},
{
horizontal = 1;
place = (672, 67);
place = (672, 67);
type = Stem;
},
{
place = (76, 74);
place = (76, 74);
type = Stem;
}
);
layerId = m01;
shapes = (
{
ref = E;
},
{
pos = (28,182);
ref = circumflexcomb;
}
);
width = 536;
},
{
background = {
hints = (
{
horizontal = 1;
place = (0, 131);
place = (0, 131);
type = Stem;
},
{
horizontal = 1;
place = (303, 131);
place = (303, 131);
type = Stem;
},
{
horizontal = 1;
place = (608, 131);
place = (608, 131);
type = Stem;
},
{
place = (68, 137);
place = (68, 137);
type = Stem;
}
);
shapes = (
{
closed = 1;
nodes = (
(465,0,l),
(465,131,l),
(205,131,l),
(205,303,l),
(454,303,l),
(454,434,l),
(205,434,l),
(205,608,l),
(465,608,l),
(465,739,l),
(68,739,l),
(68,0,l)
);
},
{
closed = 1;
nodes = (
(211,805,l),
(265,869,l),
(318,805,l),
(463,805,l),
(318,943,l),
(211,943,l),
(64,805,l)
);
}
);
};
hints = (
{
horizontal = 1;
place = (0, 131);
place = (0, 131);
type = Stem;
},
{
horizontal = 1;
place = (303, 131);
place = (303, 131);
type = Stem;
},
{
horizontal = 1;
place = (608, 131);
place = (608, 131);
type = Stem;
},
{
place = (68, 137);
place = (68, 137);
type = Stem;
}
);
layerId = "B17A67C7-7966-4564-9280-1BFE3E81CC5D";
shapes = (
{
ref = E;
},
{
pos = (-4,175);
ref = circumflexcomb;
}
);
width = 523;
},
{
background = {
hints = (
{
horizontal = 1;
place = (0, 67);
place = (0, 67);
type = Stem;
},
{
horizontal = 1;
place = (340, 67);
place = (340, 67);
type = Stem;
},
{
horizontal = 1;
place = (672, 67);
place = (672, 67);
type = Stem;
}
);
shapes = (
{
closed = 1;
nodes = (
(480,0,l),
(492,67,l),
(162,67,l),
(213,340,l),
(532,340,l),
(544,407,l),
(225,407,l),
(275,672,l),
(605,672,l),
(617,739,l),
(213,739,l),
(76,0,l)
);
},
{
closed = 1;
nodes = (
(340,805,l),
(442,879,l),
(514,805,l),
(603,805,l),
(485,931,l),
(418,931,l),
(249,805,l)
);
}
);
};
hints = (
{
horizontal = 1;
place = (0, 67);
place = (0, 67);
type = Stem;
},
{
horizontal = 1;
place = (340, 67);
place = (340, 67);
type = Stem;
},
{
horizontal = 1;
place = (672, 67);
place = (672, 67);
type = Stem;
}
);
layerId = "E0ACA937-5896-4BA7-8E51-A45A3D2DA3C0";
shapes = (
{
ref = E;
},
{
pos = (60,182);
ref = circumflexcomb;
}
);
width = 536;
},
{
background = {
hints = (
{
horizontal = 1;
place = (0, 132);
place = (0, 132);
type = Stem;
},
{
horizontal = 1;
place = (303, 132);
place = (303, 132);
type = Stem;
},
{
horizontal = 1;
place = (607, 132);
place = (607, 132);
type = Stem;
},
{
horizontal = 1;
place = (805, 138);
place = (805, 138);
type = Stem;
}
);
shapes = (
{
closed = 1;
nodes = (
(465,0,l),
(489,132,l),
(229,132,l),
(261,303,l),
(510,303,l),
(534,435,l),
(285,435,l),
(318,607,l),
(578,607,l),
(602,739,l),
(205,739,l),
(68,0,l)
);
},
{
closed = 1;
nodes = (
(360,805,l),
(426,869,l),
(467,805,l),
(612,805,l),
(493,943,l),
(386,943,l),
(213,805,l)
);
}
);
};
hints = (
{
horizontal = 1;
place = (0, 132);
place = (0, 132);
type = Stem;
},
{
horizontal = 1;
place = (303, 132);
place = (303, 132);
type = Stem;
},
{
horizontal = 1;
place = (607, 132);
place = (607, 132);
type = Stem;
},
{
horizontal = 1;
place = (805, 138);
place = (805, 138);
type = Stem;
}
);
layerId = "1B96798C-495B-4DFD-B0D1-66437D96AC3B";
shapes = (
{
ref = E;
},
{
pos = (23,175);
ref = circumflexcomb;
}
);
width = 520;
}
);
unicode = 202;
},
{
color = 6;
glyphname = Edieresis;
layers = (
{
background = {
hints = (
{
horizontal = 1;
place = (0, 67);
place = (0, 67);
type = Stem;
},
{
horizontal = 1;
place = (340, 67);
place = (340, 67);
type = Stem;
},
{
horizontal = 1;
place = (672, 67);
place = (672, 67);
type = Stem;
},
{
horizontal = 1;
place = (805, 126);
place = (805, 126);
type = Stem;
},
{
place = (76, 74);
place = (76, 74);
type = Stem;
},
{
place = (168, 74);
place = (168, 74);
type = Stem;
},
{
place = (315, 74);
place = (315, 74);
type = Stem;
}
);
shapes = (
{
closed = 1;
nodes = (
(480,0,l),
(480,67,l),
(150,67,l),
(150,340,l),
(469,340,l),
(469,407,l),
(150,407,l),
(150,672,l),
(480,672,l),
(480,739,l),
(76,739,l),
(76,0,l)
);
},
{
closed = 1;
nodes = (
(242,805,l),
(242,931,l),
(168,931,l),
(168,805,l)
);
},
{
closed = 1;
nodes = (
(389,805,l),
(389,931,l),
(315,931,l),
(315,805,l)
);
}
);
};
hints = (
{
horizontal = 1;
place = (0, 67);
place = (0, 67);
type = Stem;
},
{
horizontal = 1;
place = (340, 67);
place = (340, 67);
type = Stem;
},
{
horizontal = 1;
place = (672, 67);
place = (672, 67);
type = Stem;
},
{
horizontal = 1;
place = (805, 126);
place = (805, 126);
type = Stem;
},
{
place = (76, 74);
place = (76, 74);
type = Stem;
},
{
place = (168, 74);
place = (168, 74);
type = Stem;
},
{
place = (315, 74);
place = (315, 74);
type = Stem;
}
);
layerId = m01;
shapes = (
{
ref = E;
},
{
pos = (94,182);
ref = dieresiscomb;
}
);
width = 536;
},
{
background = {
hints = (
{
horizontal = 1;
place = (0, 131);
place = (0, 131);
type = Stem;
},
{
horizontal = 1;
place = (303, 131);
place = (303, 131);
type = Stem;
},
{
horizontal = 1;
place = (608, 131);
place = (608, 131);
type = Stem;
},
{
horizontal = 1;
place = (805, 133);
place = (805, 133);
type = Stem;
},
{
place = (68, 137);
place = (68, 137);
type = Stem;
},
{
place = (95, 133);
place = (95, 133);
type = Stem;
},
{
place = (305, 133);
place = (305, 133);
type = Stem;
}
);
shapes = (
{
closed = 1;
nodes = (
(465,0,l),
(465,131,l),
(205,131,l),
(205,303,l),
(454,303,l),
(454,434,l),
(205,434,l),
(205,608,l),
(465,608,l),
(465,739,l),
(68,739,l),
(68,0,l)
);
},
{
closed = 1;
nodes = (
(228,805,l),
(228,938,l),
(95,938,l),
(95,805,l)
);
},
{
closed = 1;
nodes = (
(438,805,l),
(438,938,l),
(305,938,l),
(305,805,l)
);
}
);
};
hints = (
{
horizontal = 1;
place = (0, 131);
place = (0, 131);
type = Stem;
},
{
horizontal = 1;
place = (303, 131);
place = (303, 131);
type = Stem;
},
{
horizontal = 1;
place = (608, 131);
place = (608, 131);
type = Stem;
},
{
horizontal = 1;
place = (805, 133);
place = (805, 133);
type = Stem;
},
{
place = (68, 137);
place = (68, 137);
type = Stem;
},
{
place = (95, 133);
place = (95, 133);
type = Stem;
},
{
place = (305, 133);
place = (305, 133);
type = Stem;
}
);
layerId = "B17A67C7-7966-4564-9280-1BFE3E81CC5D";
shapes = (
{
ref = E;
},
{
pos = (24,175);
ref = dieresiscomb;
}
);
width = 523;
},
{
background = {
hints = (
{
horizontal = 1;
place = (0, 67);
place = (0, 67);
type = Stem;
},
{
horizontal = 1;
place = (340, 67);
place = (340, 67);
type = Stem;
},
{
horizontal = 1;
place = (672, 67);
place = (672, 67);
type = Stem;
},
{
horizontal = 1;
place = (805, 126);
place = (805, 126);
type = Stem;
}
);
shapes = (
{
closed = 1;
nodes = (
(480,0,l),
(492,67,l),
(162,67,l),
(213,340,l),
(532,340,l),
(544,407,l),
(225,407,l),
(275,672,l),
(605,672,l),
(617,739,l),
(213,739,l),
(76,0,l)
);
},
{
closed = 1;
nodes = (
(388,805,l),
(412,931,l),
(338,931,l),
(314,805,l)
);
},
{
closed = 1;
nodes = (
(535,805,l),
(559,931,l),
(485,931,l),
(461,805,l)
);
}
);
};
hints = (
{
horizontal = 1;
place = (0, 67);
place = (0, 67);
type = Stem;
},
{
horizontal = 1;
place = (340, 67);
place = (340, 67);
type = Stem;
},
{
horizontal = 1;
place = (672, 67);
place = (672, 67);
type = Stem;
},
{
horizontal = 1;
place = (805, 126);
place = (805, 126);
type = Stem;
}
);
layerId = "E0ACA937-5896-4BA7-8E51-A45A3D2DA3C0";
shapes = (
{
ref = E;
},
{
pos = (127,182);
ref = dieresiscomb;
}
);
width = 536;
},
{
background = {
hints = (
{
horizontal = 1;
place = (0, 132);
place = (0, 132);
type = Stem;
},
{
horizontal = 1;
place = (303, 132);
place = (303, 132);
type = Stem;
},
{
horizontal = 1;
place = (607, 132);
place = (607, 132);
type = Stem;
},
{
horizontal = 1;
place = (805, 132);
place = (805, 132);
type = Stem;
}
);
shapes = (
{
closed = 1;
nodes = (
(465,0,l),
(489,132,l),
(229,132,l),
(261,303,l),
(510,303,l),
(534,435,l),
(285,435,l),
(318,607,l),
(578,607,l),
(602,739,l),
(205,739,l),
(68,0,l)
);
},
{
closed = 1;
nodes = (
(376,805,l),
(401,937,l),
(268,937,l),
(243,805,l)
);
},
{
closed = 1;
nodes = (
(577,805,l),
(602,937,l),
(469,937,l),
(444,805,l)
);
}
);
};
hints = (
{
horizontal = 1;
place = (0, 132);
place = (0, 132);
type = Stem;
},
{
horizontal = 1;
place = (303, 132);
place = (303, 132);
type = Stem;
},
{
horizontal = 1;
place = (607, 132);
place = (607, 132);
type = Stem;
},
{
horizontal = 1;
place = (805, 132);
place = (805, 132);
type = Stem;
}
);
layerId = "1B96798C-495B-4DFD-B0D1-66437D96AC3B";
shapes = (
{
ref = E;
},
{
pos = (50,175);
ref = dieresiscomb;
}
);
width = 520;
}
);
unicode = 203;
},
{
color = 6;
glyphname = Egrave;
layers = (
{
background = {
hints = (
{
horizontal = 1;
place = (0, 67);
place = (0, 67);
type = Stem;
},
{
horizontal = 1;
place = (340, 67);
place = (340, 67);
type = Stem;
},
{
horizontal = 1;
place = (672, 67);
place = (672, 67);
type = Stem;
},
{
place = (76, 74);
place = (76, 74);
type = Stem;
}
);
shapes = (
{
closed = 1;
nodes = (
(480,0,l),
(480,67,l),
(150,67,l),
(150,340,l),
(469,340,l),
(469,407,l),
(150,407,l),
(150,672,l),
(480,672,l),
(480,739,l),
(76,739,l),
(76,0,l)
);
},
{
closed = 1;
nodes = (
(360,848,l),
(161,958,l),
(130,900,l),
(327,792,l)
);
}
);
};
hints = (
{
horizontal = 1;
place = (0, 67);
place = (0, 67);
type = Stem;
},
{
horizontal = 1;
place = (340, 67);
place = (340, 67);
type = Stem;
},
{
horizontal = 1;
place = (672, 67);
place = (672, 67);
type = Stem;
},
{
place = (76, 74);
place = (76, 74);
type = Stem;
}
);
layerId = m01;
shapes = (
{
ref = E;
},
{
pos = (57,182);
ref = gravecomb;
}
);
width = 536;
},
{
background = {
hints = (
{
horizontal = 1;
place = (0, 131);
place = (0, 131);
type = Stem;
},
{
horizontal = 1;
place = (303, 131);
place = (303, 131);
type = Stem;
},
{
horizontal = 1;
place = (608, 131);
place = (608, 131);
type = Stem;
},
{
place = (68, 137);
place = (68, 137);
type = Stem;
}
);
shapes = (
{
closed = 1;
nodes = (
(465,0,l),
(465,131,l),
(205,131,l),
(205,303,l),
(454,303,l),
(454,434,l),
(205,434,l),
(205,608,l),
(465,608,l),
(465,739,l),
(68,739,l),
(68,0,l)
);
},
{
closed = 1;
nodes = (
(366,867,l),
(144,1000,l),
(87,912,l),
(313,788,l)
);
}
);
};
hints = (
{
horizontal = 1;
place = (0, 131);
place = (0, 131);
type = Stem;
},
{
horizontal = 1;
place = (303, 131);
place = (303, 131);
type = Stem;
},
{
horizontal = 1;
place = (608, 131);
place = (608, 131);
type = Stem;
},
{
place = (68, 137);
place = (68, 137);
type = Stem;
}
);
layerId = "B17A67C7-7966-4564-9280-1BFE3E81CC5D";
shapes = (
{
ref = E;
},
{
pos = (24,175);
ref = gravecomb;
}
);
width = 523;
},
{
background = {
hints = (
{
horizontal = 1;
place = (0, 67);
place = (0, 67);
type = Stem;
},
{
horizontal = 1;
place = (340, 67);
place = (340, 67);
type = Stem;
},
{
horizontal = 1;
place = (672, 67);
place = (672, 67);
type = Stem;
}
);
shapes = (
{
closed = 1;
nodes = (
(480,0,l),
(492,67,l),
(162,67,l),
(213,340,l),
(532,340,l),
(544,407,l),
(225,407,l),
(275,672,l),
(605,672,l),
(617,739,l),
(213,739,l),
(76,0,l)
);
},
{
closed = 1;
nodes = (
(514,843,l),
(332,960,l),
(293,908,l),
(475,792,l)
);
}
);
};
hints = (
{
horizontal = 1;
place = (0, 67);
place = (0, 67);
type = Stem;
},
{
horizontal = 1;
place = (340, 67);
place = (340, 67);
type = Stem;
},
{
horizontal = 1;
place = (672, 67);
place = (672, 67);
type = Stem;
}
);
layerId = "E0ACA937-5896-4BA7-8E51-A45A3D2DA3C0";
shapes = (
{
ref = E;
},
{
pos = (90,182);
ref = gravecomb;
}
);
width = 536;
},
{
background = {
hints = (
{
horizontal = 1;
place = (0, 132);
place = (0, 132);
type = Stem;
},
{
horizontal = 1;
place = (303, 132);
place = (303, 132);
type = Stem;
},
{
horizontal = 1;
place = (607, 132);
place = (607, 132);
type = Stem;
}
);
shapes = (
{
closed = 1;
nodes = (
(465,0,l),
(489,132,l),
(229,132,l),
(261,303,l),
(510,303,l),
(534,435,l),
(285,435,l),
(318,607,l),
(578,607,l),
(602,739,l),
(205,739,l),
(68,0,l)
);
},
{
closed = 1;
nodes = (
(525,877,l),
(322,1007,l),
(252,916,l),
(458,792,l)
);
}
);
};
hints = (
{
horizontal = 1;
place = (0, 132);
place = (0, 132);
type = Stem;
},
{
horizontal = 1;
place = (303, 132);
place = (303, 132);
type = Stem;
},
{
horizontal = 1;
place = (607, 132);
place = (607, 132);
type = Stem;
}
);
layerId = "1B96798C-495B-4DFD-B0D1-66437D96AC3B";
shapes = (
{
ref = E;
},
{
pos = (36,175);
ref = gravecomb;
}
);
width = 520;
}
);
unicode = 200;
},
{
glyphname = F;
layers = (
{
background = {
hints = (
{
horizontal = 1;
place = (0, 20);
place = (0, 20);
type = Stem;
},
{
horizontal = 1;
place = (338, 67);
place = (338, 67);
type = Stem;
},
{
horizontal = 1;
place = (672, 67);
place = (672, 67);
type = Stem;
},
{
place = (76, 74);
place = (76, 74);
type = Stem;
}
);
shapes = (
{
closed = 1;
nodes = (
(150,0,l),
(150,338,l),
(440,338,l),
(440,405,l),
(150,405,l),
(150,672,l),
(451,672,l),
(451,739,l),
(76,739,l),
(76,0,l)
);
}
);
};
hints = (
{
horizontal = 1;
place = (0, 20);
place = (0, 20);
type = Stem;
},
{
horizontal = 1;
place = (338, 67);
place = (338, 67);
type = Stem;
},
{
horizontal = 1;
place = (672, 67);
place = (672, 67);
type = Stem;
},
{
place = (76, 74);
place = (76, 74);
type = Stem;
}
);
layerId = m01;
shapes = (
{
closed = 1;
nodes = (
(150,0,l),
(150,338,l),
(440,338,l),
(440,405,l),
(150,405,l),
(150,672,l),
(451,672,l),
(451,739,l),
(76,739,l),
(76,0,l)
);
}
);
width = 485;
},
{
background = {
hints = (
{
horizontal = 1;
place = (0, 20);
place = (0, 20);
type = Stem;
},
{
horizontal = 1;
place = (303, 131);
place = (303, 131);
type = Stem;
},
{
horizontal = 1;
place = (608, 131);
place = (608, 131);
type = Stem;
},
{
place = (68, 137);
place = (68, 137);
type = Stem;
}
);
shapes = (
{
closed = 1;
nodes = (
(208,0,l),
(208,303,l),
(436,303,l),
(436,434,l),
(208,434,l),
(208,608,l),
(447,608,l),
(447,739,l),
(71,739,l),
(71,0,l)
);
}
);
};
hints = (
{
horizontal = 1;
place = (0, 20);
place = (0, 20);
type = Stem;
},
{
horizontal = 1;
place = (303, 131);
place = (303, 131);
type = Stem;
},
{
horizontal = 1;
place = (608, 131);
place = (608, 131);
type = Stem;
},
{
place = (68, 137);
place = (68, 137);
type = Stem;
}
);
layerId = "B17A67C7-7966-4564-9280-1BFE3E81CC5D";
shapes = (
{
closed = 1;
nodes = (
(208,0,l),
(208,303,l),
(436,303,l),
(436,434,l),
(208,434,l),
(208,608,l),
(447,608,l),
(447,739,l),
(71,739,l),
(71,0,l)
);
}
);
width = 483;
},
{
background = {
hints = (
{
horizontal = 1;
place = (0, 20);
place = (0, 20);
type = Stem;
},
{
horizontal = 1;
place = (338, 67);
place = (338, 67);
type = Stem;
},
{
horizontal = 1;
place = (672, 67);
place = (672, 67);
type = Stem;
}
);
shapes = (
{
closed = 1;
nodes = (
(150,0,l),
(213,338,l),
(503,338,l),
(515,405,l),
(225,405,l),
(275,672,l),
(576,672,l),
(588,739,l),
(213,739,l),
(76,0,l)
);
}
);
};
hints = (
{
horizontal = 1;
place = (0, 20);
place = (0, 20);
type = Stem;
},
{
horizontal = 1;
place = (338, 67);
place = (338, 67);
type = Stem;
},
{
horizontal = 1;
place = (672, 67);
place = (672, 67);
type = Stem;
}
);
layerId = "E0ACA937-5896-4BA7-8E51-A45A3D2DA3C0";
shapes = (
{
closed = 1;
nodes = (
(150,0,l),
(213,338,l),
(503,338,l),
(515,405,l),
(225,405,l),
(275,672,l),
(576,672,l),
(588,739,l),
(213,739,l),
(76,0,l)
);
}
);
width = 485;
},
{
background = {
hints = (
{
horizontal = 1;
place = (0, 20);
place = (0, 20);
type = Stem;
},
{
horizontal = 1;
place = (303, 132);
place = (303, 132);
type = Stem;
},
{
horizontal = 1;
place = (607, 132);
place = (607, 132);
type = Stem;
}
);
shapes = (
{
closed = 1;
nodes = (
(205,0,l),
(261,303,l),
(489,303,l),
(513,435,l),
(285,435,l),
(318,607,l),
(557,607,l),
(581,739,l),
(205,739,l),
(68,0,l)
);
}
);
};
hints = (
{
horizontal = 1;
place = (0, 20);
place = (0, 20);
type = Stem;
},
{
horizontal = 1;
place = (303, 132);
place = (303, 132);
type = Stem;
},
{
horizontal = 1;
place = (607, 132);
place = (607, 132);
type = Stem;
}
);
layerId = "1B96798C-495B-4DFD-B0D1-66437D96AC3B";
shapes = (
{
closed = 1;
nodes = (
(205,0,l),
(261,303,l),
(489,303,l),
(513,435,l),
(285,435,l),
(318,607,l),
(557,607,l),
(581,739,l),
(205,739,l),
(68,0,l)
);
}
);
width = 480;
}
);
metricLeft = H;
unicode = 70;
},
{
glyphname = G;
layers = (
{
background = {
hints = (
{
horizontal = 1;
place = (-13, 68);
place = (-13, 68);
type = Stem;
},
{
horizontal = 1;
place = (274, 67);
place = (274, 67);
type = Stem;
},
{
horizontal = 1;
place = (684, 68);
place = (684, 68);
type = Stem;
},
{
place = (44, 75);
place = (44, 75);
type = Stem;
}
);
shapes = (
{
closed = 1;
nodes = (
(563,-13,o),
(663,31,o),
(734,112,c),
(794,181,o),
(826,258,o),
(831,341,c),
(329,341,l),
(329,274,l),
(742,274,l),
(731,226,o),
(706,185,o),
(664,143,c),
(607,86,o),
(529,55,o),
(443,55,c),
(262,55,o),
(119,193,o),
(119,369,c),
(119,547,o),
(260,684,o),
(442,684,c),
(556,684,o),
(652,632,o),
(703,542,c),
(786,542,l),
(737,668,o),
(597,752,o),
(436,752,c),
(216,752,o),
(44,585,o),
(44,371,c),
(44,155,o),
(220,-13,o),
(446,-13,c)
);
}
);
};
hints = (
{
horizontal = 1;
place = (-13, 68);
place = (-13, 68);
type = Stem;
},
{
horizontal = 1;
place = (274, 67);
place = (274, 67);
type = Stem;
},
{
horizontal = 1;
place = (684, 68);
place = (684, 68);
type = Stem;
},
{
place = (44, 75);
place = (44, 75);
type = Stem;
}
);
layerId = m01;
shapes = (
{
closed = 1;
nodes = (
(664,-13,o),
(820,151,o),
(831,341,c),
(329,341,l),
(329,274,l),
(742,274,l),
(714,150,o),
(586,55,o),
(443,55,c),
(262,55,o),
(119,193,o),
(119,369,c),
(119,547,o),
(260,684,o),
(442,684,c),
(556,684,o),
(652,632,o),
(703,542,c),
(786,542,l),
(737,668,o),
(597,752,o),
(436,752,c),
(216,752,o),
(44,585,o),
(44,371,c),
(44,155,o),
(220,-13,o),
(446,-13,c)
);
}
);
width = 869;
},
{
background = {
hints = (
{
horizontal = 1;
place = (-13, 132);
place = (-13, 132);
type = Stem;
},
{
horizontal = 1;
place = (249, 128);
place = (249, 128);
type = Stem;
},
{
horizontal = 1;
place = (620, 132);
place = (620, 132);
type = Stem;
},
{
place = (30, 138);
place = (30, 138);
type = Stem;
}
);
shapes = (
{
closed = 1;
nodes = (
(548,-13,o),
(644,26,o),
(717,101,c),
(785,172,o),
(823,264,o),
(823,359,c),
(823,377,l),
(340,377,l),
(340,249,l),
(646,249,l),
(606,167,o),
(526,119,o),
(429,119,c),
(284,119,o),
(173,228,o),
(173,369,c),
(173,433,o),
(200,503,o),
(242,547,c),
(285,594,o),
(350,620,o),
(421,620,c),
(507,620,o),
(578,586,o),
(624,522,c),
(785,522,l),
(737,655,o),
(585,752,o),
(424,752,c),
(208,752,o),
(35,583,o),
(35,371,c),
(35,155,o),
(210,-13,o),
(437,-13,c)
);
}
);
};
hints = (
{
horizontal = 1;
place = (-13, 132);
place = (-13, 132);
type = Stem;
},
{
horizontal = 1;
place = (249, 128);
place = (249, 128);
type = Stem;
},
{
horizontal = 1;
place = (620, 132);
place = (620, 132);
type = Stem;
},
{
place = (30, 138);
place = (30, 138);
type = Stem;
}
);
layerId = "B17A67C7-7966-4564-9280-1BFE3E81CC5D";
shapes = (
{
closed = 1;
nodes = (
(658,-13,o),
(823,148,o),
(823,377,c),
(340,377,l),
(340,249,l),
(646,249,l),
(606,167,o),
(526,119,o),
(429,119,c),
(284,119,o),
(173,228,o),
(173,369,c),
(173,501,o),
(269,620,o),
(421,620,c),
(507,620,o),
(578,586,o),
(624,522,c),
(785,522,l),
(737,655,o),
(585,752,o),
(424,752,c),
(208,752,o),
(35,583,o),
(35,371,c),
(35,155,o),
(210,-13,o),
(437,-13,c)
);
}
);
width = 840;
},
{
background = {
hints = (
{
horizontal = 1;
place = (-13, 68);
place = (-13, 68);
type = Stem;
},
{
horizontal = 1;
place = (274, 67);
place = (274, 67);
type = Stem;
},
{
horizontal = 1;
place = (684, 68);
place = (684, 68);
type = Stem;
},
{
place = (107, 77);
place = (107, 77);
type = Stem;
}
);
shapes = (
{
closed = 1;
nodes = (
(561,-13,o),
(665,30,o),
(754,112,c),
(825,179,o),
(872,257,o),
(893,341,c),
(390,341,l),
(378,274,l),
(792,274,l),
(728,142,o),
(594,55,o),
(454,55,c),
(374,55,o),
(297,85,o),
(248,136,c),
(204,182,o),
(183,239,o),
(183,312,c),
(183,512,o),
(362,684,o),
(571,684,c),
(682,684,o),
(771,629,o),
(802,542,c),
(886,542,l),
(858,669,o),
(735,752,o),
(574,752,c),
(326,752,o),
(106,539,o),
(106,300,c),
(106,116,o),
(246,-13,o),
(445,-13,c)
);
}
);
};
hints = (
{
horizontal = 1;
place = (-13, 68);
place = (-13, 68);
type = Stem;
},
{
horizontal = 1;
place = (274, 67);
place = (274, 67);
type = Stem;
},
{
horizontal = 1;
place = (684, 68);
place = (684, 68);
type = Stem;
},
{
place = (107, 77);
place = (107, 77);
type = Stem;
}
);
layerId = "E0ACA937-5896-4BA7-8E51-A45A3D2DA3C0";
shapes = (
{
closed = 1;
nodes = (
(655,-13,o),
(844,143,o),
(893,341,c),
(390,341,l),
(378,274,l),
(792,274,l),
(728,142,o),
(594,55,o),
(454,55,c),
(308,55,o),
(183,146,o),
(183,312,c),
(183,512,o),
(362,684,o),
(571,684,c),
(682,684,o),
(771,629,o),
(802,542,c),
(886,542,l),
(858,669,o),
(735,752,o),
(574,752,c),
(326,752,o),
(106,539,o),
(106,300,c),
(106,116,o),
(246,-13,o),
(445,-13,c)
);
}
);
width = 869;
},
{
background = {
hints = (
{
horizontal = 1;
place = (-13, 132);
place = (-13, 132);
type = Stem;
},
{
horizontal = 1;
place = (249, 128);
place = (249, 128);
type = Stem;
},
{
horizontal = 1;
place = (620, 132);
place = (620, 132);
type = Stem;
},
{
place = (91, 140);
place = (91, 140);
type = Stem;
}
);
shapes = (
{
closed = 1;
nodes = (
(564,-13,o),
(687,44,o),
(778,147,c),
(842,219,o),
(880,299,o),
(888,377,c),
(406,377,l),
(382,249,l),
(688,249,l),
(634,168,o),
(544,119,o),
(448,119,c),
(382,119,o),
(327,139,o),
(289,177,c),
(254,213,o),
(231,270,o),
(231,324,c),
(231,380,o),
(254,446,o),
(293,499,c),
(350,577,o),
(437,620,o),
(537,620,c),
(582,620,o),
(617,610,o),
(654,588,c),
(681,572,o),
(695,558,o),
(717,522,c),
(878,522,l),
(870,569,o),
(848,611,o),
(808,653,c),
(748,716,o),
(658,752,o),
(559,752,c),
(314,752,o),
(91,537,o),
(91,300,c),
(91,117,o),
(231,-13,o),
(430,-13,c)
);
}
);
};
hints = (
{
horizontal = 1;
place = (-13, 132);
place = (-13, 132);
type = Stem;
},
{
horizontal = 1;
place = (249, 128);
place = (249, 128);
type = Stem;
},
{
horizontal = 1;
place = (620, 132);
place = (620, 132);
type = Stem;
},
{
place = (91, 140);
place = (91, 140);
type = Stem;
}
);
layerId = "1B96798C-495B-4DFD-B0D1-66437D96AC3B";
shapes = (
{
closed = 1;
nodes = (
(669,-13,o),
(868,183,o),
(888,377,c),
(406,377,l),
(382,249,l),
(688,249,l),
(634,168,o),
(544,119,o),
(448,119,c),
(316,119,o),
(231,206,o),
(231,324,c),
(231,440,o),
(329,620,o),
(537,620,c),
(613,620,o),
(674,592,o),
(717,522,c),
(878,522,l),
(855,658,o),
(713,752,o),
(559,752,c),
(314,752,o),
(91,537,o),
(91,300,c),
(91,117,o),
(231,-13,o),
(430,-13,c)
);
}
);
width = 840;
}
);
metricLeft = O;
metricWidth = O;
unicode = 71;
},
{
glyphname = H;
layers = (
{
background = {
hints = (
{
horizontal = 1;
place = (0, 20);
place = (0, 20);
type = Stem;
},
{
horizontal = 1;
place = (347, 67);
place = (347, 67);
type = Stem;
},
{
horizontal = 1;
place = (719, 20);
place = (719, 20);
type = Stem;
},
{
place = (76, 74);
place = (76, 74);
type = Stem;
},
{
place = (533, 74);
place = (533, 74);
type = Stem;
}
);
shapes = (
{
closed = 1;
nodes = (
(150,0,l),
(150,347,l),
(533,347,l),
(533,0,l),
(607,0,l),
(607,739,l),
(533,739,l),
(533,414,l),
(150,414,l),
(150,739,l),
(76,739,l),
(76,0,l)
);
}
);
};
hints = (
{
horizontal = 1;
place = (0, 20);
place = (0, 20);
type = Stem;
},
{
horizontal = 1;
place = (347, 67);
place = (347, 67);
type = Stem;
},
{
horizontal = 1;
place = (719, 20);
place = (719, 20);
type = Stem;
},
{
place = (76, 74);
place = (76, 74);
type = Stem;
},
{
place = (533, 74);
place = (533, 74);
type = Stem;
}
);
layerId = m01;
shapes = (
{
closed = 1;
nodes = (
(150,0,l),
(150,347,l),
(533,347,l),
(533,0,l),
(607,0,l),
(607,739,l),
(533,739,l),
(533,414,l),
(150,414,l),
(150,739,l),
(76,739,l),
(76,0,l)
);
}
);
width = 683;
},
{
background = {
hints = (
{
horizontal = 1;
place = (0, 20);
place = (0, 20);
type = Stem;
},
{
horizontal = 1;
place = (310, 131);
place = (310, 131);
type = Stem;
},
{
horizontal = 1;
place = (719, 20);
place = (719, 20);
type = Stem;
},
{
place = (68, 137);
place = (68, 137);
type = Stem;
},
{
place = (469, 137);
place = (469, 137);
type = Stem;
}
);
shapes = (
{
closed = 1;
nodes = (
(205,0,l),
(205,310,l),
(469,310,l),
(469,0,l),
(606,0,l),
(606,739,l),
(469,739,l),
(469,441,l),
(205,441,l),
(205,739,l),
(68,739,l),
(68,0,l)
);
}
);
};
hints = (
{
horizontal = 1;
place = (0, 20);
place = (0, 20);
type = Stem;
},
{
horizontal = 1;
place = (310, 131);
place = (310, 131);
type = Stem;
},
{
horizontal = 1;
place = (719, 20);
place = (719, 20);
type = Stem;
},
{
place = (68, 137);
place = (68, 137);
type = Stem;
},
{
place = (469, 137);
place = (469, 137);
type = Stem;
}
);
layerId = "B17A67C7-7966-4564-9280-1BFE3E81CC5D";
shapes = (
{
closed = 1;
nodes = (
(208,0,l),
(208,310,l),
(472,310,l),
(472,0,l),
(609,0,l),
(609,739,l),
(472,739,l),
(472,441,l),
(208,441,l),
(208,739,l),
(71,739,l),
(71,0,l)
);
}
);
width = 680;
},
{
background = {
hints = (
{
horizontal = 1;
place = (0, 20);
place = (0, 20);
type = Stem;
},
{
horizontal = 1;
place = (347, 67);
place = (347, 67);
type = Stem;
},
{
horizontal = 1;
place = (719, 20);
place = (719, 20);
type = Stem;
}
);
shapes = (
{
closed = 1;
nodes = (
(150,0,l),
(214,347,l),
(597,347,l),
(533,0,l),
(607,0,l),
(744,739,l),
(670,739,l),
(610,414,l),
(227,414,l),
(287,739,l),
(213,739,l),
(76,0,l)
);
}
);
};
hints = (
{
horizontal = 1;
place = (0, 20);
place = (0, 20);
type = Stem;
},
{
horizontal = 1;
place = (347, 67);
place = (347, 67);
type = Stem;
},
{
horizontal = 1;
place = (719, 20);
place = (719, 20);
type = Stem;
}
);
layerId = "E0ACA937-5896-4BA7-8E51-A45A3D2DA3C0";
shapes = (
{
closed = 1;
nodes = (
(150,0,l),
(214,347,l),
(597,347,l),
(533,0,l),
(607,0,l),
(744,739,l),
(670,739,l),
(610,414,l),
(227,414,l),
(287,739,l),
(213,739,l),
(76,0,l)
);
}
);
width = 683;
},
{
background = {
hints = (
{
horizontal = 1;
place = (0, 20);
place = (0, 20);
type = Stem;
},
{
horizontal = 1;
place = (310, 132);
place = (310, 132);
type = Stem;
},
{
horizontal = 1;
place = (719, 20);
place = (719, 20);
type = Stem;
}
);
shapes = (
{
closed = 1;
nodes = (
(205,0,l),
(262,310,l),
(526,310,l),
(469,0,l),
(606,0,l),
(743,739,l),
(606,739,l),
(551,442,l),
(287,442,l),
(342,739,l),
(205,739,l),
(68,0,l)
);
}
);
};
hints = (
{
horizontal = 1;
place = (0, 20);
place = (0, 20);
type = Stem;
},
{
horizontal = 1;
place = (310, 132);
place = (310, 132);
type = Stem;
},
{
horizontal = 1;
place = (719, 20);
place = (719, 20);
type = Stem;
}
);
layerId = "1B96798C-495B-4DFD-B0D1-66437D96AC3B";
shapes = (
{
closed = 1;
nodes = (
(205,0,l),
(262,310,l),
(526,310,l),
(469,0,l),
(606,0,l),
(743,739,l),
(606,739,l),
(551,442,l),
(287,442,l),
(342,739,l),
(205,739,l),
(68,0,l)
);
}
);
width = 680;
}
);
unicode = 72;
},
{
glyphname = I;
layers = (
{
anchors = (
{
name = bottom;
pos = (113,0);
},
{
name = ogonek;
pos = (150,0);
},
{
name = top;
pos = (113,729);
},
{
name = topleft;
pos = (20,739);
}
);
background = {
hints = (
{
horizontal = 1;
place = (0, 20);
place = (0, 20);
type = Stem;
},
{
horizontal = 1;
place = (719, 20);
place = (719, 20);
type = Stem;
},
{
place = (76, 74);
place = (76, 74);
type = Stem;
}
);
shapes = (
{
closed = 1;
nodes = (
(150,0,l),
(150,739,l),
(76,739,l),
(76,0,l)
);
}
);
};
hints = (
{
horizontal = 1;
place = (0, 20);
place = (0, 20);
type = Stem;
},
{
horizontal = 1;
place = (719, 20);
place = (719, 20);
type = Stem;
},
{
place = (76, 74);
place = (76, 74);
type = Stem;
}
);
layerId = m01;
shapes = (
{
closed = 1;
nodes = (
(150,0,l),
(150,739,l),
(76,739,l),
(76,0,l)
);
}
);
width = 226;
},
{
anchors = (
{
name = bottom;
pos = (143,0);
},
{
name = ogonek;
pos = (208,0);
},
{
name = top;
pos = (143,729);
},
{
name = topleft;
pos = (23,739);
}
);
background = {
hints = (
{
horizontal = 1;
place = (0, 20);
place = (0, 20);
type = Stem;
},
{
horizontal = 1;
place = (719, 20);
place = (719, 20);
type = Stem;
},
{
place = (68, 137);
place = (68, 137);
type = Stem;
}
);
shapes = (
{
closed = 1;
nodes = (
(208,0,l),
(208,739,l),
(71,739,l),
(71,0,l)
);
}
);
};
hints = (
{
horizontal = 1;
place = (0, 20);
place = (0, 20);
type = Stem;
},
{
horizontal = 1;
place = (719, 20);
place = (719, 20);
type = Stem;
},
{
place = (68, 137);
place = (68, 137);
type = Stem;
}
);
layerId = "B17A67C7-7966-4564-9280-1BFE3E81CC5D";
shapes = (
{
closed = 1;
nodes = (
(208,0,l),
(208,739,l),
(71,739,l),
(71,0,l)
);
}
);
width = 279;
},
{
anchors = (
{
name = bottom;
pos = (65,0);
},
{
name = ogonek;
pos = (150,0);
},
{
name = top;
pos = (249,729);
},
{
name = topleft;
pos = (102,739);
}
);
background = {
hints = (
{
horizontal = 1;
place = (0, 20);
place = (0, 20);
type = Stem;
},
{
horizontal = 1;
place = (719, 20);
place = (719, 20);
type = Stem;
}
);
shapes = (
{
closed = 1;
nodes = (
(150,0,l),
(287,739,l),
(213,739,l),
(76,0,l)
);
}
);
};
hints = (
{
horizontal = 1;
place = (0, 20);
place = (0, 20);
type = Stem;
},
{
horizontal = 1;
place = (719, 20);
place = (719, 20);
type = Stem;
}
);
layerId = "E0ACA937-5896-4BA7-8E51-A45A3D2DA3C0";
shapes = (
{
closed = 1;
nodes = (
(150,0,l),
(287,739,l),
(213,739,l),
(76,0,l)
);
}
);
width = 226;
},
{
anchors = (
{
name = bottom;
pos = (91,0);
},
{
name = ogonek;
pos = (205,0);
},
{
name = top;
pos = (272,729);
},
{
name = topleft;
pos = (101,739);
}
);
background = {
hints = (
{
horizontal = 1;
place = (0, 20);
place = (0, 20);
type = Stem;
},
{
horizontal = 1;
place = (719, 20);
place = (719, 20);
type = Stem;
}
);
shapes = (
{
closed = 1;
nodes = (
(205,0,l),
(342,739,l),
(205,739,l),
(68,0,l)
);
}
);
};
hints = (
{
horizontal = 1;
place = (0, 20);
place = (0, 20);
type = Stem;
},
{
horizontal = 1;
place = (719, 20);
place = (719, 20);
type = Stem;
}
);
layerId = "1B96798C-495B-4DFD-B0D1-66437D96AC3B";
shapes = (
{
closed = 1;
nodes = (
(205,0,l),
(342,739,l),
(205,739,l),
(68,0,l)
);
}
);
width = 279;
}
);
metricLeft = H;
metricRight = H;
unicode = 73;
},
{
color = 6;
glyphname = Iacute;
layers = (
{
background = {
hints = (
{
horizontal = 1;
place = (0, 20);
place = (0, 20);
type = Stem;
},
{
horizontal = 1;
place = (719, 20);
place = (719, 20);
type = Stem;
},
{
place = (76, 74);
place = (76, 74);
type = Stem;
}
);
shapes = (
{
closed = 1;
nodes = (
(150,0,l),
(150,739,l),
(76,739,l),
(76,0,l)
);
},
{
closed = 1;
nodes = (
(226,906,l),
(192,964,l),
(-1,848,l),
(33,792,l)
);
}
);
};
hints = (
{
horizontal = 1;
place = (0, 20);
place = (0, 20);
type = Stem;
},
{
horizontal = 1;
place = (719, 20);
place = (719, 20);
type = Stem;
},
{
place = (76, 74);
place = (76, 74);
type = Stem;
}
);
layerId = m01;
shapes = (
{
ref = I;
},
{
alignment = -1;
pos = (-75,182);
ref = acutecomb;
}
);
width = 226;
},
{
background = {
hints = (
{
horizontal = 1;
place = (0, 20);
place = (0, 20);
type = Stem;
},
{
horizontal = 1;
place = (719, 20);
place = (719, 20);
type = Stem;
},
{
place = (68, 137);
place = (68, 137);
type = Stem;
}
);
shapes = (
{
closed = 1;
nodes = (
(205,0,l),
(205,739,l),
(68,739,l),
(68,0,l)
);
},
{
closed = 1;
nodes = (
(282,908,l),
(228,1000,l),
(4,866,l),
(55,788,l)
);
}
);
};
hints = (
{
horizontal = 1;
place = (0, 20);
place = (0, 20);
type = Stem;
},
{
horizontal = 1;
place = (719, 20);
place = (719, 20);
type = Stem;
},
{
place = (68, 137);
place = (68, 137);
type = Stem;
}
);
layerId = "B17A67C7-7966-4564-9280-1BFE3E81CC5D";
shapes = (
{
ref = I;
},
{
alignment = -1;
pos = (-69,175);
ref = acutecomb;
}
);
width = 279;
},
{
background = {
hints = (
{
horizontal = 1;
place = (0, 20);
place = (0, 20);
type = Stem;
},
{
horizontal = 1;
place = (719, 20);
place = (719, 20);
type = Stem;
}
);
shapes = (
{
closed = 1;
nodes = (
(150,0,l),
(287,739,l),
(213,739,l),
(76,0,l)
);
},
{
closed = 1;
nodes = (
(362,906,l),
(338,964,l),
(124,848,l),
(148,792,l)
);
}
);
};
hints = (
{
horizontal = 1;
place = (0, 20);
place = (0, 20);
type = Stem;
},
{
horizontal = 1;
place = (719, 20);
place = (719, 20);
type = Stem;
}
);
layerId = "E0ACA937-5896-4BA7-8E51-A45A3D2DA3C0";
shapes = (
{
ref = I;
},
{
alignment = -1;
pos = (-54,182);
ref = acutecomb;
}
);
width = 226;
},
{
background = {
hints = (
{
horizontal = 1;
place = (0, 20);
place = (0, 20);
type = Stem;
},
{
horizontal = 1;
place = (719, 20);
place = (719, 20);
type = Stem;
}
);
shapes = (
{
closed = 1;
nodes = (
(205,0,l),
(342,739,l),
(205,739,l),
(68,0,l)
);
},
{
closed = 1;
nodes = (
(418,908,l),
(371,1007,l),
(135,880,l),
(175,792,l)
);
}
);
};
hints = (
{
horizontal = 1;
place = (0, 20);
place = (0, 20);
type = Stem;
},
{
horizontal = 1;
place = (719, 20);
place = (719, 20);
type = Stem;
}
);
layerId = "1B96798C-495B-4DFD-B0D1-66437D96AC3B";
shapes = (
{
ref = I;
},
{
alignment = -1;
pos = (-50,175);
ref = acutecomb;
}
);
width = 279;
}
);
unicode = 205;
},
{
color = 6;
glyphname = Icircumflex;
layers = (
{
background = {
hints = (
{
horizontal = 1;
place = (0, 20);
place = (0, 20);
type = Stem;
},
{
horizontal = 1;
place = (719, 20);
place = (719, 20);
type = Stem;
},
{
place = (76, 74);
place = (76, 74);
type = Stem;
}
);
shapes = (
{
closed = 1;
nodes = (
(150,0,l),
(150,739,l),
(76,739,l),
(76,0,l)
);
},
{
closed = 1;
nodes = (
(27,805,l),
(115,879,l),
(201,805,l),
(290,805,l),
(147,931,l),
(81,931,l),
(-64,805,l)
);
}
);
};
hints = (
{
horizontal = 1;
place = (0, 20);
place = (0, 20);
type = Stem;
},
{
horizontal = 1;
place = (719, 20);
place = (719, 20);
type = Stem;
},
{
place = (76, 74);
place = (76, 74);
type = Stem;
}
);
layerId = m01;
shapes = (
{
ref = I;
},
{
pos = (-138,182);
ref = circumflexcomb;
}
);
width = 226;
},
{
background = {
hints = (
{
horizontal = 1;
place = (0, 20);
place = (0, 20);
type = Stem;
},
{
horizontal = 1;
place = (719, 20);
place = (719, 20);
type = Stem;
},
{
place = (68, 137);
place = (68, 137);
type = Stem;
}
);
shapes = (
{
closed = 1;
nodes = (
(205,0,l),
(205,739,l),
(68,739,l),
(68,0,l)
);
},
{
closed = 1;
nodes = (
(91,805,l),
(145,869,l),
(198,805,l),
(343,805,l),
(198,943,l),
(91,943,l),
(-56,805,l)
);
}
);
};
hints = (
{
horizontal = 1;
place = (0, 20);
place = (0, 20);
type = Stem;
},
{
horizontal = 1;
place = (719, 20);
place = (719, 20);
type = Stem;
},
{
place = (68, 137);
place = (68, 137);
type = Stem;
}
);
layerId = "B17A67C7-7966-4564-9280-1BFE3E81CC5D";
shapes = (
{
ref = I;
},
{
pos = (-131,175);
ref = circumflexcomb;
}
);
width = 279;
},
{
background = {
hints = (
{
horizontal = 1;
place = (0, 20);
place = (0, 20);
type = Stem;
},
{
horizontal = 1;
place = (719, 20);
place = (719, 20);
type = Stem;
}
);
shapes = (
{
closed = 1;
nodes = (
(150,0,l),
(287,739,l),
(213,739,l),
(76,0,l)
);
},
{
closed = 1;
nodes = (
(176,805,l),
(278,879,l),
(350,805,l),
(439,805,l),
(320,931,l),
(254,931,l),
(85,805,l)
);
}
);
};
hints = (
{
horizontal = 1;
place = (0, 20);
place = (0, 20);
type = Stem;
},
{
horizontal = 1;
place = (719, 20);
place = (719, 20);
type = Stem;
}
);
layerId = "E0ACA937-5896-4BA7-8E51-A45A3D2DA3C0";
shapes = (
{
ref = I;
},
{
pos = (-103,182);
ref = circumflexcomb;
}
);
width = 226;
},
{
background = {
hints = (
{
horizontal = 1;
place = (0, 20);
place = (0, 20);
type = Stem;
},
{
horizontal = 1;
place = (719, 20);
place = (719, 20);
type = Stem;
},
{
horizontal = 1;
place = (805, 138);
place = (805, 138);
type = Stem;
}
);
shapes = (
{
closed = 1;
nodes = (
(205,0,l),
(342,739,l),
(205,739,l),
(68,0,l)
);
},
{
closed = 1;
nodes = (
(240,805,l),
(306,869,l),
(347,805,l),
(492,805,l),
(373,943,l),
(266,943,l),
(93,805,l)
);
}
);
};
hints = (
{
horizontal = 1;
place = (0, 20);
place = (0, 20);
type = Stem;
},
{
horizontal = 1;
place = (719, 20);
place = (719, 20);
type = Stem;
},
{
horizontal = 1;
place = (805, 138);
place = (805, 138);
type = Stem;
}
);
layerId = "1B96798C-495B-4DFD-B0D1-66437D96AC3B";
shapes = (
{
ref = I;
},
{
pos = (-103,175);
ref = circumflexcomb;
}
);
width = 279;
}
);
unicode = 206;
},
{
color = 6;
glyphname = Idieresis;
layers = (
{
background = {
hints = (
{
horizontal = 1;
place = (0, 20);
place = (0, 20);
type = Stem;
},
{
horizontal = 1;
place = (719, 20);
place = (719, 20);
type = Stem;
},
{
horizontal = 1;
place = (805, 126);
place = (805, 126);
type = Stem;
},
{
place = (3, 74);
place = (3, 74);
type = Stem;
},
{
place = (77, 74);
place = (77, 74);
type = Stem;
},
{
place = (150, 74);
place = (150, 74);
type = Stem;
}
);
shapes = (
{
closed = 1;
nodes = (
(151,0,l),
(151,739,l),
(77,739,l),
(77,0,l)
);
},
{
closed = 1;
nodes = (
(77,805,l),
(77,931,l),
(3,931,l),
(3,805,l)
);
},
{
closed = 1;
nodes = (
(224,805,l),
(224,931,l),
(150,931,l),
(150,805,l)
);
}
);
};
hints = (
{
horizontal = 1;
place = (0, 20);
place = (0, 20);
type = Stem;
},
{
horizontal = 1;
place = (719, 20);
place = (719, 20);
type = Stem;
},
{
horizontal = 1;
place = (805, 126);
place = (805, 126);
type = Stem;
},
{
place = (3, 74);
place = (3, 74);
type = Stem;
},
{
place = (77, 74);
place = (77, 74);
type = Stem;
},
{
place = (150, 74);
place = (150, 74);
type = Stem;
}
);
layerId = m01;
shapes = (
{
ref = I;
},
{
pos = (-72,182);
ref = dieresiscomb;
}
);
width = 226;
},
{
background = {
hints = (
{
horizontal = 1;
place = (0, 20);
place = (0, 20);
type = Stem;
},
{
horizontal = 1;
place = (719, 20);
place = (719, 20);
type = Stem;
},
{
horizontal = 1;
place = (805, 133);
place = (805, 133);
type = Stem;
},
{
place = (68, 137);
place = (68, 137);
type = Stem;
},
{
place = (-36, 133);
place = (-36, 133);
type = Stem;
},
{
place = (174, 133);
place = (174, 133);
type = Stem;
}
);
shapes = (
{
closed = 1;
nodes = (
(205,0,l),
(205,739,l),
(68,739,l),
(68,0,l)
);
},
{
closed = 1;
nodes = (
(97,805,l),
(97,938,l),
(-36,938,l),
(-36,805,l)
);
},
{
closed = 1;
nodes = (
(307,805,l),
(307,938,l),
(174,938,l),
(174,805,l)
);
}
);
};
hints = (
{
horizontal = 1;
place = (0, 20);
place = (0, 20);
type = Stem;
},
{
horizontal = 1;
place = (719, 20);
place = (719, 20);
type = Stem;
},
{
horizontal = 1;
place = (805, 133);
place = (805, 133);
type = Stem;
},
{
place = (68, 137);
place = (68, 137);
type = Stem;
},
{
place = (-36, 133);
place = (-36, 133);
type = Stem;
},
{
place = (174, 133);
place = (174, 133);
type = Stem;
}
);
layerId = "B17A67C7-7966-4564-9280-1BFE3E81CC5D";
shapes = (
{
ref = I;
},
{
pos = (-103,175);
ref = dieresiscomb;
}
);
width = 279;
},
{
background = {
hints = (
{
horizontal = 1;
place = (0, 20);
place = (0, 20);
type = Stem;
},
{
horizontal = 1;
place = (719, 20);
place = (719, 20);
type = Stem;
},
{
horizontal = 1;
place = (805, 126);
place = (805, 126);
type = Stem;
}
);
shapes = (
{
closed = 1;
nodes = (
(151,0,l),
(288,739,l),
(213,739,l),
(76,0,l)
);
},
{
closed = 1;
nodes = (
(226,805,l),
(250,931,l),
(176,931,l),
(152,805,l)
);
},
{
closed = 1;
nodes = (
(373,805,l),
(397,931,l),
(323,931,l),
(299,805,l)
);
}
);
};
hints = (
{
horizontal = 1;
place = (0, 20);
place = (0, 20);
type = Stem;
},
{
horizontal = 1;
place = (719, 20);
place = (719, 20);
type = Stem;
},
{
horizontal = 1;
place = (805, 126);
place = (805, 126);
type = Stem;
}
);
layerId = "E0ACA937-5896-4BA7-8E51-A45A3D2DA3C0";
shapes = (
{
ref = I;
},
{
pos = (-36,182);
ref = dieresiscomb;
}
);
width = 226;
},
{
background = {
hints = (
{
horizontal = 1;
place = (0, 20);
place = (0, 20);
type = Stem;
},
{
horizontal = 1;
place = (719, 20);
place = (719, 20);
type = Stem;
},
{
horizontal = 1;
place = (805, 132);
place = (805, 132);
type = Stem;
}
);
shapes = (
{
closed = 1;
nodes = (
(205,0,l),
(342,739,l),
(205,739,l),
(68,0,l)
);
},
{
closed = 1;
nodes = (
(246,805,l),
(271,937,l),
(138,937,l),
(113,805,l)
);
},
{
closed = 1;
nodes = (
(456,805,l),
(481,937,l),
(348,937,l),
(323,805,l)
);
}
);
};
hints = (
{
horizontal = 1;
place = (0, 20);
place = (0, 20);
type = Stem;
},
{
horizontal = 1;
place = (719, 20);
place = (719, 20);
type = Stem;
},
{
horizontal = 1;
place = (805, 132);
place = (805, 132);
type = Stem;
}
);
layerId = "1B96798C-495B-4DFD-B0D1-66437D96AC3B";
shapes = (
{
ref = I;
},
{
pos = (-76,175);
ref = dieresiscomb;
}
);
width = 279;
}
);
unicode = 207;
},
{
color = 6;
glyphname = Igrave;
layers = (
{
background = {
hints = (
{
horizontal = 1;
place = (0, 20);
place = (0, 20);
type = Stem;
},
{
horizontal = 1;
place = (719, 20);
place = (719, 20);
type = Stem;
},
{
place = (76, 74);
place = (76, 74);
type = Stem;
}
);
shapes = (
{
closed = 1;
nodes = (
(150,0,l),
(150,739,l),
(76,739,l),
(76,0,l)
);
},
{
closed = 1;
nodes = (
(228,848,l),
(30,958,l),
(-2,900,l),
(195,792,l)
);
}
);
};
hints = (
{
horizontal = 1;
place = (0, 20);
place = (0, 20);
type = Stem;
},
{
horizontal = 1;
place = (719, 20);
place = (719, 20);
type = Stem;
},
{
place = (76, 74);
place = (76, 74);
type = Stem;
}
);
layerId = m01;
shapes = (
{
ref = I;
},
{
alignment = -1;
pos = (-76,182);
ref = gravecomb;
}
);
width = 226;
},
{
background = {
hints = (
{
horizontal = 1;
place = (0, 20);
place = (0, 20);
type = Stem;
},
{
horizontal = 1;
place = (719, 20);
place = (719, 20);
type = Stem;
},
{
place = (68, 137);
place = (68, 137);
type = Stem;
}
);
shapes = (
{
closed = 1;
nodes = (
(205,0,l),
(205,739,l),
(68,739,l),
(68,0,l)
);
},
{
closed = 1;
nodes = (
(283,867,l),
(61,1000,l),
(4,912,l),
(230,788,l)
);
}
);
};
hints = (
{
horizontal = 1;
place = (0, 20);
place = (0, 20);
type = Stem;
},
{
horizontal = 1;
place = (719, 20);
place = (719, 20);
type = Stem;
},
{
place = (68, 137);
place = (68, 137);
type = Stem;
}
);
layerId = "B17A67C7-7966-4564-9280-1BFE3E81CC5D";
shapes = (
{
ref = I;
},
{
alignment = -1;
pos = (-70,175);
ref = gravecomb;
}
);
width = 279;
},
{
background = {
hints = (
{
horizontal = 1;
place = (0, 20);
place = (0, 20);
type = Stem;
},
{
horizontal = 1;
place = (719, 20);
place = (719, 20);
type = Stem;
}
);
shapes = (
{
closed = 1;
nodes = (
(150,0,l),
(287,739,l),
(213,739,l),
(76,0,l)
);
},
{
closed = 1;
nodes = (
(388,843,l),
(207,960,l),
(167,908,l),
(349,792,l)
);
}
);
};
hints = (
{
horizontal = 1;
place = (0, 20);
place = (0, 20);
type = Stem;
},
{
horizontal = 1;
place = (719, 20);
place = (719, 20);
type = Stem;
}
);
layerId = "E0ACA937-5896-4BA7-8E51-A45A3D2DA3C0";
shapes = (
{
ref = I;
},
{
alignment = -1;
pos = (-40,182);
ref = gravecomb;
}
);
width = 226;
},
{
background = {
hints = (
{
horizontal = 1;
place = (0, 20);
place = (0, 20);
type = Stem;
},
{
horizontal = 1;
place = (719, 20);
place = (719, 20);
type = Stem;
}
);
shapes = (
{
closed = 1;
nodes = (
(205,0,l),
(342,739,l),
(205,739,l),
(68,0,l)
);
},
{
closed = 1;
nodes = (
(448,877,l),
(245,1007,l),
(175,916,l),
(381,792,l)
);
}
);
};
hints = (
{
horizontal = 1;
place = (0, 20);
place = (0, 20);
type = Stem;
},
{
horizontal = 1;
place = (719, 20);
place = (719, 20);
type = Stem;
}
);
layerId = "1B96798C-495B-4DFD-B0D1-66437D96AC3B";
shapes = (
{
ref = I;
},
{
alignment = -1;
pos = (-36,175);
ref = gravecomb;
}
);
width = 279;
}
);
unicode = 204;
},
{
glyphname = J;
layers = (
{
background = {
hints = (
{
horizontal = 1;
place = (-14, 68);
place = (-14, 68);
type = Stem;
},
{
horizontal = 1;
place = (719, 20);
place = (719, 20);
type = Stem;
},
{
place = (332, 74);
place = (332, 74);
type = Stem;
}
);
shapes = (
{
closed = 1;
nodes = (
(287,-14,o),
(346,19,o),
(377,82,c),
(394,114,o),
(406,177,o),
(406,231,c),
(406,739,l),
(332,739,l),
(332,231,l),
(332,114,o),
(290,54,o),
(210,54,c),
(137,54,o),
(89,100,o),
(84,175,c),
(11,175,l),
(17,57,o),
(91,-14,o),
(209,-14,c)
);
}
);
};
hints = (
{
horizontal = 1;
place = (-14, 68);
place = (-14, 68);
type = Stem;
},
{
horizontal = 1;
place = (719, 20);
place = (719, 20);
type = Stem;
},
{
place = (332, 74);
place = (332, 74);
type = Stem;
}
);
layerId = m01;
shapes = (
{
closed = 1;
nodes = (
(351,-14,o),
(406,91,o),
(406,231,c),
(406,739,l),
(332,739,l),
(332,231,l),
(332,114,o),
(290,54,o),
(210,54,c),
(137,54,o),
(89,100,o),
(84,175,c),
(11,175,l),
(17,57,o),
(91,-14,o),
(209,-14,c)
);
}
);
width = 482;
},
{
background = {
hints = (
{
horizontal = 1;
place = (-13, 132);
place = (-13, 132);
type = Stem;
},
{
horizontal = 1;
place = (719, 20);
place = (719, 20);
type = Stem;
},
{
place = (277, 137);
place = (277, 137);
type = Stem;
}
);
shapes = (
{
closed = 1;
nodes = (
(338,-13,o),
(414,73,o),
(414,212,c),
(414,739,l),
(277,739,l),
(277,216,l),
(277,151,o),
(255,119,o),
(211,119,c),
(177,119,o),
(155,138,o),
(146,175,c),
(9,175,l),
(15,117,o),
(26,87,o),
(56,54,c),
(94,12,o),
(152,-13,o),
(214,-13,c)
);
}
);
};
hints = (
{
horizontal = 1;
place = (-13, 132);
place = (-13, 132);
type = Stem;
},
{
horizontal = 1;
place = (719, 20);
place = (719, 20);
type = Stem;
},
{
place = (277, 137);
place = (277, 137);
type = Stem;
}
);
layerId = "B17A67C7-7966-4564-9280-1BFE3E81CC5D";
shapes = (
{
closed = 1;
nodes = (
(338,-13,o),
(414,73,o),
(414,212,c),
(414,739,l),
(277,739,l),
(277,216,l),
(277,151,o),
(255,119,o),
(211,119,c),
(177,119,o),
(155,138,o),
(146,175,c),
(9,175,l),
(24,30,o),
(128,-13,o),
(214,-13,c)
);
}
);
width = 480;
},
{
background = {
hints = (
{
horizontal = 1;
place = (-14, 68);
place = (-14, 68);
type = Stem;
},
{
horizontal = 1;
place = (719, 20);
place = (719, 20);
type = Stem;
}
);
shapes = (
{
closed = 1;
nodes = (
(335,-14,o),
(418,70,o),
(448,231,c),
(543,739,l),
(469,739,l),
(374,231,l),
(364,180,o),
(359,162,o),
(342,132,c),
(314,80,o),
(272,54,o),
(218,54,c),
(165,54,o),
(132,80,o),
(122,129,c),
(119,142,o),
(119,144,o),
(116,175,c),
(43,175,l),
(41,164,o),
(41,157,o),
(41,146,c),
(41,98,o),
(51,66,o),
(74,39,c),
(104,5,o),
(150,-14,o),
(207,-14,c)
);
}
);
};
hints = (
{
horizontal = 1;
place = (-14, 68);
place = (-14, 68);
type = Stem;
},
{
horizontal = 1;
place = (719, 20);
place = (719, 20);
type = Stem;
}
);
layerId = "E0ACA937-5896-4BA7-8E51-A45A3D2DA3C0";
shapes = (
{
closed = 1;
nodes = (
(335,-14,o),
(418,70,o),
(448,231,c),
(543,739,l),
(469,739,l),
(374,231,l),
(355,133,o),
(316,54,o),
(218,54,c),
(136,54,o),
(118,114,o),
(116,175,c),
(43,175,l),
(27,55,o),
(95,-14,o),
(207,-14,c)
);
}
);
width = 482;
},
{
background = {
hints = (
{
horizontal = 1;
place = (-13, 132);
place = (-13, 132);
type = Stem;
},
{
horizontal = 1;
place = (719, 20);
place = (719, 20);
type = Stem;
}
);
shapes = (
{
closed = 1;
nodes = (
(278,-13,o),
(336,13,o),
(383,62,c),
(420,100,o),
(440,145,o),
(453,212,c),
(551,739,l),
(414,739,l),
(317,216,l),
(305,150,o),
(278,119,o),
(233,119,c),
(200,119,o),
(183,134,o),
(178,168,c),
(177,175,l),
(40,175,l),
(39,161,o),
(38,149,o),
(38,140,c),
(38,50,o),
(110,-13,o),
(212,-13,c)
);
}
);
};
hints = (
{
horizontal = 1;
place = (-13, 132);
place = (-13, 132);
type = Stem;
},
{
horizontal = 1;
place = (719, 20);
place = (719, 20);
type = Stem;
}
);
layerId = "1B96798C-495B-4DFD-B0D1-66437D96AC3B";
shapes = (
{
closed = 1;
nodes = (
(296,-13,o),
(418,33,o),
(453,212,c),
(551,739,l),
(414,739,l),
(317,216,l),
(305,150,o),
(278,119,o),
(233,119,c),
(200,119,o),
(180,136,o),
(177,175,c),
(40,175,l),
(26,52,o),
(102,-13,o),
(212,-13,c)
);
}
);
width = 480;
}
);
unicode = 74;
},
{
color = 3;
glyphname = K;
layers = (
{
background = {
hints = (
{
horizontal = 1;
place = (0, 20);
place = (0, 20);
type = Stem;
},
{
horizontal = 1;
place = (719, 20);
place = (719, 20);
type = Stem;
},
{
place = (76, 74);
place = (76, 74);
type = Stem;
}
);
shapes = (
{
closed = 1;
nodes = (
(150,0,l),
(150,202,l),
(246,320,l),
(492,0,l),
(585,0,l),
(293,379,l),
(585,739,l),
(492,739,l),
(150,314,l),
(150,739,l),
(76,739,l),
(76,0,l)
);
}
);
};
hints = (
{
horizontal = 1;
place = (0, 20);
place = (0, 20);
type = Stem;
},
{
horizontal = 1;
place = (719, 20);
place = (719, 20);
type = Stem;
},
{
place = (76, 74);
place = (76, 74);
type = Stem;
}
);
layerId = m01;
shapes = (
{
closed = 1;
nodes = (
(150,0,l),
(150,202,l),
(272,353,l),
(585,739,l),
(492,739,l),
(150,314,l),
(150,739,l),
(76,739,l),
(76,0,l)
);
},
{
closed = 1;
nodes = (
(585,0,l),
(283,392,l),
(236,333,l),
(492,0,l)
);
}
);
width = 591;
},
{
background = {
hints = (
{
horizontal = 1;
place = (0, 20);
place = (0, 20);
type = Stem;
},
{
horizontal = 1;
place = (719, 20);
place = (719, 20);
type = Stem;
},
{
place = (68, 137);
place = (68, 137);
type = Stem;
}
);
shapes = (
{
closed = 1;
nodes = (
(208,0,l),
(208,325,l),
(208,325,l),
(437,0,l),
(602,0,l),
(324,376,l),
(602,739,l),
(437,739,l),
(208,420,l),
(208,739,l),
(71,739,l),
(71,0,l)
);
}
);
};
hints = (
{
horizontal = 1;
place = (0, 20);
place = (0, 20);
type = Stem;
},
{
horizontal = 1;
place = (719, 20);
place = (719, 20);
type = Stem;
},
{
place = (68, 137);
place = (68, 137);
type = Stem;
}
);
layerId = "B17A67C7-7966-4564-9280-1BFE3E81CC5D";
shapes = (
{
closed = 1;
nodes = (
(208,0,l),
(208,330,l),
(288,330,l),
(602,739,l),
(437,739,l),
(208,420,l),
(208,739,l),
(71,739,l),
(71,0,l)
);
},
{
closed = 1;
nodes = (
(602,0,l),
(313,391,l),
(161,391,l),
(437,0,l)
);
}
);
width = 623;
},
{
background = {
hints = (
{
horizontal = 1;
place = (0, 20);
place = (0, 20);
type = Stem;
},
{
horizontal = 1;
place = (719, 20);
place = (719, 20);
type = Stem;
}
);
shapes = (
{
closed = 1;
nodes = (
(150,0,l),
(187,202,l),
(305,320,l),
(492,0,l),
(585,0,l),
(363,379,l),
(722,739,l),
(629,739,l),
(208,314,l),
(287,739,l),
(213,739,l),
(76,0,l)
);
}
);
};
hints = (
{
horizontal = 1;
place = (0, 20);
place = (0, 20);
type = Stem;
},
{
horizontal = 1;
place = (719, 20);
place = (719, 20);
type = Stem;
}
);
layerId = "E0ACA937-5896-4BA7-8E51-A45A3D2DA3C0";
shapes = (
{
closed = 1;
nodes = (
(150,0,l),
(187,202,l),
(332,348,l),
(722,739,l),
(629,739,l),
(208,314,l),
(287,739,l),
(213,739,l),
(76,0,l)
);
},
{
closed = 1;
nodes = (
(585,0,l),
(355,393,l),
(297,334,l),
(492,0,l)
);
}
);
width = 591;
},
{
background = {
hints = (
{
horizontal = 1;
place = (0, 20);
place = (0, 20);
type = Stem;
},
{
horizontal = 1;
place = (719, 20);
place = (719, 20);
type = Stem;
}
);
shapes = (
{
closed = 1;
nodes = (
(205,0,l),
(265,325,l),
(265,325,l),
(435,0,l),
(599,0,l),
(392,376,l),
(736,739,l),
(572,739,l),
(283,420,l),
(342,739,l),
(205,739,l),
(68,0,l)
);
}
);
};
hints = (
{
horizontal = 1;
place = (0, 20);
place = (0, 20);
type = Stem;
},
{
horizontal = 1;
place = (719, 20);
place = (719, 20);
type = Stem;
}
);
layerId = "1B96798C-495B-4DFD-B0D1-66437D96AC3B";
shapes = (
{
closed = 1;
nodes = (
(205,0,l),
(265,325,l),
(344,325,l),
(736,739,l),
(572,739,l),
(283,420,l),
(342,739,l),
(205,739,l),
(68,0,l)
);
},
{
closed = 1;
nodes = (
(599,0,l),
(384,390,l),
(231,390,l),
(435,0,l)
);
}
);
width = 620;
},
{
associatedMasterId = m01;
attr = {
coordinates = (
119,
0
);
};
background = {
hints = (
{
horizontal = 1;
place = (0, 20);
place = (0, 20);
type = Stem;
},
{
horizontal = 1;
place = (719, 20);
place = (719, 20);
type = Stem;
},
{
place = (76, 74);
place = (76, 74);
type = Stem;
}
);
shapes = (
{
closed = 1;
nodes = (
(156,0,l),
(156,202,l),
(252,320,l),
(498,0,l),
(591,0,l),
(299,379,l),
(591,739,l),
(498,739,l),
(156,314,l),
(156,739,l),
(82,739,l),
(82,0,l)
);
}
);
};
hints = (
{
horizontal = 1;
place = (0, 20);
place = (0, 20);
type = Stem;
},
{
horizontal = 1;
place = (719, 20);
place = (719, 20);
type = Stem;
},
{
place = (70, 122);
place = (70, 122);
type = Stem;
}
);
layerId = "2FFC7A3F-68AE-4B31-B7C5-21FB8937F7A5";
name = "21. Nov. 20, 15:30";
shapes = (
{
closed = 1;
nodes = (
(198,0,l),
(198,226,l),
(288,335,l),
(602,739,l),
(454,739,l),
(198,395,l),
(198,739,l),
(76,739,l),
(76,0,l)
);
},
{
closed = 1;
nodes = (
(602,0,l),
(310,391,l),
(183,377,l),
(454,0,l)
);
}
);
width = 619;
},
{
associatedMasterId = "E0ACA937-5896-4BA7-8E51-A45A3D2DA3C0";
attr = {
coordinates = (
119,
-10
);
};
background = {
hints = (
{
horizontal = 1;
place = (0, 20);
place = (0, 20);
type = Stem;
},
{
horizontal = 1;
place = (719, 20);
place = (719, 20);
type = Stem;
}
);
shapes = (
{
closed = 1;
nodes = (
(155,0,l),
(192,202,l),
(310,320,l),
(497,0,l),
(590,0,l),
(368,379,l),
(727,739,l),
(634,739,l),
(213,314,l),
(292,739,l),
(218,739,l),
(81,0,l)
);
}
);
};
hints = (
{
horizontal = 1;
place = (0, 20);
place = (0, 20);
type = Stem;
},
{
horizontal = 1;
place = (719, 20);
place = (719, 20);
type = Stem;
}
);
layerId = "BD8CAD7A-800D-4625-877F-F2861470237F";
name = "21. Nov. 20, 15:34";
shapes = (
{
closed = 1;
nodes = (
(197,0,l),
(238,223,l),
(346,330,l),
(738,739,l),
(591,739,l),
(270,395,l),
(334,739,l),
(212,739,l),
(75,0,l)
);
},
{
closed = 1;
nodes = (
(601,0,l),
(382,391,l),
(252,377,l),
(454,0,l)
);
}
);
width = 618;
},
{
associatedMasterId = m01;
attr = {
coordinates = (
120,
0
);
};
background = {
hints = (
{
horizontal = 1;
place = (0, 20);
place = (0, 20);
type = Stem;
},
{
horizontal = 1;
place = (719, 20);
place = (719, 20);
type = Stem;
},
{
place = (76, 74);
place = (76, 74);
type = Stem;
}
);
shapes = (
{
closed = 1;
nodes = (
(156,0,l),
(156,202,l),
(252,320,l),
(498,0,l),
(591,0,l),
(299,379,l),
(591,739,l),
(498,739,l),
(156,314,l),
(156,739,l),
(82,739,l),
(82,0,l)
);
}
);
};
hints = (
{
horizontal = 1;
place = (0, 20);
place = (0, 20);
type = Stem;
},
{
horizontal = 1;
place = (719, 20);
place = (719, 20);
type = Stem;
},
{
place = (70, 123);
place = (70, 123);
type = Stem;
}
);
layerId = "D58A7B57-87F8-4058-AC49-1C4256316EDD";
name = "{119,0} 21. Nov. 20, 15:39";
shapes = (
{
closed = 1;
nodes = (
(199,0,l),
(199,360,l),
(288,335,l),
(602,739,l),
(453,739,l),
(199,397,l),
(199,739,l),
(76,739,l),
(76,0,l)
);
},
{
closed = 1;
nodes = (
(602,0,l),
(310,391,l),
(182,378,l),
(453,0,l)
);
}
);
width = 620;
},
{
associatedMasterId = "E0ACA937-5896-4BA7-8E51-A45A3D2DA3C0";
attr = {
coordinates = (
120,
-10
);
};
background = {
hints = (
{
horizontal = 1;
place = (0, 20);
place = (0, 20);
type = Stem;
},
{
horizontal = 1;
place = (719, 20);
place = (719, 20);
type = Stem;
}
);
shapes = (
{
closed = 1;
nodes = (
(155,0,l),
(192,202,l),
(310,320,l),
(497,0,l),
(590,0,l),
(368,379,l),
(727,739,l),
(634,739,l),
(213,314,l),
(292,739,l),
(218,739,l),
(81,0,l)
);
}
);
};
hints = (
{
horizontal = 1;
place = (0, 20);
place = (0, 20);
type = Stem;
},
{
horizontal = 1;
place = (719, 20);
place = (719, 20);
type = Stem;
}
);
layerId = "32B9BAD2-7853-44D7-8BE0-5F0613903913";
name = "{119,-10} 21. Nov. 20, 15:39";
shapes = (
{
closed = 1;
nodes = (
(198,0,l),
(263,363,l),
(346,330,l),
(738,739,l),
(590,739,l),
(271,397,l),
(335,739,l),
(212,739,l),
(75,0,l)
);
},
{
closed = 1;
nodes = (
(601,0,l),
(383,391,l),
(251,378,l),
(453,0,l)
);
}
);
width = 619;
}
);
metricLeft = H;
unicode = 75;
},
{
glyphname = L;
layers = (
{
background = {
hints = (
{
horizontal = 1;
place = (0, 67);
place = (0, 67);
type = Stem;
},
{
horizontal = 1;
place = (719, 20);
place = (719, 20);
type = Stem;
},
{
place = (76, 74);
place = (76, 74);
type = Stem;
}
);
shapes = (
{
closed = 1;
nodes = (
(456,0,l),
(456,67,l),
(150,67,l),
(150,739,l),
(76,739,l),
(76,0,l)
);
}
);
};
hints = (
{
horizontal = 1;
place = (0, 67);
place = (0, 67);
type = Stem;
},
{
horizontal = 1;
place = (719, 20);
place = (719, 20);
type = Stem;
},
{
place = (76, 74);
place = (76, 74);
type = Stem;
}
);
layerId = m01;
shapes = (
{
closed = 1;
nodes = (
(456,0,l),
(456,67,l),
(150,67,l),
(150,739,l),
(76,739,l),
(76,0,l)
);
}
);
width = 462;
},
{
background = {
hints = (
{
horizontal = 1;
place = (0, 131);
place = (0, 131);
type = Stem;
},
{
horizontal = 1;
place = (719, 20);
place = (719, 20);
type = Stem;
},
{
place = (68, 137);
place = (68, 137);
type = Stem;
}
);
shapes = (
{
closed = 1;
nodes = (
(434,0,l),
(434,131,l),
(208,131,l),
(208,739,l),
(71,739,l),
(71,0,l)
);
}
);
};
hints = (
{
horizontal = 1;
place = (0, 131);
place = (0, 131);
type = Stem;
},
{
horizontal = 1;
place = (719, 20);
place = (719, 20);
type = Stem;
},
{
place = (68, 137);
place = (68, 137);
type = Stem;
}
);
layerId = "B17A67C7-7966-4564-9280-1BFE3E81CC5D";
shapes = (
{
closed = 1;
nodes = (
(434,0,l),
(434,131,l),
(208,131,l),
(208,739,l),
(71,739,l),
(71,0,l)
);
}
);
width = 443;
},
{
background = {
hints = (
{
horizontal = 1;
place = (0, 67);
place = (0, 67);
type = Stem;
},
{
horizontal = 1;
place = (719, 20);
place = (719, 20);
type = Stem;
}
);
shapes = (
{
closed = 1;
nodes = (
(456,0,l),
(468,67,l),
(162,67,l),
(287,739,l),
(213,739,l),
(76,0,l)
);
}
);
};
hints = (
{
horizontal = 1;
place = (0, 67);
place = (0, 67);
type = Stem;
},
{
horizontal = 1;
place = (719, 20);
place = (719, 20);
type = Stem;
}
);
layerId = "E0ACA937-5896-4BA7-8E51-A45A3D2DA3C0";
shapes = (
{
closed = 1;
nodes = (
(456,0,l),
(468,67,l),
(162,67,l),
(287,739,l),
(213,739,l),
(76,0,l)
);
}
);
width = 462;
},
{
background = {
hints = (
{
horizontal = 1;
place = (0, 132);
place = (0, 132);
type = Stem;
},
{
horizontal = 1;
place = (719, 20);
place = (719, 20);
type = Stem;
}
);
shapes = (
{
closed = 1;
nodes = (
(432,0,l),
(456,132,l),
(229,132,l),
(342,739,l),
(205,739,l),
(68,0,l)
);
}
);
};
hints = (
{
horizontal = 1;
place = (0, 132);
place = (0, 132);
type = Stem;
},
{
horizontal = 1;
place = (719, 20);
place = (719, 20);
type = Stem;
}
);
layerId = "1B96798C-495B-4DFD-B0D1-66437D96AC3B";
shapes = (
{
closed = 1;
nodes = (
(432,0,l),
(456,132,l),
(229,132,l),
(342,739,l),
(205,739,l),
(68,0,l)
);
}
);
width = 440;
}
);
metricLeft = H;
unicode = 76;
},
{
glyphname = Lslash;
layers = (
{
background = {
hints = (
{
horizontal = 1;
place = (0, 67);
place = (0, 67);
type = Stem;
},
{
horizontal = 1;
place = (719, 20);
place = (719, 20);
type = Stem;
},
{
place = (122, 74);
place = (122, 74);
type = Stem;
}
);
shapes = (
{
closed = 1;
nodes = (
(502,0,l),
(502,67,l),
(196,67,l),
(196,353,l),
(356,485,l),
(356,569,l),
(196,436,l),
(196,739,l),
(122,739,l),
(122,387,l),
(26,307,l),
(26,224,l),
(122,303,l),
(122,0,l)
);
}
);
};
hints = (
{
horizontal = 1;
place = (0, 67);
place = (0, 67);
type = Stem;
},
{
horizontal = 1;
place = (719, 20);
place = (719, 20);
type = Stem;
},
{
place = (122, 74);
place = (122, 74);
type = Stem;
}
);
layerId = m01;
shapes = (
{
closed = 1;
nodes = (
(502,0,l),
(502,67,l),
(196,67,l),
(196,353,l),
(356,485,l),
(356,569,l),
(196,436,l),
(196,739,l),
(122,739,l),
(122,387,l),
(26,307,l),
(26,224,l),
(122,303,l),
(122,0,l)
);
}
);
width = 517;
},
{
background = {
hints = (
{
horizontal = 1;
place = (0, 128);
place = (0, 128);
type = Stem;
},
{
horizontal = 1;
place = (719, 20);
place = (719, 20);
type = Stem;
},
{
place = (110, 137);
place = (110, 137);
type = Stem;
}
);
shapes = (
{
closed = 1;
nodes = (
(473,0,l),
(473,128,l),
(247,128,l),
(247,350,l),
(389,461,l),
(389,584,l),
(247,474,l),
(247,739,l),
(110,739,l),
(110,397,l),
(14,318,l),
(14,194,l),
(110,273,l),
(110,0,l)
);
}
);
};
hints = (
{
horizontal = 1;
place = (0, 128);
place = (0, 128);
type = Stem;
},
{
horizontal = 1;
place = (719, 20);
place = (719, 20);
type = Stem;
},
{
place = (110, 137);
place = (110, 137);
type = Stem;
}
);
layerId = "B17A67C7-7966-4564-9280-1BFE3E81CC5D";
shapes = (
{
closed = 1;
nodes = (
(473,0,l),
(473,128,l),
(247,128,l),
(247,350,l),
(389,461,l),
(389,584,l),
(247,474,l),
(247,739,l),
(110,739,l),
(110,397,l),
(14,318,l),
(14,194,l),
(110,273,l),
(110,0,l)
);
}
);
width = 480;
},
{
background = {
hints = (
{
horizontal = 1;
place = (0, 67);
place = (0, 67);
type = Stem;
},
{
horizontal = 1;
place = (719, 20);
place = (719, 20);
type = Stem;
}
);
shapes = (
{
closed = 1;
nodes = (
(502,0,l),
(514,67,l),
(208,67,l),
(259,342,l),
(441,474,l),
(456,558,l),
(275,426,l),
(333,739,l),
(259,739,l),
(194,391,l),
(86,310,l),
(70,226,l),
(179,307,l),
(122,0,l)
);
}
);
};
hints = (
{
horizontal = 1;
place = (0, 67);
place = (0, 67);
type = Stem;
},
{
horizontal = 1;
place = (719, 20);
place = (719, 20);
type = Stem;
}
);
layerId = "E0ACA937-5896-4BA7-8E51-A45A3D2DA3C0";
shapes = (
{
closed = 1;
nodes = (
(502,0,l),
(514,67,l),
(208,67,l),
(259,342,l),
(441,474,l),
(456,558,l),
(275,426,l),
(333,739,l),
(259,739,l),
(194,391,l),
(86,310,l),
(70,226,l),
(179,307,l),
(122,0,l)
);
}
);
width = 517;
},
{
background = {
hints = (
{
horizontal = 1;
place = (0, 128);
place = (0, 128);
type = Stem;
},
{
horizontal = 1;
place = (719, 20);
place = (719, 20);
type = Stem;
}
);
shapes = (
{
closed = 1;
nodes = (
(474,0,l),
(498,128,l),
(271,128,l),
(310,340,l),
(473,451,l),
(497,581,l),
(335,470,l),
(384,739,l),
(247,739,l),
(184,397,l),
(73,318,l),
(49,188,l),
(160,267,l),
(110,0,l)
);
}
);
};
hints = (
{
horizontal = 1;
place = (0, 128);
place = (0, 128);
type = Stem;
},
{
horizontal = 1;
place = (719, 20);
place = (719, 20);
type = Stem;
}
);
layerId = "1B96798C-495B-4DFD-B0D1-66437D96AC3B";
shapes = (
{
closed = 1;
nodes = (
(474,0,l),
(498,128,l),
(271,128,l),
(310,340,l),
(473,451,l),
(497,581,l),
(335,470,l),
(384,739,l),
(247,739,l),
(184,397,l),
(73,318,l),
(49,188,l),
(160,267,l),
(110,0,l)
);
}
);
width = 480;
}
);
unicode = 321;
},
{
glyphname = M;
layers = (
{
background = {
hints = (
{
horizontal = 1;
place = (0, 20);
place = (0, 20);
type = Stem;
},
{
horizontal = 1;
place = (719, 20);
place = (719, 20);
type = Stem;
},
{
place = (76, 74);
place = (76, 74);
type = Stem;
},
{
place = (769, 74);
place = (769, 74);
type = Stem;
}
);
shapes = (
{
closed = 1;
nodes = (
(150,0,l),
(150,658,l),
(427,0,l),
(491,0,l),
(769,658,l),
(769,0,l),
(843,0,l),
(843,739,l),
(728,739,l),
(460,110,l),
(191,739,l),
(76,739,l),
(76,0,l)
);
}
);
};
hints = (
{
horizontal = 1;
place = (0, 20);
place = (0, 20);
type = Stem;
},
{
horizontal = 1;
place = (719, 20);
place = (719, 20);
type = Stem;
},
{
place = (76, 74);
place = (76, 74);
type = Stem;
},
{
place = (769, 74);
place = (769, 74);
type = Stem;
}
);
layerId = m01;
shapes = (
{
closed = 1;
nodes = (
(150,0,l),
(150,658,l),
(427,0,l),
(491,0,l),
(769,658,l),
(769,0,l),
(843,0,l),
(843,739,l),
(728,739,l),
(460,110,l),
(191,739,l),
(76,739,l),
(76,0,l)
);
}
);
width = 919;
},
{
background = {
hints = (
{
horizontal = 1;
place = (0, 20);
place = (0, 20);
type = Stem;
},
{
horizontal = 1;
place = (719, 20);
place = (719, 20);
type = Stem;
},
{
place = (68, 137);
place = (68, 137);
type = Stem;
},
{
place = (703, 137);
place = (703, 137);
type = Stem;
}
);
shapes = (
{
closed = 1;
nodes = (
(208,0,l),
(208,554,l),
(401,0,l),
(513,0,l),
(706,554,l),
(706,0,l),
(843,0,l),
(843,739,l),
(655,739,l),
(458,179,l),
(259,739,l),
(71,739,l),
(71,0,l)
);
}
);
};
hints = (
{
horizontal = 1;
place = (0, 20);
place = (0, 20);
type = Stem;
},
{
horizontal = 1;
place = (719, 20);
place = (719, 20);
type = Stem;
},
{
place = (68, 137);
place = (68, 137);
type = Stem;
},
{
place = (703, 137);
place = (703, 137);
type = Stem;
}
);
layerId = "B17A67C7-7966-4564-9280-1BFE3E81CC5D";
shapes = (
{
closed = 1;
nodes = (
(208,0,l),
(208,554,l),
(401,0,l),
(513,0,l),
(706,554,l),
(706,0,l),
(843,0,l),
(843,739,l),
(655,739,l),
(458,179,l),
(259,739,l),
(71,739,l),
(71,0,l)
);
}
);
width = 914;
},
{
background = {
hints = (
{
horizontal = 1;
place = (0, 20);
place = (0, 20);
type = Stem;
},
{
horizontal = 1;
place = (719, 20);
place = (719, 20);
type = Stem;
}
);
shapes = (
{
closed = 1;
nodes = (
(150,0,l),
(272,658,l),
(427,0,l),
(491,0,l),
(891,658,l),
(769,0,l),
(843,0,l),
(980,739,l),
(865,739,l),
(480,110,l),
(328,739,l),
(213,739,l),
(76,0,l)
);
}
);
};
hints = (
{
horizontal = 1;
place = (0, 20);
place = (0, 20);
type = Stem;
},
{
horizontal = 1;
place = (719, 20);
place = (719, 20);
type = Stem;
}
);
layerId = "E0ACA937-5896-4BA7-8E51-A45A3D2DA3C0";
shapes = (
{
closed = 1;
nodes = (
(150,0,l),
(272,658,l),
(427,0,l),
(491,0,l),
(891,658,l),
(769,0,l),
(843,0,l),
(980,739,l),
(865,739,l),
(480,110,l),
(328,739,l),
(213,739,l),
(76,0,l)
);
}
);
width = 919;
},
{
background = {
hints = (
{
horizontal = 1;
place = (0, 20);
place = (0, 20);
type = Stem;
},
{
horizontal = 1;
place = (719, 20);
place = (719, 20);
type = Stem;
}
);
shapes = (
{
closed = 1;
nodes = (
(205,0,l),
(308,554,l),
(398,0,l),
(510,0,l),
(806,554,l),
(703,0,l),
(840,0,l),
(977,739,l),
(789,739,l),
(488,179,l),
(393,739,l),
(205,739,l),
(68,0,l)
);
}
);
};
hints = (
{
horizontal = 1;
place = (0, 20);
place = (0, 20);
type = Stem;
},
{
horizontal = 1;
place = (719, 20);
place = (719, 20);
type = Stem;
}
);
layerId = "1B96798C-495B-4DFD-B0D1-66437D96AC3B";
shapes = (
{
closed = 1;
nodes = (
(205,0,l),
(308,554,l),
(398,0,l),
(510,0,l),
(806,554,l),
(703,0,l),
(840,0,l),
(977,739,l),
(789,739,l),
(488,179,l),
(393,739,l),
(205,739,l),
(68,0,l)
);
}
);
width = 914;
}
);
metricLeft = H;
metricRight = H;
unicode = 77;
},
{
glyphname = N;
layers = (
{
anchors = (
{
name = bottom;
pos = (370,0);
},
{
name = top;
pos = (370,739);
}
);
background = {
hints = (
{
horizontal = 1;
place = (0, 20);
place = (0, 20);
type = Stem;
},
{
horizontal = 1;
place = (719, 20);
place = (719, 20);
type = Stem;
},
{
place = (76, 74);
place = (76, 74);
type = Stem;
},
{
place = (590, 74);
place = (590, 74);
type = Stem;
}
);
shapes = (
{
closed = 1;
nodes = (
(150,0,l),
(150,650,l),
(590,0,l),
(664,0,l),
(664,739,l),
(590,739,l),
(590,126,l),
(176,739,l),
(76,739,l),
(76,0,l)
);
}
);
};
hints = (
{
horizontal = 1;
place = (0, 20);
place = (0, 20);
type = Stem;
},
{
horizontal = 1;
place = (719, 20);
place = (719, 20);
type = Stem;
},
{
place = (76, 74);
place = (76, 74);
type = Stem;
},
{
place = (590, 74);
place = (590, 74);
type = Stem;
}
);
layerId = m01;
shapes = (
{
closed = 1;
nodes = (
(150,0,l),
(150,650,l),
(590,0,l),
(664,0,l),
(664,739,l),
(590,739,l),
(590,126,l),
(176,739,l),
(76,739,l),
(76,0,l)
);
}
);
width = 740;
},
{
anchors = (
{
name = bottom;
pos = (373,0);
},
{
name = top;
pos = (373,739);
}
);
background = {
hints = (
{
horizontal = 1;
place = (0, 20);
place = (0, 20);
type = Stem;
},
{
horizontal = 1;
place = (719, 20);
place = (719, 20);
type = Stem;
},
{
place = (68, 137);
place = (68, 137);
type = Stem;
},
{
place = (530, 137);
place = (530, 137);
type = Stem;
}
);
shapes = (
{
closed = 1;
nodes = (
(208,0,l),
(208,537,l),
(517,0,l),
(670,0,l),
(670,739,l),
(533,739,l),
(533,201,l),
(227,739,l),
(71,739,l),
(71,0,l)
);
}
);
};
hints = (
{
horizontal = 1;
place = (0, 20);
place = (0, 20);
type = Stem;
},
{
horizontal = 1;
place = (719, 20);
place = (719, 20);
type = Stem;
},
{
place = (68, 137);
place = (68, 137);
type = Stem;
},
{
place = (530, 137);
place = (530, 137);
type = Stem;
}
);
layerId = "B17A67C7-7966-4564-9280-1BFE3E81CC5D";
shapes = (
{
closed = 1;
nodes = (
(208,0,l),
(208,537,l),
(517,0,l),
(670,0,l),
(670,739,l),
(533,739,l),
(533,201,l),
(227,739,l),
(71,739,l),
(71,0,l)
);
}
);
width = 741;
},
{
anchors = (
{
name = bottom;
pos = (322,0);
},
{
name = top;
pos = (452,739);
}
);
background = {
hints = (
{
horizontal = 1;
place = (0, 20);
place = (0, 20);
type = Stem;
},
{
horizontal = 1;
place = (719, 20);
place = (719, 20);
type = Stem;
}
);
shapes = (
{
closed = 1;
nodes = (
(150,0,l),
(270,650,l),
(590,0,l),
(664,0,l),
(801,739,l),
(727,739,l),
(613,126,l),
(313,739,l),
(213,739,l),
(76,0,l)
);
}
);
};
hints = (
{
horizontal = 1;
place = (0, 20);
place = (0, 20);
type = Stem;
},
{
horizontal = 1;
place = (719, 20);
place = (719, 20);
type = Stem;
}
);
layerId = "E0ACA937-5896-4BA7-8E51-A45A3D2DA3C0";
shapes = (
{
closed = 1;
nodes = (
(150,0,l),
(270,650,l),
(590,0,l),
(664,0,l),
(801,739,l),
(727,739,l),
(613,126,l),
(313,739,l),
(213,739,l),
(76,0,l)
);
}
);
width = 740;
},
{
anchors = (
{
name = bottom;
pos = (321,0);
},
{
name = top;
pos = (451,739);
}
);
background = {
hints = (
{
horizontal = 1;
place = (0, 20);
place = (0, 20);
type = Stem;
},
{
horizontal = 1;
place = (719, 20);
place = (719, 20);
type = Stem;
}
);
shapes = (
{
closed = 1;
nodes = (
(205,0,l),
(305,537,l),
(514,0,l),
(667,0,l),
(804,739,l),
(667,739,l),
(567,201,l),
(361,739,l),
(205,739,l),
(68,0,l)
);
}
);
};
hints = (
{
horizontal = 1;
place = (0, 20);
place = (0, 20);
type = Stem;
},
{
horizontal = 1;
place = (719, 20);
place = (719, 20);
type = Stem;
}
);
layerId = "1B96798C-495B-4DFD-B0D1-66437D96AC3B";
shapes = (
{
closed = 1;
nodes = (
(205,0,l),
(305,537,l),
(514,0,l),
(667,0,l),
(804,739,l),
(667,739,l),
(567,201,l),
(361,739,l),
(205,739,l),
(68,0,l)
);
}
);
width = 741;
}
);
metricLeft = H;
metricRight = H;
unicode = 78;
},
{
color = 6;
glyphname = Ntilde;
layers = (
{
background = {
hints = (
{
horizontal = 1;
place = (0, 20);
place = (0, 20);
type = Stem;
},
{
horizontal = 1;
place = (719, 20);
place = (719, 20);
type = Stem;
},
{
horizontal = 1;
place = (815, 64);
place = (815, 64);
type = Stem;
},
{
place = (76, 74);
place = (76, 74);
type = Stem;
},
{
place = (590, 74);
place = (590, 74);
type = Stem;
},
{
horizontal = 1;
place = (847, 63);
place = (847, 63);
type = Stem;
}
);
shapes = (
{
closed = 1;
nodes = (
(150,0,l),
(150,650,l),
(590,0,l),
(664,0,l),
(664,739,l),
(590,739,l),
(590,126,l),
(176,739,l),
(76,739,l),
(76,0,l)
);
},
{
closed = 1;
nodes = (
(268,818,o),
(270,820,o),
(271,821,c),
(298,843,o),
(305,847,o),
(325,847,c),
(336,847,o),
(350,843,o),
(364,837,c),
(398,821,o),
(416,815,o),
(431,815,c),
(464,815,o),
(505,838,o),
(522,864,c),
(489,910,l),
(468,889,o),
(451,879,o),
(432,879,c),
(423,879,o),
(400,886,o),
(384,893,c),
(353,907,o),
(342,910,o),
(324,910,c),
(289,910,o),
(254,891,o),
(232,861,c),
(264,815,l)
);
}
);
};
hints = (
{
horizontal = 1;
place = (0, 20);
place = (0, 20);
type = Stem;
},
{
horizontal = 1;
place = (719, 20);
place = (719, 20);
type = Stem;
},
{
horizontal = 1;
place = (815, 64);
place = (815, 64);
type = Stem;
},
{
place = (76, 74);
place = (76, 74);
type = Stem;
},
{
place = (590, 74);
place = (590, 74);
type = Stem;
},
{
horizontal = 1;
place = (847, 63);
place = (847, 63);
type = Stem;
}
);
layerId = m01;
shapes = (
{
ref = N;
},
{
pos = (150,192);
ref = tildecomb;
}
);
width = 740;
},
{
background = {
hints = (
{
horizontal = 1;
place = (0, 20);
place = (0, 20);
type = Stem;
},
{
horizontal = 1;
place = (719, 20);
place = (719, 20);
type = Stem;
},
{
horizontal = 1;
place = (836, 102);
place = (836, 102);
type = Stem;
},
{
place = (68, 137);
place = (68, 137);
type = Stem;
},
{
place = (530, 137);
place = (530, 137);
type = Stem;
},
{
horizontal = 1;
place = (811, 102);
place = (811, 102);
type = Stem;
}
);
shapes = (
{
closed = 1;
nodes = (
(205,0,l),
(205,537,l),
(514,0,l),
(667,0,l),
(667,739,l),
(530,739,l),
(530,201,l),
(224,739,l),
(68,739,l),
(68,0,l)
);
},
{
closed = 1;
nodes = (
(300,833,o),
(307,836,o),
(333,836,c),
(349,836,o),
(359,834,o),
(386,824,c),
(413,815,o),
(431,811,o),
(446,811,c),
(481,811,o),
(507,827,o),
(540,866,c),
(486,947,l),
(464,923,o),
(445,913,o),
(419,913,c),
(405,913,o),
(392,916,o),
(371,924,c),
(343,936,o),
(333,938,o),
(312,938,c),
(270,938,o),
(244,926,o),
(209,891,c),
(263,811,l)
);
}
);
};
hints = (
{
horizontal = 1;
place = (0, 20);
place = (0, 20);
type = Stem;
},
{
horizontal = 1;
place = (719, 20);
place = (719, 20);
type = Stem;
},
{
horizontal = 1;
place = (836, 102);
place = (836, 102);
type = Stem;
},
{
place = (68, 137);
place = (68, 137);
type = Stem;
},
{
place = (530, 137);
place = (530, 137);
type = Stem;
},
{
horizontal = 1;
place = (811, 102);
place = (811, 102);
type = Stem;
}
);
layerId = "B17A67C7-7966-4564-9280-1BFE3E81CC5D";
shapes = (
{
ref = N;
},
{
pos = (133,185);
ref = tildecomb;
}
);
width = 741;
},
{
background = {
hints = (
{
horizontal = 1;
place = (0, 20);
place = (0, 20);
type = Stem;
},
{
horizontal = 1;
place = (719, 20);
place = (719, 20);
type = Stem;
},
{
horizontal = 1;
place = (815, 63);
place = (815, 63);
type = Stem;
},
{
horizontal = 1;
place = (852, 63);
place = (852, 63);
type = Stem;
}
);
shapes = (
{
closed = 1;
nodes = (
(150,0,l),
(270,650,l),
(590,0,l),
(664,0,l),
(801,739,l),
(727,739,l),
(613,126,l),
(313,739,l),
(213,739,l),
(76,0,l)
);
},
{
closed = 1;
nodes = (
(613,815,o),
(646,834,o),
(672,870,c),
(650,916,l),
(627,890,o),
(604,878,o),
(580,878,c),
(570,878,o),
(563,880,o),
(543,889,c),
(525,897,o),
(525,897,o),
(508,906,c),
(495,912,o),
(484,915,o),
(474,915,c),
(449,915,o),
(417,896,o),
(386,864,c),
(409,819,l),
(448,848,o),
(455,852,o),
(466,852,c),
(473,852,o),
(479,851,o),
(484,848,c),
(527,827,o),
(561,815,o),
(579,815,c)
);
}
);
};
hints = (
{
horizontal = 1;
place = (0, 20);
place = (0, 20);
type = Stem;
},
{
horizontal = 1;
place = (719, 20);
place = (719, 20);
type = Stem;
},
{
horizontal = 1;
place = (815, 63);
place = (815, 63);
type = Stem;
},
{
horizontal = 1;
place = (852, 63);
place = (852, 63);
type = Stem;
}
);
layerId = "E0ACA937-5896-4BA7-8E51-A45A3D2DA3C0";
shapes = (
{
ref = N;
},
{
pos = (133,192);
ref = tildecomb;
}
);
width = 740;
},
{
background = {
hints = (
{
horizontal = 1;
place = (0, 20);
place = (0, 20);
type = Stem;
},
{
horizontal = 1;
place = (719, 20);
place = (719, 20);
type = Stem;
},
{
horizontal = 1;
place = (837, 103);
place = (837, 103);
type = Stem;
},
{
horizontal = 1;
place = (806, 103);
place = (806, 103);
type = Stem;
}
);
shapes = (
{
closed = 1;
nodes = (
(205,0,l),
(305,537,l),
(514,0,l),
(667,0,l),
(804,739,l),
(667,739,l),
(567,201,l),
(361,739,l),
(205,739,l),
(68,0,l)
);
},
{
closed = 1;
nodes = (
(626,806,o),
(660,823,o),
(690,862,c),
(656,944,l),
(610,912,o),
(604,909,o),
(575,909,c),
(558,909,o),
(553,911,o),
(525,923,c),
(502,933,o),
(478,940,o),
(465,940,c),
(435,940,o),
(395,920,o),
(368,892,c),
(406,807,l),
(434,830,o),
(447,837,o),
(461,837,c),
(472,837,o),
(491,832,o),
(520,821,c),
(556,808,o),
(565,806,o),
(582,806,c)
);
}
);
};
hints = (
{
horizontal = 1;
place = (0, 20);
place = (0, 20);
type = Stem;
},
{
horizontal = 1;
place = (719, 20);
place = (719, 20);
type = Stem;
},
{
horizontal = 1;
place = (837, 103);
place = (837, 103);
type = Stem;
},
{
horizontal = 1;
place = (806, 103);
place = (806, 103);
type = Stem;
}
);
layerId = "1B96798C-495B-4DFD-B0D1-66437D96AC3B";
shapes = (
{
ref = N;
},
{
pos = (110,185);
ref = tildecomb;
}
);
width = 741;
}
);
unicode = 209;
},
{
glyphname = O;
layers = (
{
anchors = (
{
name = bottom;
pos = (435,0);
},
{
name = center;
pos = (435,370);
},
{
name = ogonek;
pos = (782,10);
},
{
name = top;
pos = (435,729);
},
{
name = topleft;
pos = (20,739);
},
{
name = topright;
pos = (849,739);
}
);
background = {
hints = (
{
horizontal = 1;
place = (-13, 68);
place = (-13, 68);
type = Stem;
},
{
horizontal = 1;
place = (684, 68);
place = (684, 68);
type = Stem;
},
{
place = (44, 75);
place = (44, 75);
type = Stem;
},
{
place = (750, 75);
place = (750, 75);
type = Stem;
}
);
shapes = (
{
closed = 1;
nodes = (
(649,-13,o),
(825,160,o),
(825,369,c),
(825,580,o),
(649,752,o),
(435,752,c),
(223,752,o),
(44,579,o),
(44,374,c),
(44,159,o),
(218,-13,o),
(435,-13,c)
);
},
{
closed = 1;
nodes = (
(261,55,o),
(119,197,o),
(119,372,c),
(119,541,o),
(264,684,o),
(435,684,c),
(607,684,o),
(750,541,o),
(750,368,c),
(750,197,o),
(607,55,o),
(435,55,c)
);
}
);
};
hints = (
{
horizontal = 1;
place = (-13, 68);
place = (-13, 68);
type = Stem;
},
{
horizontal = 1;
place = (684, 68);
place = (684, 68);
type = Stem;
},
{
place = (44, 75);
place = (44, 75);
type = Stem;
},
{
place = (750, 75);
place = (750, 75);
type = Stem;
}
);
layerId = m01;
shapes = (
{
closed = 1;
nodes = (
(649,-13,o),
(825,160,o),
(825,369,c),
(825,580,o),
(649,752,o),
(435,752,c),
(223,752,o),
(44,579,o),
(44,374,c),
(44,159,o),
(218,-13,o),
(435,-13,c)
);
},
{
closed = 1;
nodes = (
(261,55,o),
(119,197,o),
(119,372,c),
(119,541,o),
(264,684,o),
(435,684,c),
(607,684,o),
(750,541,o),
(750,368,c),
(750,197,o),
(607,55,o),
(435,55,c)
);
}
);
width = 869;
},
{
anchors = (
{
name = bottom;
pos = (425,0);
},
{
name = center;
pos = (425,370);
},
{
name = ogonek;
pos = (761,10);
},
{
name = top;
pos = (425,729);
},
{
name = topleft;
pos = (25,739);
},
{
name = topright;
pos = (825,739);
}
);
background = {
hints = (
{
horizontal = 1;
place = (-13, 132);
place = (-13, 132);
type = Stem;
},
{
horizontal = 1;
place = (620, 132);
place = (620, 132);
type = Stem;
},
{
place = (30, 138);
place = (30, 138);
type = Stem;
},
{
place = (662, 138);
place = (662, 138);
type = Stem;
}
);
shapes = (
{
closed = 1;
nodes = (
(639,-13,o),
(805,154,o),
(805,370,c),
(805,581,o),
(636,752,o),
(425,752,c),
(205,752,o),
(35,585,o),
(35,369,c),
(35,156,o),
(207,-13,o),
(424,-13,c)
);
},
{
closed = 1;
nodes = (
(283,119,o),
(173,229,o),
(173,369,c),
(173,512,o),
(281,620,o),
(423,620,c),
(560,620,o),
(667,510,o),
(667,368,c),
(667,226,o),
(563,119,o),
(423,119,c)
);
}
);
};
hints = (
{
horizontal = 1;
place = (-13, 132);
place = (-13, 132);
type = Stem;
},
{
horizontal = 1;
place = (620, 132);
place = (620, 132);
type = Stem;
},
{
place = (30, 138);
place = (30, 138);
type = Stem;
},
{
place = (662, 138);
place = (662, 138);
type = Stem;
}
);
layerId = "B17A67C7-7966-4564-9280-1BFE3E81CC5D";
shapes = (
{
closed = 1;
nodes = (
(639,-13,o),
(805,154,o),
(805,370,c),
(805,581,o),
(636,752,o),
(425,752,c),
(205,752,o),
(35,585,o),
(35,369,c),
(35,156,o),
(207,-13,o),
(424,-13,c)
);
},
{
closed = 1;
nodes = (
(283,119,o),
(173,229,o),
(173,369,c),
(173,512,o),
(281,620,o),
(423,620,c),
(560,620,o),
(667,510,o),
(667,368,c),
(667,226,o),
(563,119,o),
(423,119,c)
);
}
);
width = 840;
},
{
anchors = (
{
name = bottom;
pos = (387,0);
},
{
name = center;
pos = (452,370);
},
{
name = ogonek;
pos = (736,10);
},
{
name = top;
pos = (568,729);
},
{
name = topleft;
pos = (102,739);
},
{
name = topright;
pos = (931,739);
}
);
background = {
hints = (
{
horizontal = 1;
place = (-13, 68);
place = (-13, 68);
type = Stem;
},
{
horizontal = 1;
place = (684, 68);
place = (684, 68);
type = Stem;
},
{
place = (106, 77);
place = (106, 77);
type = Stem;
},
{
place = (823, 77);
place = (823, 77);
type = Stem;
}
);
shapes = (
{
closed = 1;
nodes = (
(673,-13,o),
(900,203,o),
(900,436,c),
(900,511,o),
(880,571,o),
(839,626,c),
(779,705,o),
(681,752,o),
(578,752,c),
(333,752,o),
(106,536,o),
(106,302,c),
(106,234,o),
(128,164,o),
(166,113,c),
(223,36,o),
(325,-13,o),
(428,-13,c)
);
},
{
closed = 1;
nodes = (
(296,55,o),
(183,170,o),
(183,316,c),
(183,503,o),
(369,684,o),
(560,684,c),
(713,684,o),
(823,574,o),
(823,422,c),
(823,232,o),
(638,55,o),
(440,55,c)
);
}
);
};
hints = (
{
horizontal = 1;
place = (-13, 68);
place = (-13, 68);
type = Stem;
},
{
horizontal = 1;
place = (684, 68);
place = (684, 68);
type = Stem;
},
{
place = (106, 77);
place = (106, 77);
type = Stem;
},
{
place = (823, 77);
place = (823, 77);
type = Stem;
}
);
layerId = "E0ACA937-5896-4BA7-8E51-A45A3D2DA3C0";
shapes = (
{
closed = 1;
nodes = (
(673,-13,o),
(900,203,o),
(900,436,c),
(900,621,o),
(755,752,o),
(578,752,c),
(333,752,o),
(106,536,o),
(106,302,c),
(106,121,o),
(247,-13,o),
(428,-13,c)
);
},
{
closed = 1;
nodes = (
(296,55,o),
(183,170,o),
(183,316,c),
(183,503,o),
(369,684,o),
(560,684,c),
(713,684,o),
(823,574,o),
(823,422,c),
(823,232,o),
(638,55,o),
(440,55,c)
);
}
);
width = 869;
},
{
anchors = (
{
name = bottom;
pos = (371,0);
},
{
name = center;
pos = (436,370);
},
{
name = ogonek;
pos = (709,10);
},
{
name = top;
pos = (555,729);
},
{
name = topleft;
pos = (101,739);
},
{
name = topright;
pos = (901,739);
}
);
background = {
hints = (
{
horizontal = 1;
place = (-13, 132);
place = (-13, 132);
type = Stem;
},
{
horizontal = 1;
place = (620, 132);
place = (620, 132);
type = Stem;
},
{
place = (91, 140);
place = (91, 140);
type = Stem;
},
{
place = (735, 140);
place = (735, 140);
type = Stem;
}
);
shapes = (
{
closed = 1;
nodes = (
(658,-13,o),
(875,201,o),
(875,439,c),
(875,622,o),
(743,752,o),
(559,752,c),
(429,752,o),
(305,696,o),
(212,595,c),
(137,513,o),
(91,401,o),
(91,300,c),
(91,118,o),
(227,-13,o),
(416,-13,c)
);
},
{
closed = 1;
nodes = (
(318,119,o),
(231,204,o),
(231,323,c),
(231,381,o),
(256,448,o),
(297,501,c),
(356,578,o),
(439,620,o),
(532,620,c),
(650,620,o),
(735,536,o),
(735,419,c),
(735,359,o),
(711,290,o),
(672,238,c),
(615,162,o),
(531,119,o),
(440,119,c)
);
}
);
};
hints = (
{
horizontal = 1;
place = (-13, 132);
place = (-13, 132);
type = Stem;
},
{
horizontal = 1;
place = (620, 132);
place = (620, 132);
type = Stem;
},
{
place = (91, 140);
place = (91, 140);
type = Stem;
},
{
place = (735, 140);
place = (735, 140);
type = Stem;
}
);
layerId = "1B96798C-495B-4DFD-B0D1-66437D96AC3B";
shapes = (
{
closed = 1;
nodes = (
(658,-13,o),
(875,201,o),
(875,439,c),
(875,622,o),
(743,752,o),
(559,752,c),
(306,752,o),
(91,533,o),
(91,300,c),
(91,118,o),
(227,-13,o),
(416,-13,c)
);
},
{
closed = 1;
nodes = (
(318,119,o),
(231,204,o),
(231,323,c),
(231,452,o),
(347,620,o),
(532,620,c),
(650,620,o),
(735,536,o),
(735,419,c),
(735,265,o),
(605,119,o),
(440,119,c)
);
}
);
width = 840;
}
);
unicode = 79;
},
{
color = 6;
glyphname = Oacute;
layers = (
{
background = {
hints = (
{
horizontal = 1;
place = (-13, 68);
place = (-13, 68);
type = Stem;
},
{
horizontal = 1;
place = (684, 68);
place = (684, 68);
type = Stem;
},
{
place = (44, 75);
place = (44, 75);
type = Stem;
},
{
place = (750, 75);
place = (750, 75);
type = Stem;
}
);
shapes = (
{
closed = 1;
nodes = (
(649,-13,o),
(825,160,o),
(825,369,c),
(825,580,o),
(649,752,o),
(435,752,c),
(223,752,o),
(44,579,o),
(44,374,c),
(44,159,o),
(218,-13,o),
(435,-13,c)
);
},
{
closed = 1;
nodes = (
(261,55,o),
(119,197,o),
(119,372,c),
(119,541,o),
(264,684,o),
(435,684,c),
(607,684,o),
(750,541,o),
(750,368,c),
(750,197,o),
(607,55,o),
(435,55,c)
);
},
{
closed = 1;
nodes = (
(581,906,l),
(547,964,l),
(354,848,l),
(389,792,l)
);
}
);
};
hints = (
{
horizontal = 1;
place = (-13, 68);
place = (-13, 68);
type = Stem;
},
{
horizontal = 1;
place = (684, 68);
place = (684, 68);
type = Stem;
},
{
place = (44, 75);
place = (44, 75);
type = Stem;
},
{
place = (750, 75);
place = (750, 75);
type = Stem;
}
);
layerId = m01;
shapes = (
{
ref = O;
},
{
pos = (280,182);
ref = acutecomb;
}
);
width = 869;
},
{
background = {
hints = (
{
horizontal = 1;
place = (-13, 132);
place = (-13, 132);
type = Stem;
},
{
horizontal = 1;
place = (620, 132);
place = (620, 132);
type = Stem;
},
{
place = (30, 138);
place = (30, 138);
type = Stem;
},
{
place = (662, 138);
place = (662, 138);
type = Stem;
}
);
shapes = (
{
closed = 1;
nodes = (
(634,-13,o),
(800,154,o),
(800,370,c),
(800,581,o),
(631,752,o),
(420,752,c),
(200,752,o),
(30,585,o),
(30,369,c),
(30,156,o),
(202,-13,o),
(419,-13,c)
);
},
{
closed = 1;
nodes = (
(278,119,o),
(168,229,o),
(168,369,c),
(168,512,o),
(276,620,o),
(418,620,c),
(555,620,o),
(662,510,o),
(662,368,c),
(662,226,o),
(558,119,o),
(418,119,c)
);
},
{
closed = 1;
nodes = (
(554,908,l),
(500,1000,l),
(276,866,l),
(327,788,l)
);
}
);
};
hints = (
{
horizontal = 1;
place = (-13, 132);
place = (-13, 132);
type = Stem;
},
{
horizontal = 1;
place = (620, 132);
place = (620, 132);
type = Stem;
},
{
place = (30, 138);
place = (30, 138);
type = Stem;
},
{
place = (662, 138);
place = (662, 138);
type = Stem;
}
);
layerId = "B17A67C7-7966-4564-9280-1BFE3E81CC5D";
shapes = (
{
ref = O;
},
{
pos = (249,175);
ref = acutecomb;
}
);
width = 840;
},
{
background = {
hints = (
{
horizontal = 1;
place = (-13, 68);
place = (-13, 68);
type = Stem;
},
{
horizontal = 1;
place = (684, 68);
place = (684, 68);
type = Stem;
},
{
place = (106, 77);
place = (106, 77);
type = Stem;
},
{
place = (823, 77);
place = (823, 77);
type = Stem;
}
);
shapes = (
{
closed = 1;
nodes = (
(673,-13,o),
(900,203,o),
(900,436,c),
(900,511,o),
(880,571,o),
(839,626,c),
(779,705,o),
(681,752,o),
(578,752,c),
(333,752,o),
(106,536,o),
(106,302,c),
(106,234,o),
(128,164,o),
(166,113,c),
(223,36,o),
(325,-13,o),
(428,-13,c)
);
},
{
closed = 1;
nodes = (
(296,55,o),
(183,170,o),
(183,316,c),
(183,503,o),
(369,684,o),
(560,684,c),
(713,684,o),
(823,574,o),
(823,422,c),
(823,232,o),
(638,55,o),
(440,55,c)
);
},
{
closed = 1;
nodes = (
(745,906,l),
(721,964,l),
(507,848,l),
(530,792,l)
);
}
);
};
hints = (
{
horizontal = 1;
place = (-13, 68);
place = (-13, 68);
type = Stem;
},
{
horizontal = 1;
place = (684, 68);
place = (684, 68);
type = Stem;
},
{
place = (106, 77);
place = (106, 77);
type = Stem;
},
{
place = (823, 77);
place = (823, 77);
type = Stem;
}
);
layerId = "E0ACA937-5896-4BA7-8E51-A45A3D2DA3C0";
shapes = (
{
ref = O;
},
{
pos = (303,182);
ref = acutecomb;
}
);
width = 869;
},
{
background = {
hints = (
{
horizontal = 1;
place = (-13, 132);
place = (-13, 132);
type = Stem;
},
{
horizontal = 1;
place = (620, 132);
place = (620, 132);
type = Stem;
},
{
place = (91, 140);
place = (91, 140);
type = Stem;
},
{
place = (735, 140);
place = (735, 140);
type = Stem;
}
);
shapes = (
{
closed = 1;
nodes = (
(658,-13,o),
(875,201,o),
(875,439,c),
(875,622,o),
(743,752,o),
(559,752,c),
(429,752,o),
(305,696,o),
(212,595,c),
(137,513,o),
(91,401,o),
(91,300,c),
(91,118,o),
(227,-13,o),
(416,-13,c)
);
},
{
closed = 1;
nodes = (
(318,119,o),
(231,204,o),
(231,323,c),
(231,381,o),
(256,448,o),
(297,501,c),
(356,578,o),
(439,620,o),
(532,620,c),
(650,620,o),
(735,536,o),
(735,419,c),
(735,359,o),
(711,290,o),
(672,238,c),
(615,162,o),
(531,119,o),
(440,119,c)
);
},
{
closed = 1;
nodes = (
(765,908,l),
(718,1007,l),
(482,880,l),
(522,792,l)
);
}
);
};
hints = (
{
horizontal = 1;
place = (-13, 132);
place = (-13, 132);
type = Stem;
},
{
horizontal = 1;
place = (620, 132);
place = (620, 132);
type = Stem;
},
{
place = (91, 140);
place = (91, 140);
type = Stem;
},
{
place = (735, 140);
place = (735, 140);
type = Stem;
}
);
layerId = "1B96798C-495B-4DFD-B0D1-66437D96AC3B";
shapes = (
{
ref = O;
},
{
pos = (272,175);
ref = acutecomb;
}
);
width = 840;
}
);
unicode = 211;
},
{
color = 6;
glyphname = Ocircumflex;
layers = (
{
background = {
hints = (
{
horizontal = 1;
place = (-13, 68);
place = (-13, 68);
type = Stem;
},
{
horizontal = 1;
place = (684, 68);
place = (684, 68);
type = Stem;
},
{
place = (44, 75);
place = (44, 75);
type = Stem;
},
{
place = (750, 75);
place = (750, 75);
type = Stem;
}
);
shapes = (
{
closed = 1;
nodes = (
(649,-13,o),
(825,160,o),
(825,369,c),
(825,580,o),
(649,752,o),
(435,752,c),
(223,752,o),
(44,579,o),
(44,374,c),
(44,159,o),
(218,-13,o),
(435,-13,c)
);
},
{
closed = 1;
nodes = (
(261,55,o),
(119,197,o),
(119,372,c),
(119,541,o),
(264,684,o),
(435,684,c),
(607,684,o),
(750,541,o),
(750,368,c),
(750,197,o),
(607,55,o),
(435,55,c)
);
},
{
closed = 1;
nodes = (
(349,805,l),
(436,879,l),
(522,805,l),
(611,805,l),
(469,931,l),
(402,931,l),
(257,805,l)
);
}
);
};
hints = (
{
horizontal = 1;
place = (-13, 68);
place = (-13, 68);
type = Stem;
},
{
horizontal = 1;
place = (684, 68);
place = (684, 68);
type = Stem;
},
{
place = (44, 75);
place = (44, 75);
type = Stem;
},
{
place = (750, 75);
place = (750, 75);
type = Stem;
}
);
layerId = m01;
shapes = (
{
ref = O;
},
{
pos = (184,182);
ref = circumflexcomb;
}
);
width = 869;
},
{
background = {
hints = (
{
horizontal = 1;
place = (-13, 132);
place = (-13, 132);
type = Stem;
},
{
horizontal = 1;
place = (620, 132);
place = (620, 132);
type = Stem;
},
{
place = (30, 138);
place = (30, 138);
type = Stem;
},
{
place = (662, 138);
place = (662, 138);
type = Stem;
}
);
shapes = (
{
closed = 1;
nodes = (
(634,-13,o),
(800,154,o),
(800,370,c),
(800,581,o),
(631,752,o),
(420,752,c),
(200,752,o),
(30,585,o),
(30,369,c),
(30,156,o),
(202,-13,o),
(419,-13,c)
);
},
{
closed = 1;
nodes = (
(278,119,o),
(168,229,o),
(168,369,c),
(168,512,o),
(276,620,o),
(418,620,c),
(555,620,o),
(662,510,o),
(662,368,c),
(662,226,o),
(558,119,o),
(418,119,c)
);
},
{
closed = 1;
nodes = (
(362,805,l),
(416,869,l),
(469,805,l),
(615,805,l),
(469,943,l),
(362,943,l),
(216,805,l)
);
}
);
};
hints = (
{
horizontal = 1;
place = (-13, 132);
place = (-13, 132);
type = Stem;
},
{
horizontal = 1;
place = (620, 132);
place = (620, 132);
type = Stem;
},
{
place = (30, 138);
place = (30, 138);
type = Stem;
},
{
place = (662, 138);
place = (662, 138);
type = Stem;
}
);
layerId = "B17A67C7-7966-4564-9280-1BFE3E81CC5D";
shapes = (
{
ref = O;
},
{
pos = (151,175);
ref = circumflexcomb;
}
);
width = 840;
},
{
background = {
hints = (
{
horizontal = 1;
place = (-13, 68);
place = (-13, 68);
type = Stem;
},
{
horizontal = 1;
place = (684, 68);
place = (684, 68);
type = Stem;
},
{
place = (106, 77);
place = (106, 77);
type = Stem;
},
{
place = (823, 77);
place = (823, 77);
type = Stem;
}
);
shapes = (
{
closed = 1;
nodes = (
(673,-13,o),
(900,203,o),
(900,436,c),
(900,511,o),
(880,571,o),
(839,626,c),
(779,705,o),
(681,752,o),
(578,752,c),
(333,752,o),
(106,536,o),
(106,302,c),
(106,234,o),
(128,164,o),
(166,113,c),
(223,36,o),
(325,-13,o),
(428,-13,c)
);
},
{
closed = 1;
nodes = (
(296,55,o),
(183,170,o),
(183,316,c),
(183,503,o),
(369,684,o),
(560,684,c),
(713,684,o),
(823,574,o),
(823,422,c),
(823,232,o),
(638,55,o),
(440,55,c)
);
},
{
closed = 1;
nodes = (
(497,805,l),
(598,879,l),
(670,805,l),
(759,805,l),
(641,931,l),
(574,931,l),
(405,805,l)
);
}
);
};
hints = (
{
horizontal = 1;
place = (-13, 68);
place = (-13, 68);
type = Stem;
},
{
horizontal = 1;
place = (684, 68);
place = (684, 68);
type = Stem;
},
{
place = (106, 77);
place = (106, 77);
type = Stem;
},
{
place = (823, 77);
place = (823, 77);
type = Stem;
}
);
layerId = "E0ACA937-5896-4BA7-8E51-A45A3D2DA3C0";
shapes = (
{
ref = O;
},
{
pos = (216,182);
ref = circumflexcomb;
}
);
width = 869;
},
{
background = {
hints = (
{
horizontal = 1;
place = (-13, 132);
place = (-13, 132);
type = Stem;
},
{
horizontal = 1;
place = (620, 132);
place = (620, 132);
type = Stem;
},
{
horizontal = 1;
place = (805, 138);
place = (805, 138);
type = Stem;
},
{
place = (91, 140);
place = (91, 140);
type = Stem;
},
{
place = (735, 140);
place = (735, 140);
type = Stem;
}
);
shapes = (
{
closed = 1;
nodes = (
(658,-13,o),
(875,201,o),
(875,439,c),
(875,622,o),
(743,752,o),
(559,752,c),
(429,752,o),
(305,696,o),
(212,595,c),
(137,513,o),
(91,401,o),
(91,300,c),
(91,118,o),
(227,-13,o),
(416,-13,c)
);
},
{
closed = 1;
nodes = (
(318,119,o),
(231,204,o),
(231,323,c),
(231,381,o),
(256,448,o),
(297,501,c),
(356,578,o),
(439,620,o),
(532,620,c),
(650,620,o),
(735,536,o),
(735,419,c),
(735,359,o),
(711,290,o),
(672,238,c),
(615,162,o),
(531,119,o),
(440,119,c)
);
},
{
closed = 1;
nodes = (
(518,805,l),
(584,869,l),
(626,805,l),
(771,805,l),
(651,943,l),
(543,943,l),
(372,805,l)
);
}
);
};
hints = (
{
horizontal = 1;
place = (-13, 132);
place = (-13, 132);
type = Stem;
},
{
horizontal = 1;
place = (620, 132);
place = (620, 132);
type = Stem;
},
{
horizontal = 1;
place = (805, 138);
place = (805, 138);
type = Stem;
},
{
place = (91, 140);
place = (91, 140);
type = Stem;
},
{
place = (735, 140);
place = (735, 140);
type = Stem;
}
);
layerId = "1B96798C-495B-4DFD-B0D1-66437D96AC3B";
shapes = (
{
ref = O;
},
{
pos = (180,175);
ref = circumflexcomb;
}
);
width = 840;
}
);
unicode = 212;
},
{
color = 6;
glyphname = Odieresis;
layers = (
{
background = {
hints = (
{
horizontal = 1;
place = (-13, 68);
place = (-13, 68);
type = Stem;
},
{
horizontal = 1;
place = (684, 68);
place = (684, 68);
type = Stem;
},
{
horizontal = 1;
place = (805, 126);
place = (805, 126);
type = Stem;
},
{
place = (44, 75);
place = (44, 75);
type = Stem;
},
{
place = (324, 74);
place = (324, 74);
type = Stem;
},
{
place = (471, 74);
place = (471, 74);
type = Stem;
},
{
place = (750, 75);
place = (750, 75);
type = Stem;
}
);
shapes = (
{
closed = 1;
nodes = (
(649,-13,o),
(825,160,o),
(825,369,c),
(825,580,o),
(649,752,o),
(435,752,c),
(223,752,o),
(44,579,o),
(44,374,c),
(44,159,o),
(218,-13,o),
(435,-13,c)
);
},
{
closed = 1;
nodes = (
(261,55,o),
(119,197,o),
(119,372,c),
(119,541,o),
(264,684,o),
(435,684,c),
(607,684,o),
(750,541,o),
(750,368,c),
(750,197,o),
(607,55,o),
(435,55,c)
);
},
{
closed = 1;
nodes = (
(398,805,l),
(398,931,l),
(324,931,l),
(324,805,l)
);
},
{
closed = 1;
nodes = (
(545,805,l),
(545,931,l),
(471,931,l),
(471,805,l)
);
}
);
};
hints = (
{
horizontal = 1;
place = (-13, 68);
place = (-13, 68);
type = Stem;
},
{
horizontal = 1;
place = (684, 68);
place = (684, 68);
type = Stem;
},
{
horizontal = 1;
place = (805, 126);
place = (805, 126);
type = Stem;
},
{
place = (44, 75);
place = (44, 75);
type = Stem;
},
{
place = (324, 74);
place = (324, 74);
type = Stem;
},
{
place = (471, 74);
place = (471, 74);
type = Stem;
},
{
place = (750, 75);
place = (750, 75);
type = Stem;
}
);
layerId = m01;
shapes = (
{
ref = O;
},
{
pos = (250,182);
ref = dieresiscomb;
}
);
width = 869;
},
{
background = {
hints = (
{
horizontal = 1;
place = (-13, 132);
place = (-13, 132);
type = Stem;
},
{
horizontal = 1;
place = (620, 132);
place = (620, 132);
type = Stem;
},
{
horizontal = 1;
place = (805, 133);
place = (805, 133);
type = Stem;
},
{
place = (30, 138);
place = (30, 138);
type = Stem;
},
{
place = (244, 133);
place = (244, 133);
type = Stem;
},
{
place = (454, 133);
place = (454, 133);
type = Stem;
},
{
place = (662, 138);
place = (662, 138);
type = Stem;
}
);
shapes = (
{
closed = 1;
nodes = (
(634,-13,o),
(800,154,o),
(800,370,c),
(800,581,o),
(631,752,o),
(420,752,c),
(200,752,o),
(30,585,o),
(30,369,c),
(30,156,o),
(202,-13,o),
(419,-13,c)
);
},
{
closed = 1;
nodes = (
(278,119,o),
(168,229,o),
(168,369,c),
(168,512,o),
(276,620,o),
(418,620,c),
(555,620,o),
(662,510,o),
(662,368,c),
(662,226,o),
(558,119,o),
(418,119,c)
);
},
{
closed = 1;
nodes = (
(377,805,l),
(377,938,l),
(244,938,l),
(244,805,l)
);
},
{
closed = 1;
nodes = (
(587,805,l),
(587,938,l),
(454,938,l),
(454,805,l)
);
}
);
};
hints = (
{
horizontal = 1;
place = (-13, 132);
place = (-13, 132);
type = Stem;
},
{
horizontal = 1;
place = (620, 132);
place = (620, 132);
type = Stem;
},
{
horizontal = 1;
place = (805, 133);
place = (805, 133);
type = Stem;
},
{
place = (30, 138);
place = (30, 138);
type = Stem;
},
{
place = (244, 133);
place = (244, 133);
type = Stem;
},
{
place = (454, 133);
place = (454, 133);
type = Stem;
},
{
place = (662, 138);
place = (662, 138);
type = Stem;
}
);
layerId = "B17A67C7-7966-4564-9280-1BFE3E81CC5D";
shapes = (
{
ref = O;
},
{
pos = (179,175);
ref = dieresiscomb;
}
);
width = 840;
},
{
background = {
hints = (
{
horizontal = 1;
place = (-13, 68);
place = (-13, 68);
type = Stem;
},
{
horizontal = 1;
place = (684, 68);
place = (684, 68);
type = Stem;
},
{
horizontal = 1;
place = (805, 126);
place = (805, 126);
type = Stem;
},
{
place = (106, 77);
place = (106, 77);
type = Stem;
},
{
place = (823, 77);
place = (823, 77);
type = Stem;
}
);
shapes = (
{
closed = 1;
nodes = (
(673,-13,o),
(900,203,o),
(900,436,c),
(900,511,o),
(880,571,o),
(839,626,c),
(779,705,o),
(681,752,o),
(578,752,c),
(333,752,o),
(106,536,o),
(106,302,c),
(106,234,o),
(128,164,o),
(166,113,c),
(223,36,o),
(325,-13,o),
(428,-13,c)
);
},
{
closed = 1;
nodes = (
(296,55,o),
(183,170,o),
(183,316,c),
(183,503,o),
(369,684,o),
(560,684,c),
(713,684,o),
(823,574,o),
(823,422,c),
(823,232,o),
(638,55,o),
(440,55,c)
);
},
{
closed = 1;
nodes = (
(544,805,l),
(568,931,l),
(494,931,l),
(470,805,l)
);
},
{
closed = 1;
nodes = (
(691,805,l),
(715,931,l),
(641,931,l),
(617,805,l)
);
}
);
};
hints = (
{
horizontal = 1;
place = (-13, 68);
place = (-13, 68);
type = Stem;
},
{
horizontal = 1;
place = (684, 68);
place = (684, 68);
type = Stem;
},
{
horizontal = 1;
place = (805, 126);
place = (805, 126);
type = Stem;
},
{
place = (106, 77);
place = (106, 77);
type = Stem;
},
{
place = (823, 77);
place = (823, 77);
type = Stem;
}
);
layerId = "E0ACA937-5896-4BA7-8E51-A45A3D2DA3C0";
shapes = (
{
ref = O;
},
{
pos = (283,182);
ref = dieresiscomb;
}
);
width = 869;
},
{
background = {
hints = (
{
horizontal = 1;
place = (-13, 132);
place = (-13, 132);
type = Stem;
},
{
horizontal = 1;
place = (620, 132);
place = (620, 132);
type = Stem;
},
{
horizontal = 1;
place = (805, 132);
place = (805, 132);
type = Stem;
},
{
place = (91, 140);
place = (91, 140);
type = Stem;
},
{
place = (735, 140);
place = (735, 140);
type = Stem;
}
);
shapes = (
{
closed = 1;
nodes = (
(658,-13,o),
(875,201,o),
(875,439,c),
(875,622,o),
(743,752,o),
(559,752,c),
(429,752,o),
(305,696,o),
(212,595,c),
(137,513,o),
(91,401,o),
(91,300,c),
(91,118,o),
(227,-13,o),
(416,-13,c)
);
},
{
closed = 1;
nodes = (
(318,119,o),
(231,204,o),
(231,323,c),
(231,381,o),
(256,448,o),
(297,501,c),
(356,578,o),
(439,620,o),
(532,620,c),
(650,620,o),
(735,536,o),
(735,419,c),
(735,359,o),
(711,290,o),
(672,238,c),
(615,162,o),
(531,119,o),
(440,119,c)
);
},
{
closed = 1;
nodes = (
(531,805,l),
(555,937,l),
(421,937,l),
(397,805,l)
);
},
{
closed = 1;
nodes = (
(741,805,l),
(765,937,l),
(631,937,l),
(607,805,l)
);
}
);
};
hints = (
{
horizontal = 1;
place = (-13, 132);
place = (-13, 132);
type = Stem;
},
{
horizontal = 1;
place = (620, 132);
place = (620, 132);
type = Stem;
},
{
horizontal = 1;
place = (805, 132);
place = (805, 132);
type = Stem;
},
{
place = (91, 140);
place = (91, 140);
type = Stem;
},
{
place = (735, 140);
place = (735, 140);
type = Stem;
}
);
layerId = "1B96798C-495B-4DFD-B0D1-66437D96AC3B";
shapes = (
{
ref = O;
},
{
pos = (207,175);
ref = dieresiscomb;
}
);
width = 840;
}
);
unicode = 214;
},
{
color = 6;
glyphname = Ograve;
layers = (
{
background = {
hints = (
{
horizontal = 1;
place = (-13, 68);
place = (-13, 68);
type = Stem;
},
{
horizontal = 1;
place = (684, 68);
place = (684, 68);
type = Stem;
},
{
place = (44, 75);
place = (44, 75);
type = Stem;
},
{
place = (750, 75);
place = (750, 75);
type = Stem;
}
);
shapes = (
{
closed = 1;
nodes = (
(649,-13,o),
(825,160,o),
(825,369,c),
(825,580,o),
(649,752,o),
(435,752,c),
(223,752,o),
(44,579,o),
(44,374,c),
(44,159,o),
(218,-13,o),
(435,-13,c)
);
},
{
closed = 1;
nodes = (
(261,55,o),
(119,197,o),
(119,372,c),
(119,541,o),
(264,684,o),
(435,684,c),
(607,684,o),
(750,541,o),
(750,368,c),
(750,197,o),
(607,55,o),
(435,55,c)
);
},
{
closed = 1;
nodes = (
(516,848,l),
(318,958,l),
(286,900,l),
(484,792,l)
);
}
);
};
hints = (
{
horizontal = 1;
place = (-13, 68);
place = (-13, 68);
type = Stem;
},
{
horizontal = 1;
place = (684, 68);
place = (684, 68);
type = Stem;
},
{
place = (44, 75);
place = (44, 75);
type = Stem;
},
{
place = (750, 75);
place = (750, 75);
type = Stem;
}
);
layerId = m01;
shapes = (
{
ref = O;
},
{
pos = (213,182);
ref = gravecomb;
}
);
width = 869;
},
{
background = {
hints = (
{
horizontal = 1;
place = (-13, 132);
place = (-13, 132);
type = Stem;
},
{
horizontal = 1;
place = (620, 132);
place = (620, 132);
type = Stem;
},
{
place = (30, 138);
place = (30, 138);
type = Stem;
},
{
place = (662, 138);
place = (662, 138);
type = Stem;
}
);
shapes = (
{
closed = 1;
nodes = (
(634,-13,o),
(800,154,o),
(800,370,c),
(800,581,o),
(631,752,o),
(420,752,c),
(200,752,o),
(30,585,o),
(30,369,c),
(30,156,o),
(202,-13,o),
(419,-13,c)
);
},
{
closed = 1;
nodes = (
(278,119,o),
(168,229,o),
(168,369,c),
(168,512,o),
(276,620,o),
(418,620,c),
(555,620,o),
(662,510,o),
(662,368,c),
(662,226,o),
(558,119,o),
(418,119,c)
);
},
{
closed = 1;
nodes = (
(555,867,l),
(333,1000,l),
(276,912,l),
(501,788,l)
);
}
);
};
hints = (
{
horizontal = 1;
place = (-13, 132);
place = (-13, 132);
type = Stem;
},
{
horizontal = 1;
place = (620, 132);
place = (620, 132);
type = Stem;
},
{
place = (30, 138);
place = (30, 138);
type = Stem;
},
{
place = (662, 138);
place = (662, 138);
type = Stem;
}
);
layerId = "B17A67C7-7966-4564-9280-1BFE3E81CC5D";
shapes = (
{
ref = O;
},
{
pos = (179,175);
ref = gravecomb;
}
);
width = 840;
},
{
background = {
hints = (
{
horizontal = 1;
place = (-13, 68);
place = (-13, 68);
type = Stem;
},
{
horizontal = 1;
place = (684, 68);
place = (684, 68);
type = Stem;
},
{
place = (106, 77);
place = (106, 77);
type = Stem;
},
{
place = (823, 77);
place = (823, 77);
type = Stem;
}
);
shapes = (
{
closed = 1;
nodes = (
(673,-13,o),
(900,203,o),
(900,436,c),
(900,511,o),
(880,571,o),
(839,626,c),
(779,705,o),
(681,752,o),
(578,752,c),
(333,752,o),
(106,536,o),
(106,302,c),
(106,234,o),
(128,164,o),
(166,113,c),
(223,36,o),
(325,-13,o),
(428,-13,c)
);
},
{
closed = 1;
nodes = (
(296,55,o),
(183,170,o),
(183,316,c),
(183,503,o),
(369,684,o),
(560,684,c),
(713,684,o),
(823,574,o),
(823,422,c),
(823,232,o),
(638,55,o),
(440,55,c)
);
},
{
closed = 1;
nodes = (
(670,843,l),
(489,960,l),
(449,908,l),
(632,792,l)
);
}
);
};
hints = (
{
horizontal = 1;
place = (-13, 68);
place = (-13, 68);
type = Stem;
},
{
horizontal = 1;
place = (684, 68);
place = (684, 68);
type = Stem;
},
{
place = (106, 77);
place = (106, 77);
type = Stem;
},
{
place = (823, 77);
place = (823, 77);
type = Stem;
}
);
layerId = "E0ACA937-5896-4BA7-8E51-A45A3D2DA3C0";
shapes = (
{
ref = O;
},
{
pos = (246,182);
ref = gravecomb;
}
);
width = 869;
},
{
background = {
hints = (
{
horizontal = 1;
place = (-13, 132);
place = (-13, 132);
type = Stem;
},
{
horizontal = 1;
place = (620, 132);
place = (620, 132);
type = Stem;
},
{
place = (91, 140);
place = (91, 140);
type = Stem;
},
{
place = (735, 140);
place = (735, 140);
type = Stem;
}
);
shapes = (
{
closed = 1;
nodes = (
(658,-13,o),
(875,201,o),
(875,439,c),
(875,622,o),
(743,752,o),
(559,752,c),
(429,752,o),
(305,696,o),
(212,595,c),
(137,513,o),
(91,401,o),
(91,300,c),
(91,118,o),
(227,-13,o),
(416,-13,c)
);
},
{
closed = 1;
nodes = (
(318,119,o),
(231,204,o),
(231,323,c),
(231,381,o),
(256,448,o),
(297,501,c),
(356,578,o),
(439,620,o),
(532,620,c),
(650,620,o),
(735,536,o),
(735,419,c),
(735,359,o),
(711,290,o),
(672,238,c),
(615,162,o),
(531,119,o),
(440,119,c)
);
},
{
closed = 1;
nodes = (
(683,877,l),
(480,1007,l),
(410,916,l),
(617,792,l)
);
}
);
};
hints = (
{
horizontal = 1;
place = (-13, 132);
place = (-13, 132);
type = Stem;
},
{
horizontal = 1;
place = (620, 132);
place = (620, 132);
type = Stem;
},
{
place = (91, 140);
place = (91, 140);
type = Stem;
},
{
place = (735, 140);
place = (735, 140);
type = Stem;
}
);
layerId = "1B96798C-495B-4DFD-B0D1-66437D96AC3B";
shapes = (
{
ref = O;
},
{
pos = (193,175);
ref = gravecomb;
}
);
width = 840;
}
);
unicode = 210;
},
{
glyphname = Oslash;
layers = (
{
background = {
hints = (
{
horizontal = 1;
place = (-13, 68);
place = (-13, 68);
type = Stem;
},
{
horizontal = 1;
place = (684, 68);
place = (684, 68);
type = Stem;
},
{
place = (44, 75);
place = (44, 75);
type = Stem;
},
{
place = (749, 75);
place = (749, 75);
type = Stem;
}
);
shapes = (
{
closed = 1;
nodes = (
(233,42,l),
(293,6,o),
(365,-13,o),
(437,-13,c),
(653,-13,o),
(824,157,o),
(824,372,c),
(824,486,o),
(780,582,o),
(692,656,c),
(784,779,l),
(730,821,l),
(636,696,l),
(586,730,o),
(507,752,o),
(431,752,c),
(214,752,o),
(44,584,o),
(44,370,c),
(44,255,o),
(91,153,o),
(176,82,c),
(83,-42,l),
(139,-83,l)
);
},
{
closed = 1;
nodes = (
(152,201,o),
(119,276,o),
(119,366,c),
(119,544,o),
(256,684,o),
(430,684,c),
(490,684,o),
(549,669,o),
(595,641,c),
(219,138,l)
);
},
{
closed = 1;
nodes = (
(378,55,o),
(331,67,o),
(274,97,c),
(650,600,l),
(718,534,o),
(749,461,o),
(749,369,c),
(749,194,o),
(611,55,o),
(436,55,c)
);
}
);
};
hints = (
{
horizontal = 1;
place = (-13, 68);
place = (-13, 68);
type = Stem;
},
{
horizontal = 1;
place = (684, 68);
place = (684, 68);
type = Stem;
},
{
place = (44, 75);
place = (44, 75);
type = Stem;
},
{
place = (749, 75);
place = (749, 75);
type = Stem;
}
);
layerId = m01;
shapes = (
{
closed = 1;
nodes = (
(233,42,l),
(293,6,o),
(365,-13,o),
(437,-13,c),
(653,-13,o),
(824,157,o),
(824,372,c),
(824,486,o),
(780,582,o),
(692,656,c),
(784,779,l),
(730,821,l),
(636,696,l),
(586,730,o),
(507,752,o),
(431,752,c),
(214,752,o),
(44,584,o),
(44,370,c),
(44,255,o),
(91,153,o),
(176,82,c),
(83,-42,l),
(139,-83,l)
);
},
{
closed = 1;
nodes = (
(152,201,o),
(119,276,o),
(119,366,c),
(119,544,o),
(256,684,o),
(430,684,c),
(490,684,o),
(549,669,o),
(595,641,c),
(219,138,l)
);
},
{
closed = 1;
nodes = (
(378,55,o),
(331,67,o),
(274,97,c),
(650,600,l),
(718,534,o),
(749,461,o),
(749,369,c),
(749,194,o),
(611,55,o),
(436,55,c)
);
}
);
width = 868;
},
{
background = {
hints = (
{
horizontal = 1;
place = (0, 20);
place = (0, 20);
type = Stem;
},
{
horizontal = 1;
place = (620, 132);
place = (620, 132);
type = Stem;
},
{
place = (30, 138);
place = (30, 138);
type = Stem;
},
{
place = (665, 138);
place = (665, 138);
type = Stem;
},
{
horizontal = 1;
place = (-13, 132);
place = (-13, 132);
type = Stem;
}
);
shapes = (
{
closed = 1;
nodes = (
(258,23,l),
(311,-1,o),
(366,-13,o),
(426,-13,c),
(641,-13,o),
(808,154,o),
(808,370,c),
(808,479,o),
(764,578,o),
(682,653,c),
(743,743,l),
(648,809,l),
(586,717,l),
(531,741,o),
(478,752,o),
(421,752,c),
(207,752,o),
(35,582,o),
(35,370,c),
(35,263,o),
(81,159,o),
(161,87,c),
(102,0,l),
(198,-65,l)
);
},
{
closed = 1;
nodes = (
(196,249,o),
(173,309,o),
(173,370,c),
(173,510,o),
(283,620,o),
(421,620,c),
(453,620,o),
(481,615,o),
(510,605,c),
(238,201,l)
);
},
{
closed = 1;
nodes = (
(394,119,o),
(365,124,o),
(334,135,c),
(606,540,l),
(648,491,o),
(670,433,o),
(670,368,c),
(670,226,o),
(565,119,o),
(425,119,c)
);
}
);
};
hints = (
{
horizontal = 1;
place = (0, 20);
place = (0, 20);
type = Stem;
},
{
horizontal = 1;
place = (620, 132);
place = (620, 132);
type = Stem;
},
{
place = (30, 138);
place = (30, 138);
type = Stem;
},
{
place = (665, 138);
place = (665, 138);
type = Stem;
},
{
horizontal = 1;
place = (-13, 132);
place = (-13, 132);
type = Stem;
}
);
layerId = "B17A67C7-7966-4564-9280-1BFE3E81CC5D";
shapes = (
{
closed = 1;
nodes = (
(258,23,l),
(311,-1,o),
(366,-13,o),
(426,-13,c),
(641,-13,o),
(808,154,o),
(808,370,c),
(808,479,o),
(764,578,o),
(682,653,c),
(743,743,l),
(648,809,l),
(586,717,l),
(531,741,o),
(478,752,o),
(421,752,c),
(207,752,o),
(35,582,o),
(35,370,c),
(35,263,o),
(81,159,o),
(161,87,c),
(102,0,l),
(198,-65,l)
);
},
{
closed = 1;
nodes = (
(196,249,o),
(173,309,o),
(173,370,c),
(173,510,o),
(283,620,o),
(421,620,c),
(453,620,o),
(481,615,o),
(510,605,c),
(238,201,l)
);
},
{
closed = 1;
nodes = (
(394,119,o),
(365,124,o),
(334,135,c),
(606,540,l),
(648,491,o),
(670,433,o),
(670,368,c),
(670,226,o),
(565,119,o),
(425,119,c)
);
}
);
width = 843;
},
{
background = {
hints = (
{
horizontal = 1;
place = (-13, 68);
place = (-13, 68);
type = Stem;
},
{
horizontal = 1;
place = (684, 68);
place = (684, 68);
type = Stem;
},
{
place = (103, 77);
place = (103, 77);
type = Stem;
},
{
place = (820, 77);
place = (820, 77);
type = Stem;
}
);
shapes = (
{
closed = 1;
nodes = (
(240,42,l),
(288,9,o),
(365,-13,o),
(433,-13,c),
(566,-13,o),
(697,50,o),
(787,158,c),
(858,241,o),
(899,346,o),
(899,442,c),
(899,528,o),
(869,601,o),
(813,656,c),
(927,778,l),
(882,821,l),
(765,696,l),
(743,711,o),
(738,714,o),
(732,717,c),
(693,737,o),
(624,752,o),
(566,752,c),
(439,752,o),
(301,686,o),
(214,582,c),
(144,499,o),
(105,397,o),
(105,294,c),
(105,209,o),
(134,138,o),
(191,82,c),
(74,-42,l),
(122,-83,l)
);
},
{
closed = 1;
nodes = (
(194,201,o),
(182,235,o),
(182,309,c),
(182,387,o),
(206,455,o),
(262,530,c),
(333,628,o),
(441,684,o),
(556,684,c),
(616,684,o),
(675,668,o),
(714,641,c),
(243,138,l)
);
},
{
closed = 1;
nodes = (
(385,55,o),
(348,65,o),
(291,97,c),
(761,600,l),
(768,590,l),
(811,530,o),
(822,497,o),
(822,426,c),
(822,352,o),
(799,286,o),
(751,219,c),
(676,115,o),
(563,55,o),
(442,55,c)
);
}
);
};
hints = (
{
horizontal = 1;
place = (-13, 68);
place = (-13, 68);
type = Stem;
},
{
horizontal = 1;
place = (684, 68);
place = (684, 68);
type = Stem;
},
{
place = (103, 77);
place = (103, 77);
type = Stem;
},
{
place = (820, 77);
place = (820, 77);
type = Stem;
}
);
layerId = "E0ACA937-5896-4BA7-8E51-A45A3D2DA3C0";
shapes = (
{
closed = 1;
nodes = (
(240,42,l),
(288,9,o),
(365,-13,o),
(433,-13,c),
(678,-13,o),
(899,207,o),
(899,442,c),
(899,528,o),
(869,601,o),
(813,656,c),
(927,778,l),
(882,821,l),
(765,696,l),
(703,738,o),
(639,752,o),
(566,752,c),
(337,752,o),
(105,551,o),
(105,294,c),
(105,209,o),
(134,138,o),
(191,82,c),
(74,-42,l),
(122,-83,l)
);
},
{
closed = 1;
nodes = (
(194,201,o),
(182,235,o),
(182,309,c),
(182,499,o),
(354,684,o),
(556,684,c),
(616,684,o),
(675,668,o),
(714,641,c),
(243,138,l)
);
},
{
closed = 1;
nodes = (
(385,55,o),
(348,65,o),
(291,97,c),
(761,600,l),
(811,530,o),
(822,497,o),
(822,426,c),
(822,238,o),
(650,55,o),
(442,55,c)
);
}
);
width = 867;
},
{
background = {
hints = (
{
horizontal = 1;
place = (-13, 132);
place = (-13, 132);
type = Stem;
},
{
horizontal = 1;
place = (620, 132);
place = (620, 132);
type = Stem;
},
{
place = (96, 140);
place = (96, 140);
type = Stem;
},
{
place = (741, 140);
place = (741, 140);
type = Stem;
}
);
shapes = (
{
closed = 1;
nodes = (
(254,23,l),
(311,-2,o),
(359,-13,o),
(418,-13,c),
(544,-13,o),
(668,45,o),
(755,143,c),
(833,231,o),
(876,337,o),
(876,438,c),
(876,529,o),
(848,603,o),
(794,655,c),
(882,757,l),
(801,826,l),
(709,719,l),
(655,742,o),
(607,752,o),
(551,752,c),
(311,752,o),
(91,535,o),
(91,297,c),
(91,217,o),
(116,149,o),
(169,87,c),
(86,-11,l),
(166,-80,l)
);
},
{
closed = 1;
nodes = (
(242,246,o),
(231,282,o),
(231,322,c),
(231,478,o),
(373,620,o),
(529,620,c),
(559,620,o),
(583,616,o),
(612,606,c),
(267,201,l)
);
},
{
closed = 1;
nodes = (
(405,119,o),
(380,124,o),
(350,136,c),
(698,542,l),
(722,511,o),
(736,465,o),
(736,415,c),
(736,257,o),
(597,119,o),
(439,119,c)
);
}
);
};
hints = (
{
horizontal = 1;
place = (-13, 132);
place = (-13, 132);
type = Stem;
},
{
horizontal = 1;
place = (620, 132);
place = (620, 132);
type = Stem;
},
{
place = (96, 140);
place = (96, 140);
type = Stem;
},
{
place = (741, 140);
place = (741, 140);
type = Stem;
}
);
layerId = "1B96798C-495B-4DFD-B0D1-66437D96AC3B";
shapes = (
{
closed = 1;
nodes = (
(254,23,l),
(311,-2,o),
(359,-13,o),
(418,-13,c),
(675,-13,o),
(876,220,o),
(876,438,c),
(876,529,o),
(848,603,o),
(794,655,c),
(882,757,l),
(801,826,l),
(709,719,l),
(655,742,o),
(607,752,o),
(551,752,c),
(311,752,o),
(91,535,o),
(91,297,c),
(91,217,o),
(116,149,o),
(169,87,c),
(86,-11,l),
(166,-80,l)
);
},
{
closed = 1;
nodes = (
(242,246,o),
(231,282,o),
(231,322,c),
(231,478,o),
(373,620,o),
(529,620,c),
(559,620,o),
(583,616,o),
(612,606,c),
(267,201,l)
);
},
{
closed = 1;
nodes = (
(405,119,o),
(380,124,o),
(350,136,c),
(698,542,l),
(722,511,o),
(736,465,o),
(736,415,c),
(736,257,o),
(597,119,o),
(439,119,c)
);
}
);
width = 840;
}
);
metricLeft = O;
metricRight = O;
unicode = 216;
},
